<?xml version="1.0" encoding="utf-8"?>
<!-- Generator: Adobe Illustrator 16.0.2, SVG Export Plug-In . SVG Version: 6.00 Build 0)  -->
<!DOCTYPE svg PUBLIC "-//W3C//DTD SVG 1.1//EN" "http://www.w3.org/Graphics/SVG/1.1/DTD/svg11.dtd">
<svg version="1.1" id="Layer_1" xmlns="http://www.w3.org/2000/svg" xmlns:xlink="http://www.w3.org/1999/xlink" x="0px" y="0px"
	 width="181.562px" height="100.084px" viewBox="0 0 181.562 100.084" style="enable-background:new 0 0 181.562 100.084;"
	 xml:space="preserve">
<style type="text/css">
<![CDATA[
	.st0{fill:#AA3E39;}
	.st1{fill:#AEC3FF;}
	.st2{fill:#7FAAF7;}
	.st3{fill:#E5E5E5;}
	.st4{fill:#E88338;}
	.st5{fill:#E8945B;}
	.st6{fill:#4F9FDB;}
	.st7{fill:#B08100;}
	.st8{fill:#83AFFC;}
	.st9{fill:#EB4680;}
	.st10{fill:#1D2A4C;}
	.st11{fill:#1D3F77;}
	.st12{fill:#EBF3FA;}
	.st13{fill:#B84C42;}
	.st14{fill:#ED9F4A;}
	.st15{fill:#EFCDAF;}
	.st16{fill:#5885D6;}
	.st17{fill:#202E51;}
	.st18{fill:#233862;}
	.st19{opacity:0.2;fill:#92B4D1;}
	.st20{fill:#F2F7FC;}
	.st21{opacity:0.5;fill:#FFFFFF;}
	.st22{fill:#2672AB;}
	.st23{fill:#F76195;}
	.st24{fill:#F8FCFF;}
	.st25{fill:#F99746;}
	.st26{fill:#F9DDBF;}
	.st27{fill:#C0D8FB;}
	.st28{fill:url(#SVGID_1_);}
	.st29{fill:url(#SVGID_2_);}
	.st30{fill:url(#SVGID_3_);}
	.st31{fill:url(#SVGID_4_);}
	.st32{fill:url(#SVGID_5_);}
	.st33{fill:url(#SVGID_6_);}
	.st34{fill:url(#SVGID_7_);}
	.st35{fill:url(#SVGID_8_);}
	.st36{fill:url(#SVGID_9_);}
	.st37{fill:#2A4E96;}
	.st38{fill:#96CF4A;}
	.st39{fill:#2B478B;}
	.st40{fill:#2C3A64;}
	.st41{fill:#99CC99;}
	.st42{fill:#FF3399;}
	.st43{fill:#FFB27D;}
	.st44{fill:#FFCC00;}
	.st45{fill:#FFD70F;}
	.st46{fill:#FFDE17;}
	.st47{fill:#FFF3E9;}
	.st48{fill:#FFFFFF;}
	.st49{fill:#66CC66;}
	.st50{fill:#66FF66;}
	.st51{fill:#CCCCCC;}
	.st52{fill:#CCFFCC;}
	.st53{opacity:0.7;fill:#FFFFFF;}
	.st54{fill:#333333;}
	.st55{fill:#333366;}
	.st56{fill:#35488B;}
	.st57{fill:#000033;}
	.st58{fill:#000066;}
	.st59{fill:#001A46;}
	.st60{fill:#00CCCC;}
	.st61{fill:#03336E;}
	.st62{fill:#D1EBFF;}
	.st63{fill:#D4DFFF;}
	.st64{fill:#D62D69;}
	.st65{fill:#084C94;}
	.st66{fill:url(#SVGID_10_);}
	.st67{fill:url(#SVGID_11_);}
	.st68{fill:url(#SVGID_12_);}
	.st69{fill:url(#SVGID_13_);}
	.st70{fill:url(#SVGID_14_);}
	.st71{fill:url(#SVGID_15_);}
	.st72{fill:url(#SVGID_16_);}
	.st73{fill:url(#SVGID_17_);}
	.st74{fill:url(#SVGID_18_);}
	.st75{fill:url(#SVGID_19_);}
	.st76{fill:url(#SVGID_20_);}
	.st77{fill:url(#SVGID_21_);}
	.st78{fill:url(#SVGID_22_);}
	.st79{fill:url(#SVGID_23_);}
	.st80{fill:url(#SVGID_24_);}
	.st81{fill:url(#SVGID_25_);}
	.st82{fill:url(#SVGID_26_);}
	.st83{fill:url(#SVGID_27_);}
	.st84{fill:url(#SVGID_28_);}
	.st85{fill:url(#SVGID_29_);}
	.st86{fill:url(#SVGID_30_);}
	.st87{fill:url(#SVGID_31_);}
	.st88{fill:url(#SVGID_32_);}
	.st89{fill:url(#SVGID_33_);}
	.st90{fill:url(#SVGID_34_);}
	.st91{fill:url(#SVGID_35_);}
	.st92{fill:url(#SVGID_36_);}
	.st93{fill:url(#SVGID_37_);}
	.st94{fill:url(#SVGID_38_);}
	.st95{fill:url(#SVGID_39_);}
	.st96{fill:url(#SVGID_40_);}
	.st97{fill:url(#SVGID_41_);}
	.st98{fill:url(#SVGID_42_);}
	.st99{fill:url(#SVGID_43_);}
	.st100{fill:url(#SVGID_44_);}
	.st101{fill:url(#SVGID_45_);}
	.st102{fill:url(#SVGID_46_);}
	.st103{fill:url(#SVGID_47_);}
	.st104{fill:url(#SVGID_48_);}
	.st105{fill:url(#SVGID_49_);}
	.st106{fill:url(#SVGID_50_);}
	.st107{fill:#D99F00;}
	.st108{fill:#3ECFCD;}
	.st109{fill:#3F92D1;}
	.st110{fill:#72B5E8;}
	.st111{opacity:0.5;fill:#AEC3FF;}
	.st112{fill:#739AF0;}
	.st113{fill:#739CF3;}
	.st114{fill:#0BA19F;}
	.st115{fill:#A8CFF0;}
	.st116{fill:#A8D29F;}
	.st117{fill:#79B27F;}
	.st118{fill:#0FBAB8;}
	.st119{fill:#415DA5;}
]]>
</style>
<g>
	<path class="st12" d="M178.066,83.565l-0.003,0.049c-0.073,1.42-0.264,2.76-0.544,4.021c-1.479,6.67-5.334,10.931-6.297,11.964
		c0,0.001-0.001,0.001-0.002,0.002c-0.129,0.141-0.21,0.22-0.22,0.241c-4.179,0-31.194,0.003-61.979-0.005
		c-8.299-0.001-16.87-0.005-25.345-0.01c-3.847-0.002-7.674-0.004-11.446-0.006c-2.746-0.002-5.463-0.005-8.137-0.006
		c-10.15-0.009-19.684-0.021-27.858-0.035c-4.377-0.009-8.363-0.018-11.852-0.028c-9.281-0.026-15.001-0.059-15.017-0.103
		l-0.011-0.03c0,0-0.009-0.009-0.009-0.017c0-0.001,0-0.001,0-0.002c0-0.01-0.011-0.021-0.011-0.021
		c-0.025-0.058-5.373-7.454-6.963-17.599c-0.367-2.353-0.535-4.853-0.386-7.443v-0.041C2.542,64.941,7.382,54.17,22.171,45.03
		c14.131-8.747-0.892-14.516,10.345-24.254c12.916-11.174,27.017,1.195,41.38-3.876c2.531-0.901,5.083-2.338,7.633-4.545
		c1.438-1.245,3.007-2.338,4.687-3.27c0.265-0.151,0.516-0.293,0.779-0.425c1.012-0.526,2.056-1.001,3.14-1.427
		c0.717-0.284,1.456-0.546,2.205-0.79c1.195-0.395,2.419-0.729,3.665-1.001c1.771-0.405,3.604-0.699,5.466-0.901
		c0.81-0.092,1.63-0.163,2.46-0.214c15.2-0.958,32.211,4.108,41.886,11.719c0.536,0.422,1.05,0.851,1.539,1.29
		c0.204,0.181,0.483,0.445,0.814,0.786c2.258,2.327,6.856,8.248,4.958,16.256c-0.162,0.682-0.372,1.381-0.633,2.093
		c-0.374,1.02-0.857,2.069-1.465,3.145c-0.94,1.669-0.801,3.309,0.051,4.97l0.009,0.01l0,0c0.048,0.089,0.097,0.179,0.147,0.269
		c0.178,0.313,0.379,0.625,0.606,0.941c0.128,0.18,0.263,0.359,0.407,0.539c0.035,0.044,0.071,0.089,0.108,0.135
		c0.073,0.09,0.148,0.18,0.226,0.27c0,0-0.002,0,0,0c0.062,0.073,0.122,0.145,0.187,0.216c0.062,0.072,0.126,0.145,0.192,0.217
		c0.064,0.072,0.132,0.144,0.198,0.215c0.068,0.073,0.136,0.145,0.205,0.218c0.068,0.071,0.14,0.144,0.21,0.216
		c0.071,0.072,0.143,0.145,0.216,0.216h0.001c1.221,1.214,1.559,2.743,1.875,4.529c0.123,0.696,0.243,1.432,0.411,2.204
		c0.009,0.034,0.016,0.068,0.023,0.103c0.144,0.649,0.327,1.323,0.572,2.02c0.012,0.034,0.024,0.069,0.036,0.104
		c0.22,0.604,0.489,1.227,0.83,1.865c0.031,0.061,0.063,0.12,0.097,0.179v0.001c0.025,0.048,0.051,0.095,0.079,0.142
		c0.02,0.034,0.039,0.068,0.058,0.103c0.034,0.06,0.069,0.117,0.104,0.176v0.001c0.015,0.024,0.029,0.05,0.045,0.074
		c0.242,0.406,0.518,0.816,0.827,1.232c0.134,0.184,0.277,0.368,0.427,0.553c0.798,0.989,1.799,2.008,3.064,3.052
		c1.667,1.375,3.796,2.796,6.521,4.251c0.435,0.231,0.852,0.466,1.255,0.704c3.79,2.24,6.166,4.729,7.016,7.535
		c0.12,0.397,0.323,1.172,0.518,2.103C177.853,80.404,178.133,82.2,178.066,83.565z"/>
	<path class="st116" d="M178.059,83.565c0.003,0.017,0.004,0.033,0.005,0.049c-0.073,1.42-0.264,2.76-0.544,4.021l-7.501,1.177
		l-1.55,0.243l-0.88,0.138l-6.104,0.958l-0.545,0.085l-1.228,0.192l-0.319,0.05h-0.002c0,0-0.263,0.032-0.72,0.074
		c-0.038,0.004-0.079,0.008-0.118,0.012c-0.304,0.029-0.682,0.062-1.112,0.094c-0.162,0.013-0.333,0.025-0.51,0.036
		c-0.033,0.002-0.067,0.005-0.102,0.006c-0.247,0.018-0.505,0.033-0.776,0.048c-0.559,0.03-1.162,0.057-1.788,0.072
		c-0.243,0.006-0.49,0.01-0.74,0.014c-0.131,0.001-0.263,0.002-0.394,0.002c-0.158,0-0.316,0-0.476-0.001
		c-0.236-0.001-0.474-0.005-0.71-0.012c-0.173-0.003-0.349-0.009-0.521-0.015c-0.24-0.01-0.481-0.021-0.722-0.035
		c-0.037-0.003-0.073-0.005-0.11-0.008c-0.111-0.006-0.223-0.014-0.334-0.022c-0.55-0.042-1.086-0.098-1.598-0.173
		c-0.086-0.014-0.169-0.026-0.255-0.041c-1.92-0.314-3.419-0.913-3.764-1.985c-0.314-0.981,0.364-2.378,2.601-4.322
		c0.372-0.323,0.761-0.632,1.163-0.928c2.597-1.909,5.794-3.262,9.142-4.216c0.14-0.04,0.28-0.079,0.418-0.117
		c0.022-0.006,0.044-0.013,0.063-0.019c0.04-0.01,0.077-0.02,0.115-0.03c0.076-0.021,0.15-0.04,0.226-0.06
		c0.132-0.035,0.264-0.07,0.396-0.103c0.669-0.17,1.342-0.327,2.015-0.469c0.169-0.035,0.339-0.07,0.509-0.104
		c0.079-0.017,0.159-0.033,0.237-0.048c0.055-0.011,0.109-0.021,0.165-0.031c0.082-0.017,0.167-0.033,0.249-0.048
		c2.805-0.529,5.579-0.834,8.077-1.001c2.812-0.189,5.271-0.205,7.016-0.174c0.201,0.487,0.374,1.231,0.518,2.103
		C177.781,80.348,177.945,82.039,178.059,83.565z"/>
	<path class="st24" d="M93.827,20.478c0,0,2.158-4.464,7.319-3.968c0,0,7.493-7.44,15.484-0.992c0,0,8.493-1.597,14.785,1.383
		c4.193,1.987,5.579,4.072,5.579,4.072L93.827,20.478z"/>
	<path class="st24" d="M86.271,60.192c0,0,2.914-5.052,9.882-4.49c0,0,10.117-8.419,20.905-1.123c0,0,11.469-1.808,19.962,1.565
		c5.661,2.25,7.532,4.609,7.532,4.609L86.271,60.192z"/>
	<path class="st117" d="M134.288,37.901c0,0-2.206-3.776-7.469-2.842c-5.263,0.936-3.86,7.015-6.773,9.875
		c-2.912,2.858-5.452,5.404-4.201,9.442c1.251,4.039-5.391,4.901-5.371,10.999c0.02,6.097,1.438,9.691,9.602,10.167
		c8.164,0.474,21.22-1.684,22.988-4.144c1.769-2.458,1.472-7.858-2.97-14.749c-4.438-6.89-0.382-7.508-3.35-11.498
		C133.777,41.161,135.867,39.544,134.288,37.901z"/>
	<path class="st24" d="M35.06,31.595c0,0,1.917-3.321,6.498-2.952c0,0,6.653-5.537,13.745-0.739c0,0,7.542-1.188,13.126,1.029
		c3.724,1.479,4.953,3.031,4.953,3.031L35.06,31.595z"/>
	<g>
		<polygon class="st112" points="96.337,88.744 94.788,88.744 95.122,44.821 95.906,44.821 		"/>
		<polygon class="st2" points="95.417,45.055 84.153,54.699 79.775,58.448 79.445,58.114 83.321,53.815 89.67,46.773 94.689,44.145 
					"/>
		<polygon class="st25" points="84.153,54.699 79.775,58.448 79.445,58.114 83.321,53.815 		"/>
		<polygon class="st2" points="96.183,44.404 95.083,44.794 89.561,30.714 87.564,25.623 87.989,25.42 90.668,30.294 95.346,38.801 
					"/>
		<polygon class="st25" points="90.668,30.294 89.561,30.714 87.564,25.623 87.989,25.42 		"/>
		<polygon class="st2" points="116.099,45.166 108.748,45.675 100.864,46.219 95.429,44.625 95.537,43.463 108.412,44.234 
			116.093,44.695 		"/>
		<polygon class="st25" points="116.099,45.166 108.485,45.692 108.412,44.234 116.093,44.695 		"/>
		<circle class="st39" cx="95.428" cy="44.324" r="1.011"/>
	</g>
	<g>
		<path class="st63" d="M43.654,99.568h38.321l15.977-0.01h28.89c0,0,0.017-0.029,0.049-0.087c0.024-0.041,0.055-0.096,0.096-0.168
			l0.016-0.021c0,0,0,0,0-0.009c0,0,0.016-0.011,0.016-0.022c0.064-0.084,0.11-0.181,0.174-0.296
			c0.033-0.053,0.064-0.117,0.113-0.181c0-0.01,0-0.01,0-0.021c0.016-0.01,0.016-0.01,0.016-0.01
			c0.218-0.378,0.489-0.871,0.804-1.466c0.028-0.054,0.057-0.109,0.086-0.163c0.155-0.45,0.328-0.954,0.51-1.509
			c0.435-1.346,0.934-2.99,1.421-4.844c0.191-0.733,0.382-1.495,0.563-2.291c0.105-0.459,0.212-0.938,0.313-1.421
			c0.03-0.141,0.06-0.283,0.088-0.423c0.188-0.905,0.364-1.837,0.522-2.788c0.313-1.863,0.559-3.805,0.699-5.773
			c-12.411,0.64-36.33,2.323-54.322,6.34c-25.389,5.671-31.663,6.587-42.418,7.604C29.568,92.579,36.437,96.354,43.654,99.568z"/>
		<path class="st63" d="M59.791,93.428c0,0,41.119-12.523,51.473-13.43c10.353-0.907,0.436,1.212,0.436,1.212
			S83.558,88.53,77.018,91.652C63.186,98.256,59.791,93.428,59.791,93.428z"/>
		<path class="st63" d="M72.211,99.21c0,0,34.27-15.741,43.543-18.297c9.273-2.558,0.598,1.016,0.598,1.016
			S89.293,96.041,83.626,99.603C82.805,100.117,72.211,99.21,72.211,99.21z"/>
	</g>
	<path class="st111" d="M81.183,49.119l-5.506,0.708l-5.506,0.72l-3.391-0.78c-0.082,0.152-0.224,0.264-0.386,0.324l0.243,31.349
		c-0.354,0.172-0.698,0.406-1.013,0.708l0.193-31.875l-7.41,7.157l-3.017,2.904l-0.253-0.223l2.631-3.29l4.304-5.384l3.34-2.015
		c-0.01-0.01-0.01-0.01-0.01-0.02c0-0.163,0.06-0.305,0.14-0.425l-4.25-9.201l-1.67-3.604L59.916,36l2.157,3.422l3.765,5.972
		l0.719,3.382h14.606L81.183,49.119z"/>
	<g>
		<polygon class="st112" points="143.487,86.935 141.516,86.935 141.939,25.401 142.938,25.401 		"/>
		<polygon class="st8" points="142.106,23.441 150.573,6.561 153.865,0 154.419,0.229 151.987,7.188 148.006,18.587 143.411,24.149 
					"/>
		<polygon class="st25" points="150.573,6.561 153.865,0 154.419,0.229 151.987,7.188 		"/>
		<polygon class="st8" points="141.529,24.581 142.627,23.58 156.056,37.387 160.91,42.38 160.512,42.828 154.963,38.427 
			145.275,30.746 		"/>
		<polygon class="st25" points="154.963,38.427 156.056,37.387 160.91,42.38 160.512,42.828 		"/>
		<polygon class="st8" points="117.771,33.509 126.149,29.287 135.137,24.759 142.306,23.951 142.752,25.367 127.253,30.812 
			118.01,34.06 		"/>
		<polygon class="st25" points="117.771,33.509 126.45,29.136 127.253,30.812 118.01,34.06 		"/>
		<circle class="st39" cx="142.455" cy="24.302" r="1.287"/>
	</g>
	<path class="st116" d="M113.408,90.311c0,0-8.275-2.46-13.121,0.555c-4.846,3.014-1.979,6.484-7.712,6.183
		c-5.732-0.302-8.598-0.592-8.899,2.796h25.343L113.408,90.311z"/>
	<g>
		<g>
			<g>
				<rect x="120.591" y="60.785" class="st26" width="27.816" height="39.001"/>
				<path class="st47" d="M170.019,61.823v37.959h-21.612V60.781h20.672C169.4,61.124,169.715,61.468,170.019,61.823z"/>
				<path class="st14" d="M153.792,48.045l-2.196,4.525l-0.973,1.994l-0.03,0.081l-0.039,0.071l-0.03,0.062l-0.053,0.101l-0.02,0.05
					l-0.961,1.975l-0.05,0.1l-0.122,0.264l-1.711,3.513l-0.395,0.819l-0.557,1.134l-0.294,0.607h-27.686l1.913-2.48l0.061-0.081
					l12.451-16.116l0.011-0.01h1.093l16.884-0.061C151.687,45.738,152.628,46.893,153.792,48.045z"/>
				<polygon class="st26" points="148.407,63.158 148.407,66.4 120.591,67.576 120.591,63.347 119.768,63.347 134.203,44.651 				
					"/>
				<path class="st15" d="M134.452,53.964h-0.582c-1.975,0-3.577,1.602-3.577,3.577v9.089h7.62v-9.205
					C137.913,55.514,136.364,53.964,134.452,53.964z"/>
				<g>
					<polygon class="st25" points="172.554,64.384 147.896,64.384 146.65,62.734 145.183,60.781 133.634,45.383 133.097,44.665 
						133.035,44.584 157.694,44.584 157.756,44.665 158.293,45.383 169.842,60.781 171.309,62.734 					"/>
				</g>
			</g>
			<g>
				<polygon class="st14" points="131.187,68.587 124.697,81.945 104.985,81.945 115.263,68.635 				"/>
				<g>
					<polygon class="st26" points="131.776,68.587 125.288,81.945 105.576,81.945 115.853,68.635 					"/>
					<polygon class="st26" points="125.245,81.945 125.245,99.748 105.576,99.787 105.576,81.945 					"/>
					<rect x="125.245" y="81.945" class="st47" width="16.655" height="17.803"/>
					<polygon class="st25" points="143.731,82.735 125.839,82.735 115.263,68.634 120.591,68.635 132.847,68.638 					"/>
					<circle class="st15" cx="115.262" cy="76.051" r="0.93"/>
					<polygon class="st4" points="143.731,82.735 140.335,82.735 120.591,68.635 132.847,68.638 					"/>
				</g>
			</g>
		</g>
		<g>
			<polygon class="st39" points="152.626,61.333 166.164,61.333 159.023,52.575 145.485,52.575 			"/>
			<g>
				<polygon class="st1" points="147.329,54.881 160.866,54.881 160.782,54.778 147.245,54.778 				"/>
				<polygon class="st1" points="155.842,52.574 162.981,61.333 163.085,61.333 155.942,52.574 				"/>
				<polygon class="st1" points="152.254,52.574 159.396,61.333 159.498,61.333 152.357,52.574 				"/>
				<polygon class="st1" points="148.802,52.574 155.943,61.333 156.047,61.333 148.906,52.574 				"/>
				<polygon class="st1" points="149.099,57.004 162.635,57.004 162.552,56.901 149.014,56.901 				"/>
				<polygon class="st1" points="150.966,59.296 164.504,59.296 164.419,59.193 150.882,59.193 				"/>
				<g>
					<polygon class="st1" points="158.094,55.258 158.171,54.837 157.407,54.416 157.328,54.837 					"/>
					<polygon class="st1" points="154.546,55.258 154.623,54.837 153.857,54.416 153.779,54.837 					"/>
					<polygon class="st1" points="151.043,55.258 151.121,54.837 150.355,54.416 150.276,54.837 					"/>
				</g>
				<g>
					<polygon class="st1" points="159.819,57.375 159.897,56.953 159.131,56.531 159.054,56.953 					"/>
					<polygon class="st1" points="156.271,57.375 156.35,56.953 155.583,56.531 155.506,56.953 					"/>
					<polygon class="st1" points="152.768,57.375 152.847,56.953 152.08,56.531 152.003,56.953 					"/>
				</g>
				<g>
					<polygon class="st1" points="161.688,59.667 161.766,59.245 161,58.822 160.921,59.245 					"/>
					<polygon class="st1" points="158.14,59.667 158.216,59.245 157.452,58.822 157.373,59.245 					"/>
					<polygon class="st1" points="154.636,59.667 154.715,59.245 153.949,58.822 153.871,59.245 					"/>
				</g>
			</g>
		</g>
		<g>
			<polygon class="st39" points="127.073,80.019 139.341,80.019 132.869,72.083 120.604,72.083 			"/>
			<g>
				<polygon class="st1" points="122.274,74.173 134.54,74.173 134.465,74.08 122.198,74.08 				"/>
				<polygon class="st1" points="129.986,72.083 136.457,80.019 136.551,80.019 130.08,72.083 				"/>
				<polygon class="st1" points="126.736,72.083 133.207,80.019 133.3,80.019 126.83,72.083 				"/>
				<polygon class="st1" points="123.609,72.083 130.08,80.019 130.173,80.019 123.702,72.083 				"/>
				<polygon class="st1" points="123.877,76.098 136.143,76.098 136.066,76.005 123.802,76.005 				"/>
				<polygon class="st1" points="125.568,78.173 137.836,78.173 137.76,78.08 125.493,78.08 				"/>
				<g>
					<polygon class="st1" points="132.029,74.515 132.1,74.133 131.404,73.751 131.334,74.133 					"/>
					<polygon class="st1" points="128.813,74.515 128.885,74.133 128.19,73.751 128.119,74.133 					"/>
					<polygon class="st1" points="125.64,74.515 125.71,74.133 125.016,73.751 124.946,74.133 					"/>
				</g>
				<g>
					<polygon class="st1" points="133.592,76.433 133.661,76.051 132.968,75.668 132.898,76.051 					"/>
					<polygon class="st1" points="130.377,76.433 130.447,76.051 129.754,75.668 129.684,76.051 					"/>
					<polygon class="st1" points="127.203,76.433 127.274,76.051 126.581,75.668 126.509,76.051 					"/>
				</g>
				<g>
					<polygon class="st1" points="135.285,78.509 135.355,78.126 134.661,77.745 134.59,78.126 					"/>
					<polygon class="st1" points="132.069,78.509 132.141,78.126 131.446,77.745 131.375,78.126 					"/>
					<polygon class="st1" points="128.896,78.509 128.966,78.126 128.272,77.745 128.202,78.126 					"/>
				</g>
			</g>
		</g>
	</g>
	<path class="st116" d="M55.782,99.568c-0.004,0.011-0.008,0.022-0.012,0.034H9.347c0-0.001,0-0.001,0-0.002
		c0-0.01-0.011-0.021-0.011-0.021c-0.025-0.058-5.373-7.454-6.963-17.599c1.163-0.447,5.266-1.834,11.037-1.683
		c0.232,0.006,0.467,0.015,0.706,0.026c2.128,0.099,4.47,0.412,6.961,1.055c0.087,0.022,0.177,0.045,0.265,0.068
		c0.023,0.007,0.049,0.014,0.074,0.02c0.175,0.048,0.352,0.097,0.529,0.147c0.198,0.057,0.396,0.116,0.599,0.176
		c0.071,0.022,0.143,0.044,0.216,0.066c0.267,0.083,0.532,0.169,0.801,0.26c3.137,1.054,5.081,2.192,6.436,3.292
		c0.027,0.022,0.057,0.045,0.085,0.068c0.649,0.538,1.161,1.065,1.604,1.569c0.122,0.137,0.237,0.272,0.35,0.407
		c0.139,0.166,0.273,0.328,0.404,0.487c0.438,0.537,0.843,1.03,1.317,1.461c1.311,1.192,3.153,1.913,7.697,1.732
		c0.815-0.033,1.595-0.04,2.34-0.024C53.563,91.313,57.277,95.5,55.782,99.568z"/>
	<path class="st116" d="M178.066,83.565c-0.003,0-0.005,0-0.008,0c-1.78-0.357-4.577-0.785-8.04-0.888
		c-2.146-0.063-4.547-0.003-7.119,0.278c-0.092,0.01-0.183,0.02-0.274,0.03c-0.269,0.031-0.539,0.063-0.812,0.099
		c-0.595,0.078-1.196,0.168-1.805,0.271c-0.001,0-0.001,0-0.004,0c-0.181,0.03-0.361,0.062-0.543,0.096
		c-0.196,0.034-0.393,0.07-0.59,0.109c-0.422,0.081-0.848,0.169-1.276,0.264c-0.188,0.042-0.377,0.085-0.565,0.129
		c-0.19,0.044-0.381,0.089-0.57,0.137c-0.231,0.056-0.463,0.115-0.696,0.176l0,0c-0.071,0.02-0.145,0.039-0.217,0.059h-0.001
		c-0.212,0.056-0.427,0.115-0.64,0.176c-0.865,0.245-1.74,0.521-2.622,0.827c-1.444,0.499-2.73,0.991-3.878,1.47
		c-1.456,0.606-2.694,1.194-3.764,1.748c-1.058,0.546-1.954,1.065-2.742,1.549c-4.266,2.622-5.316,4.24-11.137,3.787
		c-0.518-0.04-1.016-0.055-1.489-0.049c-1.561,0.02-2.895,0.271-4.029,0.66c-2.275,0.778-3.754,2.103-4.654,3.21
		c-0.74,0.912-1.089,1.673-1.166,1.856c-0.012,0.027-0.019,0.042-0.019,0.042h1.185h4.654H141.9h6.506h1.662h1.166h14.327h1.165
		h3.292h1.204c0.963-1.033,4.818-5.294,6.297-11.964c0.28-1.261,0.471-2.602,0.544-4.021L178.066,83.565z"/>
	<path class="st24" d="M25.998,55.886c0,0,1.12-2.093,3.794-1.86c0,0,3.884-3.486,8.025-0.465c0,0,4.402-0.749,7.663,0.648
		c2.174,0.932,2.892,1.91,2.892,1.91L25.998,55.886z"/>
	<path class="st24" d="M67.744,37.854c0,0,0.925-1.99,3.141-1.77c0,0,3.215-3.316,6.645-0.441c0,0,3.646-0.712,6.346,0.617
		c1.8,0.886,2.396,1.815,2.396,1.815L67.744,37.854z"/>
	<g>
		<g>
			<g>
				<polygon class="st11" points="28.748,99.278 31.392,99.245 37.567,73.516 34.924,73.549 				"/>
				<path class="st11" d="M24.382,99.85h11.854l0,0c0-0.693-0.562-1.255-1.255-1.255h-9.345
					C24.943,98.595,24.382,99.157,24.382,99.85L24.382,99.85z"/>
			</g>
			<polygon class="st11" points="51.768,87.937 50.631,82.229 50.631,82.229 50.627,82.218 46.838,63.218 10.005,63.223 
				14.934,87.944 21.932,87.942 21.932,87.942 21.997,87.942 29.826,87.941 29.851,87.941 29.851,87.941 37.646,87.94 37.7,87.94 
				37.7,87.94 45.478,87.939 45.478,87.939 45.55,87.939 45.55,87.939 			"/>
			<g>
				<polygon class="st37" points="52.398,87.45 15.565,87.455 10.636,63.223 47.469,63.218 				"/>
				<g>
					<g>
						<polygon class="st27" points="22.634,87.454 22.563,87.454 17.645,63.288 17.714,63.288 						"/>
					</g>
					<g>
						<polygon class="st27" points="30.482,87.453 30.412,87.453 25.494,63.286 25.564,63.286 						"/>
					</g>
					<g>
						<polygon class="st27" points="38.331,87.451 38.261,87.451 33.343,63.285 33.414,63.285 						"/>
					</g>
					<g>
						<polygon class="st27" points="46.181,87.45 46.109,87.45 41.192,63.284 41.264,63.284 						"/>
					</g>
					<g>
						<polygon class="st27" points="48.639,68.968 11.805,68.974 11.791,68.908 48.625,68.901 						"/>
					</g>
					<g>
						<polygon class="st27" points="49.95,75.411 13.115,75.416 13.103,75.349 49.936,75.344 						"/>
					</g>
					<g>
						<polygon class="st27" points="51.26,81.853 14.427,81.858 14.414,81.792 51.247,81.787 						"/>
					</g>
				</g>
				<g>
					<polygon class="st27" points="18.975,69.652 18.073,68.94 18.686,68.227 19.588,68.94 					"/>
					<polygon class="st27" points="20.293,76.126 19.39,75.416 20.003,74.704 20.907,75.415 					"/>
					<polygon class="st27" points="26.859,69.65 25.956,68.938 26.57,68.226 27.472,68.938 					"/>
					<polygon class="st27" points="28.177,76.125 27.273,75.415 27.887,74.702 28.79,75.414 					"/>
					<polygon class="st27" points="34.709,69.649 33.806,68.937 34.418,68.225 35.321,68.937 					"/>
					<polygon class="st27" points="42.486,69.649 41.585,68.937 42.198,68.225 43.101,68.937 					"/>
					<polygon class="st27" points="21.597,82.537 20.693,81.824 21.306,81.112 22.211,81.824 					"/>
					<polygon class="st27" points="29.481,82.535 28.578,81.823 29.191,81.11 30.095,81.823 					"/>
					<polygon class="st27" points="37.33,82.534 36.428,81.822 37.041,81.109 37.944,81.822 					"/>
					<polygon class="st27" points="45.108,82.533 44.205,81.822 44.819,81.108 45.723,81.821 					"/>
					<polygon class="st27" points="43.805,76.124 42.901,75.412 43.515,74.7 44.418,75.412 					"/>
					<polygon class="st27" points="36.026,76.125 35.123,75.414 35.736,74.701 36.64,75.414 					"/>
				</g>
			</g>
		</g>
	</g>
	<g>
		<g>
			<g>
				<polygon class="st11" points="67.09,99.457 68.905,99.434 73.145,81.77 71.33,81.793 				"/>
				<path class="st11" d="M64.092,99.85h8.141l0,0c0-0.477-0.388-0.862-0.863-0.862h-6.415
					C64.478,98.988,64.092,99.374,64.092,99.85L64.092,99.85z"/>
			</g>
			<polygon class="st11" points="82.895,91.671 82.113,87.753 82.113,87.753 82.111,87.744 79.51,74.7 54.22,74.704 57.605,91.675 
				62.41,91.675 62.41,91.675 62.456,91.675 67.832,91.673 67.848,91.673 67.848,91.673 73.199,91.672 73.236,91.672 73.236,91.672 
				78.576,91.672 78.576,91.672 78.625,91.672 78.625,91.672 			"/>
			<g>
				<polygon class="st37" points="83.328,91.337 58.039,91.34 54.653,74.704 79.943,74.7 				"/>
				<g>
					<g>
						<polygon class="st27" points="62.892,91.338 62.843,91.34 59.467,74.748 59.515,74.748 						"/>
					</g>
					<g>
						<polygon class="st27" points="68.279,91.338 68.232,91.338 64.855,74.746 64.904,74.746 						"/>
					</g>
					<g>
						<polygon class="st27" points="73.67,91.337 73.621,91.337 70.245,74.745 70.292,74.745 						"/>
					</g>
					<g>
						<polygon class="st27" points="79.058,91.337 79.01,91.337 75.634,74.745 75.683,74.745 						"/>
					</g>
					<g>
						<polygon class="st27" points="80.746,78.648 55.458,78.651 55.448,78.605 80.737,78.602 						"/>
					</g>
					<g>
						<polygon class="st27" points="81.646,83.07 56.357,83.075 56.349,83.029 81.638,83.025 						"/>
					</g>
					<g>
						<polygon class="st27" points="82.547,87.494 57.257,87.498 57.248,87.453 82.537,87.449 						"/>
					</g>
				</g>
				<g>
					<polygon class="st27" points="60.38,79.117 59.76,78.628 60.182,78.139 60.801,78.628 					"/>
					<polygon class="st27" points="61.284,83.563 60.664,83.075 61.086,82.584 61.705,83.075 					"/>
					<polygon class="st27" points="65.794,79.116 65.173,78.627 65.594,78.138 66.215,78.627 					"/>
					<polygon class="st27" points="66.698,83.562 66.078,83.073 66.499,82.584 67.119,83.073 					"/>
					<polygon class="st27" points="71.182,79.116 70.563,78.627 70.983,78.137 71.603,78.625 					"/>
					<polygon class="st27" points="76.523,79.114 75.903,78.625 76.323,78.137 76.943,78.625 					"/>
					<polygon class="st27" points="62.181,87.963 61.56,87.474 61.98,86.985 62.602,87.474 					"/>
					<polygon class="st27" points="67.594,87.963 66.973,87.474 67.394,86.983 68.015,87.474 					"/>
					<polygon class="st27" points="72.982,87.961 72.363,87.472 72.784,86.983 73.403,87.472 					"/>
					<polygon class="st27" points="78.322,87.961 77.703,87.471 78.124,86.982 78.743,87.471 					"/>
					<polygon class="st27" points="77.428,83.561 76.808,83.072 77.229,82.582 77.85,83.072 					"/>
					<polygon class="st27" points="72.086,83.562 71.467,83.072 71.888,82.583 72.509,83.072 					"/>
				</g>
			</g>
		</g>
	</g>
	<g>
		<path class="st5" d="M105.616,93.521l0.602-0.117c0,0-1.438-5.688-1.239-6.157c0.158-0.391,1.816-0.672,2.629-1.353
			c0.173-0.146,0.306-0.305,0.381-0.487c0.433-1.058-0.272-1.842-0.272-1.842s-1.475,0.338-2.813,0.911
			c-0.954,0.408-1.836,0.94-2.08,1.554C102.233,87.518,105.616,93.521,105.616,93.521z"/>
		<path class="st119" d="M103.979,94.397c0.011-0.059,0.05-0.112,0.109-0.145c0.142-0.078,0.436-0.191,0.653-0.484
			c0.125-0.165,0.634-0.652,0.634-0.652l0.002-0.001c0.014-0.003,0.081-0.002,0.404,0.131c0.167,0.067,0.341-0.247,0.341-0.247
			s0.054,0.021,0.103,0.074c0.039,0.041,0.076,0.102,0.082,0.188c0.008,0.121,0.133,0.316,0.226,0.446
			c0.057,0.079,0.102,0.134,0.102,0.134s0.033,0.068-0.25,0.176l-0.34,0.088c-0.118,0.014-0.21,0.006-0.33,0.022
			c-0.183,0.025-0.249,0.111-0.26,0.129c-0.003,0.002-0.003,0.004-0.003,0.004l-1.444,0.374
			C103.958,94.601,103.966,94.485,103.979,94.397z"/>
		<g id="BPbxa9_1_">
			<g>
				<path class="st40" d="M101.147,94.625c0.148,0,0.268-0.12,0.268-0.269c0-3.331-2.71-6.042-6.04-6.042
					c-0.771,0-1.52,0.143-2.228,0.425c-0.137,0.054-0.203,0.211-0.149,0.348c0.055,0.137,0.209,0.205,0.349,0.151
					c0.645-0.256,1.326-0.386,2.028-0.386c3.035,0,5.503,2.468,5.503,5.504C100.878,94.505,100.999,94.625,101.147,94.625z"/>
			</g>
			<g>
				<g>
					<circle class="st119" cx="95.392" cy="94.356" r="0.895"/>
					<g>
						<g>
							
								<rect x="93.945" y="92.121" transform="matrix(-0.3378 0.9412 -0.9412 -0.3378 215.4497 32.7919)" class="st119" width="4.489" height="0.122"/>
						</g>
						<g>
							<polygon class="st119" points="99.674,96.262 99.722,96.15 95.432,94.307 92.61,90.278 92.512,90.348 95.352,94.405 
								95.367,94.411 							"/>
						</g>
						<g>
							<path class="st119" d="M97.092,99.016l0.116-0.039c-0.032-0.092-1.689-4.456-1.761-4.642l-0.043-0.113l-2.673,4.227
								l0.103,0.065l2.543-4.023C95.985,96.09,97.069,98.945,97.092,99.016z"/>
						</g>
						<g>
							
								<rect x="95.356" y="93.583" transform="matrix(-0.9856 0.1693 -0.1693 -0.9856 209.985 169.3847)" class="st119" width="4.831" height="0.121"/>
						</g>
						<g>
							
								<rect x="94.329" y="89.723" transform="matrix(-0.9514 0.3078 -0.3078 -0.9514 212.4949 150.3405)" class="st119" width="0.122" height="4.413"/>
						</g>
						<g>
							<polygon class="st119" points="95.401,94.418 95.419,94.41 99.786,92.196 99.73,92.088 95.382,94.293 90.701,93.508 
								90.68,93.627 							"/>
						</g>
						<g>
							<path class="st119" d="M93.63,98.864c0.025-0.075,1.146-2.834,1.772-4.376l2.425,3.813l0.102-0.065l-2.551-4.012l-0.043,0.11
								c-0.073,0.18-1.79,4.399-1.821,4.491L93.63,98.864z"/>
						</g>
						<g>
							
								<rect x="97.68" y="92.328" transform="matrix(-0.1599 0.9871 -0.9871 -0.1599 206.8528 13.3599)" class="st119" width="0.122" height="4.753"/>
						</g>
						<g>
							
								<rect x="94.95" y="92.128" transform="matrix(-0.6555 0.7552 -0.7552 -0.6555 230.1008 79.409)" class="st119" width="3.976" height="0.121"/>
						</g>
						<g>
							
								<rect x="95.361" y="94.682" transform="matrix(-0.9976 0.0689 -0.0689 -0.9976 197.2943 186.9669)" class="st119" width="0.12" height="4.413"/>
						</g>
						<g>
							
								<rect x="90.998" y="95.492" transform="matrix(-0.8218 0.5698 -0.5698 -0.8218 224.8292 120.7931)" class="st119" width="5.056" height="0.123"/>
						</g>
						<g>
							<polygon class="st119" points="98.836,97.613 98.921,97.528 95.451,94.028 95.451,89.474 95.33,89.474 95.33,94.078 							
								"/>
						</g>
					</g>
				</g>
				<g>
					<path class="st17" d="M99.65,91.295c-0.098-0.133-0.2-0.264-0.31-0.388c-0.413-0.474-0.911-0.872-1.469-1.172
						c-0.242-0.131-0.496-0.244-0.76-0.334c-0.54-0.189-1.118-0.292-1.722-0.292c-0.187,0-0.371,0.01-0.552,0.03h-0.001
						c-1.089,0.114-2.08,0.564-2.866,1.241h-0.001c-1.116,0.963-1.826,2.388-1.826,3.975c0,0.481,0.067,0.957,0.194,1.416
						c0.115,0.412,0.282,0.812,0.495,1.185c0.007,0.011,0.014,0.024,0.021,0.035c0.454,0.78,1.104,1.433,1.882,1.891
						c0.61,0.359,1.291,0.589,1.991,0.678c0.001,0,0.001,0,0.002,0c0,0,0,0,0.002,0c0.218,0.028,0.438,0.042,0.659,0.042
						c0.228,0,0.452-0.015,0.674-0.043h0.001c2.575-0.333,4.571-2.538,4.571-5.204C100.637,93.215,100.271,92.158,99.65,91.295z
						 M99.565,96.083c-0.015,0.038-0.029,0.075-0.047,0.112c-0.192,0.428-0.449,0.823-0.76,1.168
						c-0.025,0.032-0.054,0.062-0.081,0.091c-0.243,0.257-0.515,0.486-0.812,0.681c-0.034,0.022-0.068,0.044-0.104,0.065
						c-0.225,0.14-0.462,0.26-0.712,0.358c-0.037,0.015-0.075,0.03-0.113,0.044c-0.406,0.148-0.841,0.24-1.292,0.265
						c-0.039,0.002-0.08,0.004-0.121,0.005c-0.044,0.001-0.089,0.002-0.134,0.002c-0.563,0-1.122-0.105-1.643-0.309
						c-0.037-0.014-0.075-0.03-0.113-0.045c-0.182-0.077-0.357-0.165-0.529-0.265c-0.025-0.017-0.053-0.033-0.078-0.048
						c-0.034-0.021-0.068-0.042-0.102-0.065c-0.466-0.303-0.872-0.69-1.196-1.139c-0.021-0.029-0.041-0.059-0.062-0.087
						c-0.023-0.033-0.046-0.068-0.067-0.102c-0.042-0.062-0.08-0.124-0.117-0.188c-0.222-0.379-0.385-0.79-0.485-1.215
						c-0.083-0.344-0.126-0.699-0.126-1.055c0-0.234,0.019-0.464,0.053-0.688c0.007-0.039,0.013-0.079,0.021-0.119
						c0.212-1.171,0.877-2.186,1.807-2.857c0.032-0.024,0.064-0.048,0.099-0.071c0.274-0.187,0.57-0.344,0.882-0.469
						c0.04-0.014,0.077-0.028,0.115-0.042c0.463-0.169,0.963-0.265,1.482-0.271c0.021-0.001,0.041-0.001,0.061-0.001
						c0.021,0,0.042,0,0.061,0.001c0.486,0.007,0.954,0.089,1.391,0.239h0.002c0.012,0.003,0.021,0.007,0.033,0.011
						c0.038,0.014,0.075,0.028,0.113,0.042c0.198,0.075,0.392,0.165,0.574,0.265c0.189,0.104,0.372,0.224,0.544,0.353
						c0.032,0.024,0.063,0.049,0.095,0.076c0.17,0.133,0.328,0.28,0.477,0.437c0.146,0.153,0.279,0.318,0.401,0.49
						c0.114,0.163,0.22,0.332,0.311,0.509c0.021,0.035,0.038,0.072,0.056,0.107c0.137,0.275,0.245,0.568,0.323,0.871
						c0.009,0.041,0.02,0.079,0.027,0.119c0.073,0.322,0.112,0.656,0.112,0.999c0,0.205-0.014,0.406-0.04,0.603
						c-0.005,0.041-0.012,0.082-0.02,0.121C99.796,95.429,99.699,95.766,99.565,96.083z"/>
				</g>
			</g>
			<g>
				
					<rect x="101.746" y="89.99" transform="matrix(-0.3045 0.9525 -0.9525 -0.3045 225.3103 16.0161)" class="st113" width="10.123" height="0.545"/>
			</g>
			<g>
				<polygon class="st113" points="105.786,95.194 113.063,94.561 99.567,85.438 100.338,87.018 111.481,94.151 105.737,94.65 				
					"/>
			</g>
			<g>
				<polygon class="st113" points="104.805,94.767 105.265,94.471 99.665,85.501 99.013,86.176 				"/>
			</g>
			<g>
				<path class="st119" d="M95.825,94.115l3.119-6.672l-0.417-0.167c-0.271-0.109-0.581,0.023-0.689,0.295l-2.517,6.338
					L95.825,94.115z"/>
			</g>
			<g>
				<path class="st119" d="M98.944,87.443c0.451-1.171,1.205-3.012,1.192-2.993l-0.454-0.303c-0.022,0.033-0.038,0.056-1.222,3.126
					L98.944,87.443z"/>
			</g>
			<circle class="st119" cx="101.113" cy="84.766" r="0.554"/>
			<circle class="st119" cx="99.016" cy="83.316" r="0.553"/>
			<g>
				<polygon class="st119" points="98.926,83.836 101.041,85.181 101.334,84.604 99.219,83.258 				"/>
			</g>
			<path class="st119" d="M102.406,96.479h1.182c0.141,0,0.253-0.114,0.253-0.252l0,0c0-0.14-0.112-0.254-0.253-0.254h-1.182
				c-0.139,0-0.253,0.114-0.253,0.254l0,0C102.153,96.365,102.268,96.479,102.406,96.479z"/>
			<g>
				
					<rect x="102.823" y="95.422" transform="matrix(-0.91 0.4146 -0.4146 -0.91 238.5119 139.2878)" class="st119" width="2.632" height="0.213"/>
			</g>
			<g>
				<g>
					<circle class="st119" cx="112.271" cy="94.356" r="0.895"/>
					<g>
						<g>
							
								<rect x="110.825" y="92.122" transform="matrix(-0.338 0.9411 -0.9411 -0.338 238.0477 16.9301)" class="st119" width="4.489" height="0.122"/>
						</g>
						<g>
							<polygon class="st119" points="116.554,96.262 116.602,96.15 112.312,94.307 109.492,90.278 109.391,90.348 112.231,94.405 
								112.248,94.411 							"/>
						</g>
						<g>
							<path class="st119" d="M113.973,99.016l0.116-0.039c-0.031-0.092-1.69-4.456-1.76-4.642l-0.043-0.113l-2.674,4.227
								l0.104,0.065l2.542-4.023C112.867,96.09,113.951,98.945,113.973,99.016z"/>
						</g>
						<g>
							
								<rect x="112.237" y="93.583" transform="matrix(-0.9856 0.1693 -0.1693 -0.9856 243.5045 166.5228)" class="st119" width="4.83" height="0.121"/>
						</g>
						<g>
							
								<rect x="111.211" y="89.724" transform="matrix(-0.9507 0.3102 -0.3102 -0.9507 245.5695 144.8112)" class="st119" width="0.121" height="4.412"/>
						</g>
						<g>
							<polygon class="st119" points="112.282,94.418 112.3,94.41 116.666,92.196 116.612,92.088 112.262,94.293 107.582,93.508 
								107.563,93.627 							"/>
						</g>
						<g>
							<path class="st119" d="M110.511,98.864c0.024-0.075,1.146-2.834,1.773-4.376l2.423,3.813l0.104-0.065l-2.55-4.012
								l-0.045,0.11c-0.073,0.18-1.791,4.399-1.82,4.491L110.511,98.864z"/>
						</g>
						<g>
							
								<rect x="114.561" y="92.329" transform="matrix(-0.1442 0.9895 -0.9895 -0.1442 224.8679 -5.0603)" class="st119" width="0.122" height="4.751"/>
						</g>
						<g>
							
								<rect x="111.829" y="92.128" transform="matrix(-0.6558 0.755 -0.755 -0.6558 258.0547 66.7148)" class="st119" width="3.978" height="0.121"/>
						</g>
						<g>
							
								<rect x="112.242" y="94.682" transform="matrix(-0.9977 0.0684 -0.0684 -0.9977 230.9675 185.8689)" class="st119" width="0.121" height="4.413"/>
						</g>
						<g>
							
								<rect x="107.879" y="95.493" transform="matrix(-0.8217 0.5699 -0.5699 -0.8217 255.5838 111.1594)" class="st119" width="5.055" height="0.122"/>
						</g>
						<g>
							<polygon class="st119" points="115.717,97.613 115.803,97.528 112.332,94.028 112.332,89.474 112.212,89.474 112.212,94.078 
															"/>
						</g>
					</g>
				</g>
				<g>
					<path class="st17" d="M112.272,89.109c-0.803,0-1.564,0.182-2.245,0.507c-0.768,0.364-1.434,0.909-1.94,1.582
						c-0.133,0.173-0.253,0.356-0.364,0.548c-0.443,0.769-0.697,1.661-0.697,2.61c0,0.062,0.002,0.122,0.004,0.182
						c0.007,0.183,0.021,0.364,0.046,0.544c0.096,0.672,0.317,1.323,0.659,1.91c0.43,0.739,1.037,1.364,1.762,1.816
						c0.04,0.025,0.081,0.05,0.121,0.074c0.607,0.355,1.277,0.584,1.975,0.676c0.225,0.029,0.452,0.044,0.681,0.044
						c0.23,0,0.458-0.015,0.681-0.044c2.572-0.335,4.565-2.54,4.565-5.202C117.519,91.464,115.165,89.109,112.272,89.109z
						 M116.447,96.083c-0.014,0.038-0.03,0.075-0.049,0.112c-0.191,0.428-0.447,0.823-0.758,1.168
						c-0.027,0.032-0.055,0.062-0.081,0.091c-0.244,0.257-0.517,0.486-0.814,0.681c-0.032,0.022-0.066,0.044-0.101,0.065
						c-0.226,0.14-0.464,0.26-0.713,0.358c-0.037,0.015-0.075,0.03-0.113,0.044c-0.406,0.148-0.84,0.24-1.292,0.265
						c-0.041,0.002-0.08,0.004-0.121,0.005c-0.044,0.001-0.088,0.002-0.133,0.002c-0.566,0-1.124-0.105-1.644-0.309
						c-0.039-0.014-0.075-0.03-0.113-0.045c-0.181-0.077-0.358-0.165-0.528-0.265c-0.027-0.017-0.052-0.033-0.078-0.048
						c-0.036-0.021-0.069-0.042-0.104-0.065c-0.001,0-0.002,0-0.002-0.003c-0.494-0.321-0.921-0.738-1.256-1.223
						c-0.021-0.033-0.045-0.068-0.065-0.102c-0.042-0.062-0.081-0.124-0.119-0.188c-0.287-0.495-0.479-1.042-0.56-1.607
						c-0.028-0.18-0.043-0.362-0.048-0.545c-0.001-0.039-0.003-0.08-0.003-0.118c0-0.234,0.02-0.464,0.053-0.688
						c0.006-0.039,0.013-0.079,0.021-0.119c0.09-0.504,0.265-0.979,0.511-1.41c0.104-0.188,0.223-0.365,0.354-0.534
						c0.268-0.348,0.586-0.657,0.941-0.913c0.034-0.024,0.066-0.048,0.1-0.071c0.274-0.187,0.571-0.344,0.884-0.469
						c0.037-0.014,0.075-0.028,0.112-0.042c0.284-0.104,0.579-0.18,0.884-0.223h0.001c0.196-0.029,0.395-0.046,0.6-0.048
						c0.019-0.001,0.04-0.001,0.061-0.001c0.02,0,0.04,0,0.06,0.001c0.499,0.007,0.979,0.095,1.427,0.25
						c0.037,0.014,0.075,0.028,0.112,0.042c0.403,0.153,0.779,0.363,1.119,0.618c0.032,0.024,0.063,0.049,0.095,0.076
						c0.489,0.389,0.896,0.878,1.188,1.436c0.019,0.035,0.038,0.072,0.056,0.107c0.137,0.275,0.243,0.568,0.322,0.871
						c0.009,0.041,0.019,0.079,0.027,0.119c0.073,0.322,0.113,0.656,0.113,0.999c0,0.205-0.015,0.406-0.041,0.603
						c-0.007,0.041-0.012,0.082-0.018,0.121C116.677,95.429,116.579,95.766,116.447,96.083z"/>
				</g>
			</g>
			<g>
				<path class="st25" d="M107.997,88.973c0.077,0.028,0.161,0.019,0.23-0.024l0,0c2.455-1.482,5.851-0.925,6.833-0.719h0.004
					c0.053,0.012,0.104-0.03,0.104-0.085v-0.191c0-0.147-0.107-0.272-0.252-0.294c-0.532-0.079-1.773-0.249-2.467-0.251
					c-0.02,0-0.038-0.001-0.057-0.001c-1.554,0-2.896,0.279-3.999,0.828c-0.225,0.113-0.485,0.128-0.722,0.045l-0.303-0.106
					c-0.174-0.061-0.362,0.03-0.424,0.204l0,0c-0.039,0.11,0.021,0.233,0.133,0.272L107.997,88.973z"/>
			</g>
			<path class="st25" d="M110.278,85.236c0,0,0.099-0.447-0.183-0.477c-0.279-0.032-1.303,0.188-1.576,0.158
				c-0.272-0.03-1.699-0.266-1.948-0.022c-0.251,0.242-0.145,0.454,0.357,0.5c0.499,0.045,1.166,0.129,1.356,0.289
				C108.474,85.843,109.847,86.313,110.278,85.236z"/>
			<circle class="st40" cx="105.267" cy="95.084" r="1.365"/>
		</g>
		<path class="st5" d="M100.512,83.518c0,0-0.447-0.568-0.69-0.498c-0.423,0.122-0.456,0.508-0.446,0.587
			c0.01,0.078,0.005,0.388,0.192,0.455c0.187,0.065,0.381-0.015,0.468-0.088C100.122,83.901,100.512,83.518,100.512,83.518z"/>
		<path class="st5" d="M99.753,83.059c0,0,0.063,0.353,0.49,0.47c0.427,0.113,3.07-1,3.699-1.309c0.339-0.17,0.827-1.11,1.203-1.931
			c0.089-0.203,0.174-0.395,0.249-0.568c0.188-0.437,0.31-0.75,0.31-0.75c0-0.433-0.478-0.265-0.909-0.067
			c-0.132,0.062-0.819-0.23-1.003,0.123c-0.085,0.164-0.197,0.145-0.281,0.328c-0.333,0.737-0.639,1.569-0.705,1.766
			C102.689,81.472,99.753,83.059,99.753,83.059z"/>
		<path class="st43" d="M100.843,83.847c0,0-0.445-0.558-0.692-0.496c-0.581,0.146-0.503,0.564-0.492,0.644
			c0.011,0.078,0.053,0.332,0.239,0.397c0.187,0.066,0.382-0.014,0.467-0.087C100.451,84.231,100.843,83.847,100.843,83.847z"/>
		<path class="st43" d="M105.952,78.259l-1.509,0.557c-0.193-0.188-0.385-0.485-0.541-0.758c-0.191-0.338-0.325-0.635-0.325-0.635
			l1.053-0.737l0.332-0.233C104.982,77.125,105.952,78.259,105.952,78.259z"/>
		<path class="st5" d="M105.041,76.816c0,0-0.298,0.931-1.139,1.241c-0.191-0.338-0.325-0.635-0.325-0.635l1.053-0.737
			L105.041,76.816z"/>
		<path class="st43" d="M103.1,77.399c0,0,1.864,0.292,2.029-0.872c0.164-1.165,0.515-1.911-0.669-2.147
			c-1.183-0.235-1.479,0.176-1.627,0.552C102.684,75.308,102.619,77.292,103.1,77.399z"/>
		<path class="st40" d="M105.548,74.169c0,0-0.085,0.016-0.153,0.088c0-0.001,0-0.001,0-0.001c-0.006-0.251-0.252-0.505-0.252-0.505
			c0.118,0.148,0.079,0.425,0.079,0.425c-0.351-0.602-2.061-0.128-2.222-0.089c-0.159,0.04-0.272-0.199-0.272-0.199
			c-0.254,0.218-0.349,0.755-0.139,1.106c0.208,0.35,0.889,0.866,1.085,0.768c0.196-0.098,0.196,0.105,0.187,0.39
			c-0.011,0.285,0.483,0.764,0.831,0.834c0.281,0.055,0.302-0.135,0.378-0.259c0.019-0.03,0.042-0.058,0.067-0.083
			c0.383-0.344,0.594-1.033,0.508-1.711c-0.033-0.269-0.145-0.496-0.208-0.605C105.462,74.284,105.511,74.204,105.548,74.169z"/>
		<path class="st40" d="M104.902,84.475c0.019,0.085,0.226,0.78,0.76,0.958c0.349,0.117,1.194,0.403,1.945,0.459
			c0.173-0.146,0.306-0.305,0.381-0.487c0.433-1.058-0.272-1.842-0.272-1.842S106.241,83.902,104.902,84.475z"/>
		<path class="st43" d="M109.137,82.025c0,0,1.513,1.738,0.124,3.696c-1.388,1.956-3.646,3.535-3.771,4.232
			c-0.241,1.352-1.68,4.139-2.364,5.519l-0.586-0.225c0,0,1.1-6.538,1.492-7.321c0.391-0.784,2.42-4.447,2.42-4.447L109.137,82.025z
			"/>
		<path class="st16" d="M103.493,79.267c0.146,0.047,0.498,0.18,0.591,0.339c0.1,0.16,1.133-0.286,1.255-0.705
			c-0.296-0.324-0.804-0.602-1.099-0.507C104.065,78.445,103.785,78.816,103.493,79.267z"/>
		<path class="st56" d="M109.442,82.559c0,0-1.962,1.398-3.273,1.321c0,0-0.86,1.467-1.052,1.951c0,0,2.23,1.115,3.392,0.91
			c0,0,1.511-1.467,1.423-2.495C109.843,83.219,109.442,82.559,109.442,82.559z"/>
		<path class="st112" d="M104.061,79.931l0.47,0.669l0.038,0.085l0.978,2.23l0.498,1.138c0.334,0.079,0.953,0.022,1.229-0.076
			c1.513-0.516,2.171-1.418,2.171-1.418c-0.88-2.297-2.097-3.866-2.345-4.142c-0.433-0.47-1.563-0.854-1.563-0.854
			c-0.31,0.319-1.418,0.878-1.418,0.878C103.873,78.633,104.061,79.931,104.061,79.931z"/>
		<path class="st16" d="M104.568,80.685l0.978,2.23c0.742-1.497,0.272-3.672,0.272-3.672s-1.193,1.033-1.235,1.113
			C104.578,80.371,104.568,80.493,104.568,80.685z"/>
		<path class="st43" d="M100.083,83.389c0,0,0.062,0.352,0.49,0.47c0.427,0.112,3.07-1,3.7-1.309
			c0.337-0.169,0.826-1.109,1.202-1.931c0.089-0.203,0.173-0.395,0.249-0.568c0.187-0.437,0.31-0.751,0.31-0.751
			c0-0.432-1.021-1.02-1.451-0.822c-0.131,0.06-0.305,0.328-0.488,0.681c-0.086,0.164-0.169,0.341-0.254,0.525
			c-0.334,0.737-0.638,1.569-0.705,1.766C103.02,81.803,100.083,83.389,100.083,83.389z"/>
		<path class="st112" d="M103.841,79.685c0.396,0.178,1.104,0.526,1.635,0.935c0.089-0.203,0.173-0.395,0.249-0.568
			c0.187-0.437,0.31-0.751,0.31-0.751c0-0.432-1.021-1.02-1.451-0.822c-0.131,0.06-0.305,0.328-0.488,0.681
			C104.009,79.323,103.926,79.501,103.841,79.685z"/>
		<g>
			<path class="st113" d="M103.357,96.008h-0.351c-0.118-0.017-0.205-0.047-0.325-0.061c-0.184-0.021-0.269,0.045-0.285,0.061
				c-0.002,0.002-0.003,0.002-0.003,0.002h-1.492c-0.038-0.046-0.001-0.157,0.034-0.237c0.023-0.056,0.075-0.097,0.139-0.114
				c0.159-0.04,0.471-0.077,0.757-0.305c0.16-0.128,0.774-0.472,0.774-0.472h0.004c0.014,0,0.079,0.018,0.358,0.226
				c0.145,0.108,0.391-0.152,0.391-0.152s0.047,0.034,0.082,0.097c0.027,0.05,0.048,0.118,0.031,0.202
				c-0.022,0.12,0.05,0.34,0.107,0.49c0.034,0.09,0.063,0.154,0.063,0.154S103.66,95.975,103.357,96.008z"/>
			<path class="st119" d="M103.44,95.053c-0.084,0.053-0.262,0.155-0.379,0.168c-0.159,0.019-0.456-0.339-0.456-0.339h0.004
				c0.014,0,0.079,0.018,0.358,0.226c0.145,0.108,0.391-0.152,0.391-0.152S103.405,94.99,103.44,95.053z"/>
			<path class="st119" d="M103.357,96.008h-0.351c-0.118-0.017-0.205-0.047-0.325-0.061c-0.184-0.021-0.269,0.045-0.285,0.061
				c-0.002,0.002-0.003,0.002-0.003,0.002h-1.492c-0.038-0.046-0.001-0.157,0.034-0.237c0.045-0.036,0.058,0.154,0.083,0.184
				c0.024,0.031,1.218,0.012,1.286-0.032c0.069-0.044,0.274-0.122,0.563-0.061c0.25,0.053,0.62-0.083,0.711-0.119
				c0.034,0.09,0.063,0.154,0.063,0.154S103.66,95.975,103.357,96.008z"/>
		</g>
	</g>
	<g>
		<g>
			<path class="st40" d="M155.838,95.008c0.129,0,0.233-0.104,0.233-0.232c0-2.889-2.352-5.241-5.24-5.241
				c-0.667,0-1.316,0.124-1.931,0.368c-0.12,0.048-0.178,0.183-0.131,0.303c0.047,0.118,0.182,0.177,0.302,0.129
				c0.56-0.221,1.151-0.334,1.76-0.334c2.633,0,4.775,2.142,4.775,4.775C155.606,94.904,155.709,95.008,155.838,95.008z"/>
		</g>
		<path class="st5" d="M160.04,83.708c0,0-0.356,0.739-0.805,1.763c-0.503,1.148-1.125,2.654-1.494,3.879
			c-0.195,0.647-0.321,1.216-0.322,1.612c0,0.136,0.523,0.687,0.675,0.897c0.955,1.328,2.256,3.1,2.256,3.1l0.355-0.089
			c0,0-0.497-2.217-1.223-3.325c-0.143-0.217-0.545-0.482-0.525-0.506c0,0,0,0,0-0.001c0.063-0.078,0.219-0.275,0.432-0.555
			c0.59-0.774,1.609-2.185,2.294-3.498c0.043-0.082,0.085-0.163,0.123-0.244c0.36-0.732,0.6-1.418,0.575-1.927L160.04,83.708z"/>
		<g>
			<path class="st13" d="M161.021,94.957l-0.244,0.154c-0.09,0.039-0.165,0.054-0.257,0.096c-0.139,0.064-0.163,0.155-0.169,0.173
				c0,0.002,0,0.004,0,0.004l-1.04,0.658c-0.049-0.021-0.079-0.123-0.094-0.202c-0.012-0.054,0.004-0.109,0.04-0.151
				c0.091-0.101,0.29-0.267,0.375-0.574c0.049-0.172,0.305-0.714,0.305-0.714l0.003-0.002c0.009-0.005,0.063-0.021,0.361,0.021
				c0.154,0.021,0.197-0.293,0.197-0.293s0.049,0.006,0.104,0.04c0.044,0.028,0.093,0.073,0.123,0.146
				c0.044,0.104,0.205,0.247,0.319,0.338c0.068,0.057,0.122,0.095,0.122,0.095S161.215,94.797,161.021,94.957z"/>
			<path class="st0" d="M160.603,94.167c-0.032,0.08-0.104,0.238-0.18,0.3c-0.1,0.084-0.486-0.067-0.486-0.067l0.003-0.002
				c0.009-0.005,0.063-0.021,0.361,0.021c0.154,0.021,0.197-0.293,0.197-0.293S160.547,94.133,160.603,94.167z"/>
			<path class="st0" d="M161.021,94.957l-0.244,0.154c-0.09,0.039-0.165,0.054-0.257,0.096c-0.139,0.064-0.163,0.155-0.169,0.173
				c0,0.002,0,0.004,0,0.004l-1.04,0.658c-0.049-0.021-0.079-0.123-0.094-0.202c0.014-0.049,0.117,0.096,0.149,0.108
				c0.032,0.014,0.854-0.526,0.879-0.592c0.026-0.065,0.132-0.219,0.364-0.296c0.199-0.069,0.389-0.339,0.436-0.409
				c0.068,0.057,0.122,0.095,0.122,0.095S161.215,94.797,161.021,94.957z"/>
		</g>
		<g>
			
				<rect x="156.316" y="90.922" transform="matrix(-0.3045 0.9525 -0.9525 -0.3045 296.7369 -34.3254)" class="st25" width="9.168" height="0.494"/>
		</g>
		<g>
			<polygon class="st25" points="159.974,95.636 166.564,95.062 154.343,86.799 155.042,88.23 165.131,94.69 159.931,95.143 			"/>
		</g>
		<g>
			<polygon class="st25" points="159.086,95.248 159.502,94.98 154.431,86.857 153.839,87.469 			"/>
		</g>
		<path class="st119" d="M158.394,94.09l-0.929,0.535c-0.107,0.063-0.145,0.205-0.082,0.313l0,0
			c0.063,0.109,0.204,0.147,0.313,0.084l0.927-0.536c0.11-0.063,0.147-0.204,0.085-0.313l0,0
			C158.643,94.064,158.504,94.027,158.394,94.09z"/>
		<g>
			<polygon class="st119" points="158.21,94.435 159.379,95.73 159.487,95.636 158.317,94.342 			"/>
		</g>
		<g>
			<path class="st56" d="M161.978,90.001c0.068,0.024,0.145,0.017,0.207-0.021l0,0c2.225-1.343,5.3-0.839,6.189-0.652h0.001
				c0.049,0.01,0.096-0.026,0.096-0.077v-0.174c0-0.132-0.097-0.246-0.229-0.264c-0.481-0.072-1.606-0.226-2.233-0.229
				c-0.019,0-0.035,0-0.051,0c-1.408,0-2.623,0.251-3.622,0.749c-0.203,0.102-0.439,0.117-0.654,0.04l-0.273-0.095
				c-0.158-0.056-0.328,0.027-0.384,0.183l0,0c-0.035,0.1,0.018,0.212,0.118,0.248L161.978,90.001z"/>
		</g>
		<path class="st119" d="M164.042,86.617c0,0,0.09-0.405-0.164-0.433c-0.254-0.027-1.182,0.171-1.429,0.145
			c-0.248-0.027-1.537-0.241-1.764-0.021c-0.229,0.22-0.131,0.412,0.322,0.454c0.452,0.041,1.057,0.116,1.229,0.26
			C162.407,87.166,163.651,87.592,164.042,86.617z"/>
		<circle class="st119" cx="159.504" cy="95.536" r="1.235"/>
		<g>
			<g>
				<g>
					<g>
						
							<rect x="164.832" y="92.862" transform="matrix(-0.3378 0.9412 -0.9412 -0.3378 310.6874 -32.751)" class="st119" width="4.065" height="0.109"/>
					</g>
					<g>
						<polygon class="st119" points="170.019,96.611 170.063,96.511 166.177,94.841 163.623,91.192 163.533,91.255 166.105,94.93 
							166.119,94.936 						"/>
					</g>
					<g>
						<path class="st119" d="M167.682,99.105l0.104-0.035c-0.027-0.083-1.529-4.036-1.593-4.204l-0.04-0.104l-2.421,3.828
							l0.093,0.059l2.304-3.642C166.679,96.456,167.662,99.042,167.682,99.105z"/>
					</g>
					<g>
						
							<rect x="166.109" y="94.185" transform="matrix(-0.9855 0.1694 -0.1694 -0.9855 350.1276 158.6037)" class="st119" width="4.375" height="0.11"/>
					</g>
					<g>
						
							<rect x="165.181" y="90.692" transform="matrix(-0.9459 0.3243 -0.3243 -0.9459 351.6003 126.7779)" class="st119" width="0.108" height="3.994"/>
					</g>
					<g>
						<polygon class="st119" points="166.15,94.942 166.165,94.935 170.12,92.93 170.071,92.832 166.133,94.828 161.894,94.117 
							161.875,94.227 						"/>
					</g>
					<g>
						<path class="st119" d="M164.546,98.968c0.022-0.07,1.037-2.567,1.605-3.963l2.195,3.453l0.093-0.059l-2.309-3.632
							l-0.041,0.098c-0.066,0.163-1.621,3.985-1.648,4.068L164.546,98.968z"/>
					</g>
					<g>
						
							<rect x="168.213" y="93.051" transform="matrix(-0.1494 0.9888 -0.9888 -0.1494 287.5444 -56.9534)" class="st119" width="0.111" height="4.302"/>
					</g>
					<g>
						
							<rect x="165.742" y="92.867" transform="matrix(-0.6557 0.755 -0.755 -0.6557 347.5612 27.361)" class="st119" width="3.601" height="0.109"/>
					</g>
					<g>
						
							<rect x="166.115" y="95.18" transform="matrix(-0.9967 0.0808 -0.0808 -0.9967 339.6479 180.6095)" class="st119" width="0.109" height="3.996"/>
					</g>
					<g>
						
							<rect x="162.163" y="95.915" transform="matrix(-0.8219 0.5696 -0.5696 -0.8219 354.2828 81.1672)" class="st119" width="4.578" height="0.11"/>
					</g>
					<g>
						<polygon class="st119" points="169.261,97.835 169.339,97.758 166.196,94.588 166.196,90.464 166.086,90.464 166.086,94.634 
													"/>
					</g>
				</g>
				<circle class="st40" cx="166.142" cy="94.886" r="0.81"/>
			</g>
			<g>
				<path class="st17" d="M170.019,92.143c-0.862-1.214-2.278-2.008-3.878-2.008c-1.602,0-3.022,0.797-3.884,2.017
					c-0.111,0.159-0.216,0.326-0.308,0.501l0,0c-0.356,0.667-0.559,1.425-0.559,2.233c0,0.042,0,0.086,0.001,0.129
					c0.005,0.166,0.018,0.329,0.04,0.493c0.082,0.621,0.285,1.222,0.602,1.764c0.411,0.706,1,1.298,1.704,1.711
					c0.561,0.329,1.181,0.538,1.824,0.616c0.004,0.001,0.01,0.002,0.016,0.002c0.186,0.022,0.375,0.034,0.563,0.034
					c0.191,0,0.383-0.011,0.568-0.034c0.007-0.001,0.013-0.001,0.018-0.002c1.357-0.167,2.537-0.909,3.292-1.973
					c0.55-0.774,0.874-1.721,0.874-2.741C170.893,93.864,170.568,92.917,170.019,92.143z M170.181,95.541
					c-0.036,0.223-0.091,0.441-0.162,0.654c-0.029,0.085-0.062,0.17-0.097,0.255c-0.014,0.034-0.027,0.066-0.043,0.101
					c-0.174,0.388-0.407,0.745-0.688,1.059c-0.023,0.026-0.048,0.054-0.073,0.081c-0.219,0.233-0.467,0.44-0.736,0.617
					c-0.03,0.021-0.061,0.04-0.092,0.059c-0.204,0.127-0.421,0.237-0.646,0.326c-0.033,0.014-0.068,0.026-0.103,0.039
					c-0.368,0.136-0.761,0.217-1.169,0.241c-0.037,0.001-0.073,0.002-0.11,0.003c-0.04,0.001-0.08,0.003-0.121,0.003
					c-0.51,0-1.016-0.096-1.488-0.28c-0.034-0.013-0.067-0.026-0.101-0.042c-0.165-0.069-0.326-0.149-0.48-0.24
					c-0.024-0.014-0.048-0.028-0.07-0.044c-0.031-0.019-0.063-0.038-0.093-0.059c-0.449-0.29-0.836-0.669-1.138-1.109l0,0
					c-0.022-0.031-0.043-0.061-0.062-0.092c-0.037-0.056-0.073-0.113-0.106-0.171c-0.268-0.458-0.44-0.965-0.514-1.49
					c-0.023-0.164-0.036-0.327-0.038-0.493c-0.001-0.025-0.001-0.049-0.001-0.073c0-0.212,0.016-0.419,0.048-0.623
					c0.005-0.037,0.011-0.073,0.018-0.108c0.073-0.406,0.205-0.79,0.391-1.146c0.088-0.17,0.188-0.334,0.299-0.489
					c0.26-0.368,0.58-0.69,0.945-0.955c0.031-0.021,0.061-0.042,0.092-0.062c0.247-0.171,0.515-0.313,0.799-0.425
					c0.033-0.014,0.067-0.027,0.101-0.041c0.42-0.153,0.873-0.239,1.345-0.245c0.018,0,0.036,0,0.055,0s0.037,0,0.056,0
					c0.451,0.006,0.885,0.086,1.291,0.226c0.033,0.013,0.069,0.025,0.103,0.038c0.365,0.14,0.705,0.328,1.012,0.561
					c0.03,0.021,0.059,0.045,0.088,0.068c0.441,0.353,0.811,0.795,1.076,1.3c0.017,0.032,0.033,0.065,0.05,0.098
					c0.077,0.158,0.146,0.323,0.203,0.492c0.032,0.097,0.063,0.197,0.088,0.297c0.009,0.035,0.018,0.07,0.025,0.107
					c0.066,0.292,0.102,0.594,0.102,0.906c0,0.185-0.013,0.367-0.038,0.545C170.192,95.468,170.186,95.504,170.181,95.541z"/>
			</g>
			<g>
				<path class="st13" d="M170.183,93.972c-0.007-0.037-0.018-0.072-0.026-0.107c-0.038-0.148-0.084-0.292-0.138-0.435
					c-0.048-0.126-0.102-0.248-0.16-0.367c-0.017-0.034-0.034-0.066-0.051-0.098c-0.27-0.51-0.641-0.958-1.087-1.315
					c-0.03-0.024-0.058-0.046-0.088-0.068c-0.68-0.518-1.522-0.833-2.437-0.852c-0.031-0.001-0.062-0.001-0.091-0.001h-0.02
					c-0.479,0.002-0.939,0.085-1.367,0.236c-0.035,0.013-0.07,0.025-0.104,0.038c-0.292,0.112-0.569,0.255-0.825,0.427
					c-0.031,0.02-0.061,0.041-0.092,0.062c-0.378,0.268-0.71,0.594-0.981,0.969c-0.113,0.156-0.215,0.317-0.306,0.488
					c-0.196,0.365-0.339,0.764-0.418,1.185c-0.008,0.037-0.014,0.073-0.02,0.109c-0.036,0.218-0.053,0.442-0.053,0.671
					c0,0.019,0,0.038,0,0.057c0.002,0.167,0.014,0.332,0.034,0.492c0.084,0.632,0.309,1.218,0.641,1.729
					c0.02,0.03,0.039,0.06,0.062,0.09c0.313,0.456,0.714,0.846,1.178,1.147c0.031,0.019,0.063,0.039,0.094,0.056
					c0.183,0.113,0.373,0.21,0.571,0.294c0.036,0.014,0.07,0.028,0.104,0.041c0.465,0.18,0.972,0.279,1.501,0.279
					c0.055,0,0.109-0.001,0.167-0.004c0.036-0.001,0.072-0.004,0.108-0.005c0.419-0.029,0.821-0.118,1.198-0.26
					c0.034-0.013,0.069-0.025,0.103-0.04c0.229-0.094,0.451-0.208,0.66-0.341c0.03-0.019,0.062-0.039,0.093-0.06
					c0.271-0.182,0.521-0.397,0.742-0.637c0.025-0.028,0.051-0.054,0.074-0.082c0.285-0.324,0.519-0.691,0.691-1.091
					c0.016-0.034,0.029-0.067,0.043-0.101c0.012-0.026,0.023-0.054,0.033-0.082c0.103-0.27,0.177-0.553,0.224-0.847
					c0.006-0.036,0.01-0.073,0.015-0.109c0.022-0.172,0.032-0.348,0.032-0.526C170.289,94.589,170.254,94.274,170.183,93.972z
					 M170.075,95.524c-0.017,0.101-0.035,0.199-0.057,0.294c-0.048,0.205-0.11,0.402-0.188,0.593
					c-0.014,0.034-0.027,0.068-0.043,0.101c-0.164,0.38-0.388,0.73-0.655,1.038c-0.023,0.027-0.049,0.055-0.074,0.083
					c-0.214,0.231-0.454,0.438-0.716,0.615c-0.03,0.02-0.062,0.04-0.092,0.06c-0.198,0.125-0.408,0.235-0.63,0.324
					c-0.033,0.014-0.067,0.027-0.103,0.04c-0.36,0.137-0.748,0.224-1.15,0.249c-0.036,0.004-0.073,0.005-0.111,0.006
					c-0.05,0.002-0.101,0.002-0.151,0.002c-0.507,0-0.992-0.093-1.438-0.266c-0.034-0.013-0.068-0.026-0.102-0.04
					c-0.19-0.08-0.372-0.172-0.547-0.279c-0.032-0.019-0.062-0.038-0.094-0.058c-0.443-0.289-0.828-0.663-1.129-1.1
					c-0.021-0.03-0.042-0.062-0.062-0.091c-0.315-0.488-0.53-1.045-0.61-1.646c-0.021-0.162-0.033-0.327-0.035-0.494
					c0-0.014,0-0.027,0-0.042c0-0.219,0.018-0.433,0.051-0.643c0.007-0.037,0.013-0.073,0.021-0.108
					c0.074-0.398,0.209-0.775,0.394-1.122c0.089-0.169,0.191-0.332,0.303-0.486c0.26-0.356,0.577-0.668,0.94-0.923
					c0.027-0.023,0.059-0.043,0.09-0.063c0.244-0.162,0.505-0.297,0.783-0.404c0.033-0.014,0.067-0.026,0.101-0.038h0.001
					c0.413-0.146,0.854-0.226,1.314-0.227h0.02c0.029,0,0.061,0,0.091,0c0.438,0.01,0.858,0.09,1.251,0.231
					c0.035,0.011,0.068,0.023,0.104,0.038c0.35,0.136,0.676,0.319,0.972,0.542c0.029,0.021,0.058,0.044,0.087,0.067
					c0.431,0.344,0.788,0.775,1.047,1.264c0.018,0.033,0.035,0.065,0.051,0.099c0.117,0.239,0.214,0.49,0.282,0.754
					c0.009,0.035,0.02,0.07,0.026,0.106c0.001,0.002,0.001,0.003,0.003,0.008c0.066,0.29,0.103,0.593,0.103,0.905
					c0,0.17-0.012,0.338-0.031,0.502C170.085,95.453,170.08,95.489,170.075,95.524z"/>
			</g>
		</g>
		<g>
			<g>
				<g>
					<g>
						
							<rect x="149.338" y="92.861" transform="matrix(-0.3378 0.9412 -0.9412 -0.3378 289.9593 -18.1677)" class="st119" width="4.065" height="0.111"/>
					</g>
					<g>
						<polygon class="st119" points="154.525,96.611 154.569,96.511 150.685,94.841 148.13,91.192 148.04,91.255 150.612,94.93 
							150.626,94.936 						"/>
					</g>
					<g>
						<path class="st119" d="M152.189,99.105l0.104-0.035c-0.028-0.083-1.53-4.036-1.595-4.204l-0.039-0.104l-2.421,3.828
							l0.093,0.059l2.304-3.642C151.187,96.456,152.167,99.042,152.189,99.105z"/>
					</g>
					<g>
						
							<rect x="150.617" y="94.185" transform="matrix(-0.9855 0.1695 -0.1695 -0.9855 319.3687 161.2223)" class="st119" width="4.374" height="0.11"/>
					</g>
					<g>
						
							<rect x="149.686" y="90.692" transform="matrix(-0.9478 0.3189 -0.3189 -0.9478 321.222 132.7889)" class="st119" width="0.11" height="3.994"/>
					</g>
					<g>
						<polygon class="st119" points="150.658,94.942 150.673,94.935 154.628,92.93 154.577,92.832 150.641,94.828 146.4,94.117 
							146.382,94.227 						"/>
					</g>
					<g>
						<path class="st119" d="M149.052,98.968c0.024-0.07,1.039-2.567,1.607-3.963l2.194,3.453l0.093-0.059l-2.31-3.632l-0.039,0.098
							c-0.067,0.163-1.621,3.985-1.65,4.068L149.052,98.968z"/>
					</g>
					<g>
						
							<rect x="152.721" y="93.051" transform="matrix(-0.1494 0.9888 -0.9888 -0.1494 269.7369 -41.6346)" class="st119" width="0.111" height="4.303"/>
					</g>
					<g>
						
							<rect x="150.247" y="92.867" transform="matrix(-0.656 0.7547 -0.7547 -0.656 321.9282 39.1288)" class="st119" width="3.602" height="0.11"/>
					</g>
					<g>
						
							<rect x="150.62" y="95.18" transform="matrix(-0.9968 0.0794 -0.0794 -0.9968 308.5913 182.0869)" class="st119" width="0.111" height="3.996"/>
					</g>
					<g>
						
							<rect x="146.67" y="95.915" transform="matrix(-0.822 0.5695 -0.5695 -0.822 326.0567 90.0144)" class="st119" width="4.579" height="0.11"/>
					</g>
					<g>
						<polygon class="st119" points="153.768,97.835 153.845,97.758 150.703,94.588 150.703,90.464 150.593,90.464 150.593,94.634 
													"/>
					</g>
				</g>
				<circle class="st40" cx="150.647" cy="94.886" r="0.811"/>
			</g>
			<g>
				<path class="st10" d="M153.131,90.837c-0.123-0.077-0.252-0.148-0.382-0.212c-0.199-0.1-0.408-0.185-0.623-0.255
					c-0.464-0.152-0.963-0.235-1.478-0.235c-0.71,0-1.382,0.156-1.987,0.436c-0.086,0.039-0.171,0.082-0.255,0.126
					c-1.491,0.802-2.509,2.378-2.509,4.189c0,0.839,0.221,1.665,0.642,2.387c0.411,0.706,1,1.298,1.705,1.711
					c0.053,0.031,0.107,0.062,0.162,0.09c0.516,0.278,1.08,0.455,1.662,0.525c0.005,0.001,0.01,0.002,0.017,0.002
					c0.186,0.022,0.374,0.034,0.563,0.034c0.192,0,0.383-0.011,0.568-0.034c0.006-0.001,0.013-0.001,0.018-0.002
					c2.344-0.29,4.164-2.293,4.164-4.714C155.398,93.176,154.491,91.672,153.131,90.837z M154.687,95.541
					c-0.051,0.316-0.138,0.621-0.26,0.909c-0.012,0.034-0.026,0.066-0.041,0.101c-0.174,0.388-0.406,0.745-0.688,1.059
					c-0.024,0.026-0.049,0.054-0.074,0.081c-0.221,0.233-0.468,0.442-0.736,0.617c-0.03,0.021-0.061,0.04-0.092,0.059
					c-0.204,0.127-0.42,0.237-0.645,0.326c-0.034,0.014-0.067,0.026-0.104,0.039c-0.366,0.136-0.761,0.217-1.169,0.241
					c-0.037,0.001-0.073,0.002-0.109,0.003c-0.041,0.001-0.08,0.003-0.121,0.003c-0.513,0-1.018-0.096-1.488-0.28
					c-0.034-0.013-0.067-0.026-0.103-0.042c-0.164-0.069-0.324-0.149-0.479-0.24c-0.023-0.014-0.047-0.028-0.07-0.044
					c-0.031-0.019-0.063-0.038-0.093-0.059c-0.003-0.001-0.005-0.002-0.009-0.004c-0.445-0.292-0.829-0.667-1.13-1.104
					c-0.021-0.03-0.042-0.061-0.061-0.092c-0.039-0.056-0.073-0.113-0.107-0.171c-0.361-0.622-0.553-1.333-0.553-2.055
					c0-0.212,0.017-0.419,0.048-0.623c0.006-0.037,0.012-0.073,0.018-0.108c0.192-1.061,0.795-1.981,1.637-2.589
					c0.029-0.021,0.059-0.042,0.089-0.062c0.021-0.014,0.041-0.028,0.06-0.041c0.231-0.152,0.479-0.281,0.741-0.384
					c0.034-0.014,0.069-0.027,0.102-0.041c0.421-0.153,0.873-0.239,1.344-0.245c0.019,0,0.037,0,0.056,0c0.018,0,0.037,0,0.055,0
					c0.41,0.005,0.806,0.072,1.179,0.19c0.038,0.011,0.074,0.023,0.111,0.036c0.035,0.013,0.068,0.025,0.104,0.038
					c0.13,0.05,0.259,0.107,0.383,0.168c0.222,0.113,0.433,0.244,0.628,0.392c0.029,0.021,0.059,0.045,0.087,0.068
					c0.443,0.353,0.81,0.795,1.076,1.3c0.018,0.032,0.034,0.065,0.049,0.099c0.125,0.249,0.223,0.512,0.292,0.788
					c0.01,0.035,0.019,0.07,0.027,0.107c0.065,0.292,0.1,0.594,0.1,0.906c0,0.185-0.013,0.367-0.036,0.545
					C154.697,95.468,154.692,95.504,154.687,95.541z"/>
			</g>
			<g>
				<path class="st13" d="M154.689,93.972c-0.009-0.037-0.017-0.072-0.027-0.107c-0.071-0.28-0.171-0.548-0.298-0.802
					c-0.016-0.034-0.032-0.066-0.05-0.098c-0.27-0.51-0.642-0.958-1.088-1.315c-0.028-0.024-0.058-0.046-0.087-0.068
					c-0.199-0.152-0.413-0.287-0.64-0.402c-0.19-0.098-0.391-0.18-0.597-0.248l0,0c-0.157-0.05-0.314-0.092-0.479-0.124
					c-0.233-0.047-0.476-0.074-0.722-0.079c-0.03-0.001-0.061-0.001-0.092-0.001h-0.019c-0.112,0.001-0.223,0.005-0.334,0.015
					c-0.359,0.03-0.706,0.105-1.034,0.221c-0.034,0.013-0.068,0.025-0.104,0.038c-0.25,0.096-0.489,0.215-0.715,0.355
					c-0.036,0.022-0.074,0.047-0.11,0.072c-0.03,0.02-0.061,0.041-0.091,0.062c-0.871,0.615-1.5,1.555-1.705,2.642
					c-0.007,0.037-0.015,0.073-0.02,0.109c-0.035,0.218-0.055,0.442-0.055,0.671c0,0.839,0.249,1.622,0.676,2.278
					c0.021,0.03,0.041,0.062,0.062,0.091c0.314,0.455,0.716,0.845,1.181,1.146c0.021,0.012,0.043,0.027,0.063,0.04
					c0.011,0.006,0.02,0.013,0.03,0.017c0.181,0.112,0.373,0.21,0.572,0.293c0.033,0.014,0.067,0.028,0.103,0.041
					c0.465,0.18,0.973,0.279,1.5,0.279c0.056,0,0.112-0.001,0.168-0.004c0.036-0.001,0.073-0.004,0.109-0.005
					c0.418-0.029,0.82-0.118,1.196-0.26c0.035-0.013,0.068-0.025,0.104-0.04c0.23-0.094,0.452-0.208,0.659-0.341
					c0.03-0.019,0.063-0.039,0.093-0.06c0.272-0.182,0.522-0.397,0.743-0.637c0.025-0.028,0.05-0.054,0.074-0.082
					c0.284-0.324,0.519-0.691,0.692-1.091c0.016-0.034,0.029-0.067,0.043-0.101c0.119-0.294,0.206-0.605,0.255-0.928
					c0.006-0.036,0.012-0.073,0.016-0.109c0.021-0.172,0.033-0.348,0.033-0.526C154.797,94.589,154.76,94.274,154.689,93.972z
					 M154.582,95.524c-0.048,0.31-0.131,0.606-0.245,0.887c-0.013,0.034-0.027,0.068-0.041,0.101
					c-0.166,0.38-0.389,0.73-0.657,1.038c-0.024,0.027-0.049,0.055-0.074,0.083c-0.212,0.231-0.453,0.438-0.714,0.615
					c-0.032,0.02-0.063,0.04-0.093,0.06c-0.198,0.125-0.409,0.235-0.629,0.324c-0.034,0.014-0.068,0.027-0.104,0.04
					c-0.361,0.137-0.747,0.224-1.15,0.249c-0.035,0.004-0.073,0.005-0.11,0.006c-0.05,0.002-0.103,0.002-0.153,0.002
					c-0.507,0-0.99-0.093-1.438-0.266c-0.034-0.013-0.067-0.026-0.103-0.04c-0.188-0.08-0.373-0.172-0.546-0.279
					c-0.031-0.019-0.062-0.038-0.093-0.058c-0.009-0.006-0.018-0.011-0.026-0.018c-0.434-0.285-0.81-0.655-1.104-1.082
					c-0.021-0.03-0.042-0.062-0.061-0.091c-0.409-0.629-0.646-1.378-0.646-2.181c0-0.219,0.018-0.433,0.052-0.643
					c0.007-0.037,0.012-0.073,0.019-0.108c0.199-1.042,0.801-1.942,1.637-2.531c0.029-0.023,0.061-0.043,0.09-0.063
					c0.004-0.003,0.01-0.006,0.014-0.009c0.24-0.158,0.497-0.292,0.769-0.396c0.034-0.014,0.069-0.026,0.104-0.038
					c0.411-0.146,0.854-0.226,1.314-0.227h0.019c0.031,0,0.062,0,0.092,0c0.396,0.009,0.776,0.075,1.136,0.192
					c0.04,0.012,0.077,0.025,0.115,0.039c0.035,0.011,0.069,0.023,0.104,0.038c0.127,0.05,0.254,0.105,0.375,0.168
					c0.21,0.107,0.409,0.232,0.598,0.375c0.027,0.021,0.057,0.044,0.086,0.067c0.43,0.344,0.788,0.775,1.048,1.264
					c0.018,0.033,0.033,0.065,0.05,0.099c0.118,0.239,0.213,0.49,0.281,0.754c0.011,0.035,0.019,0.07,0.028,0.106
					c0.067,0.293,0.104,0.6,0.104,0.913c0,0.17-0.011,0.338-0.031,0.502C154.591,95.453,154.587,95.489,154.582,95.524z"/>
			</g>
		</g>
		<path class="st43" d="M162.946,83.724c0,0,1.006,1.593-0.236,2.469c-1.241,0.877-5.423,1.295-5.219,1.466
			c0.629,0.519,1.198,1.32,1.168,6.106l-0.31,0.16c0,0-2.981-6.486-2.781-7.259C155.7,86.153,160.048,83.385,162.946,83.724z"/>
		<path class="st56" d="M160.537,87.038c0,0,2.532-0.42,2.795-1.313c0.194-0.668,0.251-0.941-0.896-3.099c0,0-0.48,0.911-2.982,0.7
			c0,0,0.012,0.118,0.012,0.279c-0.003,0.265-0.044,0.642-0.252,0.751c-0.004,0.002-0.01,0.002-0.014,0.006
			c-0.329,0.15-0.839,0.453-0.916,0.482C158.28,84.844,159.819,85.138,160.537,87.038z"/>
		<path class="st40" d="M159.213,84.356c1.116-0.33,2.206-0.295,2.848-0.896c-0.945-0.242-2.083,0.145-2.596,0.145
			C159.462,83.869,159.421,84.246,159.213,84.356z"/>
		<g>
			<path class="st13" d="M159.079,93.997l-0.263,0.125c-0.093,0.029-0.169,0.034-0.264,0.067c-0.146,0.046-0.182,0.132-0.188,0.15
				c-0.001,0.002-0.001,0.005-0.001,0.005l-1.109,0.532c-0.046-0.026-0.063-0.131-0.069-0.211c-0.006-0.055,0.017-0.108,0.058-0.144
				c0.101-0.092,0.319-0.232,0.438-0.526c0.067-0.166,0.386-0.675,0.386-0.675l0.003-0.001c0.009-0.005,0.064-0.014,0.356,0.063
				c0.151,0.039,0.229-0.268,0.229-0.268s0.049,0.011,0.099,0.053c0.042,0.031,0.085,0.082,0.105,0.158
				c0.031,0.108,0.176,0.268,0.278,0.373c0.062,0.064,0.109,0.107,0.109,0.107S159.29,93.861,159.079,93.997z"/>
			<path class="st0" d="M158.754,93.165c-0.039,0.073-0.13,0.223-0.212,0.276c-0.11,0.072-0.476-0.123-0.476-0.123l0.003-0.001
				c0.009-0.005,0.064-0.014,0.356,0.063c0.151,0.039,0.229-0.268,0.229-0.268S158.704,93.124,158.754,93.165z"/>
			<path class="st0" d="M159.079,93.997l-0.263,0.125c-0.093,0.029-0.169,0.034-0.264,0.067c-0.146,0.046-0.182,0.132-0.188,0.15
				c-0.001,0.002-0.001,0.005-0.001,0.005l-1.109,0.532c-0.046-0.026-0.063-0.131-0.069-0.211c0.019-0.046,0.105,0.11,0.137,0.126
				c0.03,0.016,0.907-0.426,0.942-0.488c0.032-0.061,0.155-0.201,0.393-0.251c0.209-0.046,0.427-0.291,0.481-0.354
				c0.062,0.064,0.109,0.107,0.109,0.107S159.29,93.861,159.079,93.997z"/>
		</g>
		<path class="st56" d="M152.777,88.731c0.069-0.179,0.235-0.288,0.415-0.3c2.051-4.711,2.073-4.748,2.104-4.799l0.298,0.588
			c0.015-0.025-4.641,10.438-4.641,10.438l-0.456-0.188L152.777,88.731z"/>
		<circle class="st119" cx="157.075" cy="84.158" r="0.619"/>
		<circle class="st119" cx="153.243" cy="83.075" r="0.619"/>
		<g>
			<polygon class="st119" points="153.372,83.667 156.977,84.572 157.039,83.843 153.435,82.938 			"/>
		</g>
		<path class="st43" d="M156.896,82.949c0,0-0.34,0.222-0.58,0.212c-0.239-0.01-0.545,0.09-0.545,0.09s-0.318,0.094-0.349,0.474
			c0,0,0.001,0.111,0.505-0.044c0.108-0.034,0.374,0.03,0.463,0c0.091-0.03,0.364-0.326,0.603-0.318L156.896,82.949z"/>
		<path class="st5" d="M155.08,82.519c0,0-0.34,0.222-0.58,0.212s-0.544,0.089-0.544,0.089s-0.319,0.095-0.35,0.475
			c0,0,0.007,0.157,0.504-0.044c0.138-0.055,0.375,0.03,0.465,0c0.09-0.03,0.42-0.284,0.647-0.347L155.08,82.519z"/>
		<path class="st40" d="M159.354,73.408c0.495,0.089,0.725,0.356,1.039,1.12c0.328,0.796-0.068,1.53-0.384,1.435
			c-0.204-0.062-0.273,0.285-0.273,0.285l-1.93-1.683C157.807,74.564,158.089,73.327,159.354,73.408z"/>
		<path class="st5" d="M158.226,78c0,0,0.672,0.378,0.593,1.334c-0.079,0.958-0.957,2.466-1.625,2.841
			c-0.528,0.296-2.058,0.76-2.058,0.76l-0.056-0.416c0,0,1.245-0.813,1.514-1.09C157.172,80.833,157.721,77.769,158.226,78z"/>
		<path class="st43" d="M158.293,80.152c0.031,0.216,0.087,0.4,0.157,0.578c0.059,0.148,0.125,0.289,0.196,0.436
			c0.204,0.431,0.685,0.644,0.701,1.474c0.005,0.285,2.42-0.921,2.434-1.921c0-0.002,0-0.005,0.001-0.008
			c0.004-0.049,0.01-0.178,0.018-0.35c0.019-0.418,0.042-1.088,0.05-1.426c0-0.008,0-0.016,0.001-0.023
			c0.004-0.145,0.009-0.25,0.015-0.278c-0.324-1.375-1.068-1.381-1.322-1.377c-0.032,0.001-0.067,0.002-0.102,0.003
			c-0.14,0.006-0.271-0.06-0.352-0.174c-0.142-0.202-0.301-0.549-0.397-1.024l-0.059,0.025l-0.975,0.415c0,0,0.09,0.315,0.153,0.616
			c0.027,0.129,0.05,0.255,0.059,0.354c0.007,0.094-0.046,0.182-0.136,0.216l0,0c0,0,0,0,0,0.001
			C158.718,77.726,158.138,79.058,158.293,80.152z"/>
		<path class="st5" d="M158.45,80.73c0.059,0.148,0.125,0.289,0.196,0.436c0.204,0.431,0.685,0.644,0.701,1.474
			c0.014,0.001,0.029,0.002,0.044,0.003c1.782,0.14,2.391-1.932,2.391-1.932c0.004-0.049,0.01-0.178,0.018-0.35l-3.216,0.006
			C158.584,80.367,158.517,80.513,158.45,80.73z"/>
		<path class="st112" d="M157.998,79.748c0.01,0.028,0.019,0.054,0.03,0.081c0.31,0.736,0.991,4.528,0.991,4.528
			c0.009-0.005,2.79,0.182,3.893-1.339c0.053,0.161-0.208-0.767-0.613-2.012c-0.306-0.935-0.461-1.594-0.449-2.07
			c0-0.008,0-0.016,0.001-0.023c-0.071-0.057-0.14-0.11-0.204-0.16c-0.203-0.161-0.356-0.298-0.36-0.466
			c-0.001-0.067,0.004-0.135,0.012-0.203c0.006-0.033,0.011-0.064,0.017-0.096c0.064-0.335,0.217-0.636,0.217-0.636
			c-0.351-0.157-0.988-0.095-0.988-0.095s-0.238,0.534-0.745,0.853c-0.144,0.089-0.651,0.313-0.901,0.081
			c-0.166-0.155-0.171-0.469-0.161-0.501c0-0.001,0-0.001,0-0.001c-0.576,0.201-0.786,0.381-0.786,0.381
			C158.283,78.303,157.76,79.035,157.998,79.748z"/>
		<path class="st5" d="M158.659,76.501c0,0,0.09,0.314,0.153,0.616c0.566-0.134,0.757-0.716,0.821-1.03L158.659,76.501z"/>
		<path class="st43" d="M158.528,76.827c0,0,1.351-0.26,1.176-1.1c-0.175-0.839-0.117-1.437-0.987-1.307
			c-0.87,0.131-0.97,0.485-0.979,0.779C157.727,75.494,158.173,76.872,158.528,76.827z"/>
		<path class="st40" d="M157.68,74.725c0.155-0.295,0.323-0.272,0.428-0.215c0.65-0.559,1.25-0.06,1.25-0.06
			c0.217,0.583,0.722,0.837,0.722,0.837s-0.213,0.202-0.808,0.176c-0.184-0.009-0.364-0.099-0.525-0.22
			c0.309,0.335,0.678,0.546,0.678,0.546c-0.741-0.17-1.209-1.054-1.256-1.146c-0.066,0.09-0.196,0.285-0.213,0.452
			c-0.021,0.227,0.041,0.673-0.092,0.686C157.863,75.78,157.446,75.169,157.68,74.725z"/>
		<path class="st43" d="M156.896,82.949l0.097,0.415c0,0,2.267-0.309,3.007-0.742c0.741-0.431,1.863-2.966,1.952-4.038
			c0.004-0.056,0.008-0.11,0.009-0.162c0.026-0.926-0.429-1.071-0.429-1.071c-0.183-0.083-0.409,0.23-0.649,0.719
			c-0.505,1.025-1.066,2.824-1.4,3.357C159.224,81.835,156.896,82.949,156.896,82.949z"/>
		<path class="st112" d="M160.882,78.07c0.621-0.147,1.078,0.352,1.078,0.352c0.026-0.926-0.429-1.071-0.429-1.071
			C161.349,77.269,161.122,77.582,160.882,78.07z"/>
		<path class="st112" d="M157.949,78.068c0,0-0.229,0.211-0.314,0.691c0,0,0.336,0.002,0.493,0.33
			C158.128,79.089,158.252,78.121,157.949,78.068z"/>
		<path class="st40" d="M159.262,73.708c0,0,0.747-0.925,1.688-0.666c0.941,0.26,1.479,1.348,1.915,1.17
			c0.734-0.302,0.939,0.685,0.646,1.403c-0.258,0.626-1.364,0.864-2.035,0.179c-0.488-0.5-1.159-2.637-1.987-1.924
			C158.661,74.585,159.262,73.708,159.262,73.708z"/>
	</g>
	<path class="st18" d="M181.562,99.807v0.072c0,0.111-0.092,0.206-0.205,0.206H0.206C0.093,100.084,0,99.99,0,99.879v-0.072
		c0-0.112,0.093-0.205,0.206-0.205h181.15C181.47,99.603,181.562,99.695,181.562,99.807z"/>
	<polygon class="st11" points="55.768,87.937 56.398,87.45 55.259,87.449 	"/>
	<polygon class="st11" points="86.895,91.671 87.328,91.337 85.892,91.337 	"/>
</g>
</svg>
