<?xml version="1.0" encoding="utf-8"?>
<!-- Generator: Adobe Illustrator 16.0.2, SVG Export Plug-In . SVG Version: 6.00 Build 0)  -->
<!DOCTYPE svg PUBLIC "-//W3C//DTD SVG 1.1//EN" "http://www.w3.org/Graphics/SVG/1.1/DTD/svg11.dtd">
<svg version="1.1" id="Layer_1" xmlns="http://www.w3.org/2000/svg" xmlns:xlink="http://www.w3.org/1999/xlink" x="0px" y="0px"
	 width="158.525px" height="73.818px" viewBox="0 0 158.525 73.818" style="enable-background:new 0 0 158.525 73.818;"
	 xml:space="preserve">
<style type="text/css">
<![CDATA[
	.st0{fill:#AA3E39;}
	.st1{fill:#AEC3FF;}
	.st2{fill:#7FAAF7;}
	.st3{fill:#E5E5E5;}
	.st4{fill:#E88338;}
	.st5{fill:#E8945B;}
	.st6{fill:#4F9FDB;}
	.st7{fill:#B08100;}
	.st8{fill:#83AFFC;}
	.st9{fill:#EB4680;}
	.st10{fill:#1D2A4C;}
	.st11{fill:#1D3F77;}
	.st12{fill:#EBF3FA;}
	.st13{fill:#B84C42;}
	.st14{fill:#ED9F4A;}
	.st15{fill:#EFCDAF;}
	.st16{fill:#5885D6;}
	.st17{fill:#202E51;}
	.st18{fill:#233862;}
	.st19{opacity:0.2;fill:#92B4D1;}
	.st20{fill:#F2F7FC;}
	.st21{opacity:0.5;fill:#FFFFFF;}
	.st22{fill:#2672AB;}
	.st23{fill:#F76195;}
	.st24{fill:#F8FCFF;}
	.st25{fill:#F99746;}
	.st26{fill:#F9DDBF;}
	.st27{fill:#C0D8FB;}
	.st28{fill:url(#SVGID_1_);}
	.st29{fill:url(#SVGID_2_);}
	.st30{fill:url(#SVGID_3_);}
	.st31{fill:url(#SVGID_4_);}
	.st32{fill:url(#SVGID_5_);}
	.st33{fill:url(#SVGID_6_);}
	.st34{fill:url(#SVGID_7_);}
	.st35{fill:url(#SVGID_8_);}
	.st36{fill:url(#SVGID_9_);}
	.st37{fill:#2A4E96;}
	.st38{fill:#96CF4A;}
	.st39{fill:#2B478B;}
	.st40{fill:#2C3A64;}
	.st41{fill:#99CC99;}
	.st42{fill:#FF3399;}
	.st43{fill:#FFB27D;}
	.st44{fill:#FFCC00;}
	.st45{fill:#FFD70F;}
	.st46{fill:#FFDE17;}
	.st47{fill:#FFF3E9;}
	.st48{fill:#FFFFFF;}
	.st49{fill:#66CC66;}
	.st50{fill:#66FF66;}
	.st51{fill:#CCCCCC;}
	.st52{fill:#CCFFCC;}
	.st53{opacity:0.7;fill:#FFFFFF;}
	.st54{fill:#333333;}
	.st55{fill:#333366;}
	.st56{fill:#35488B;}
	.st57{fill:#000033;}
	.st58{fill:#000066;}
	.st59{fill:#001A46;}
	.st60{fill:#00CCCC;}
	.st61{fill:#03336E;}
	.st62{fill:#D1EBFF;}
	.st63{fill:#D4DFFF;}
	.st64{fill:#D62D69;}
	.st65{fill:#084C94;}
	.st66{fill:url(#SVGID_10_);}
	.st67{fill:url(#SVGID_11_);}
	.st68{fill:url(#SVGID_12_);}
	.st69{fill:url(#SVGID_13_);}
	.st70{fill:url(#SVGID_14_);}
	.st71{fill:url(#SVGID_15_);}
	.st72{fill:url(#SVGID_16_);}
	.st73{fill:url(#SVGID_17_);}
	.st74{fill:url(#SVGID_18_);}
	.st75{fill:url(#SVGID_19_);}
	.st76{fill:url(#SVGID_20_);}
	.st77{fill:url(#SVGID_21_);}
	.st78{fill:url(#SVGID_22_);}
	.st79{fill:url(#SVGID_23_);}
	.st80{fill:url(#SVGID_24_);}
	.st81{fill:url(#SVGID_25_);}
	.st82{fill:url(#SVGID_26_);}
	.st83{fill:url(#SVGID_27_);}
	.st84{fill:url(#SVGID_28_);}
	.st85{fill:url(#SVGID_29_);}
	.st86{fill:url(#SVGID_30_);}
	.st87{fill:url(#SVGID_31_);}
	.st88{fill:url(#SVGID_32_);}
	.st89{fill:url(#SVGID_33_);}
	.st90{fill:url(#SVGID_34_);}
	.st91{fill:url(#SVGID_35_);}
	.st92{fill:url(#SVGID_36_);}
	.st93{fill:url(#SVGID_37_);}
	.st94{fill:url(#SVGID_38_);}
	.st95{fill:url(#SVGID_39_);}
	.st96{fill:url(#SVGID_40_);}
	.st97{fill:url(#SVGID_41_);}
	.st98{fill:url(#SVGID_42_);}
	.st99{fill:url(#SVGID_43_);}
	.st100{fill:url(#SVGID_44_);}
	.st101{fill:url(#SVGID_45_);}
	.st102{fill:url(#SVGID_46_);}
	.st103{fill:url(#SVGID_47_);}
	.st104{fill:url(#SVGID_48_);}
	.st105{fill:url(#SVGID_49_);}
	.st106{fill:url(#SVGID_50_);}
	.st107{fill:url(#SVGID_51_);}
	.st108{fill:url(#SVGID_52_);}
	.st109{fill:url(#SVGID_53_);}
	.st110{fill:url(#SVGID_54_);}
	.st111{fill:url(#SVGID_55_);}
	.st112{fill:url(#SVGID_56_);}
	.st113{fill:url(#SVGID_57_);}
	.st114{fill:url(#SVGID_58_);}
	.st115{fill:url(#SVGID_59_);}
	.st116{fill:url(#SVGID_60_);}
	.st117{fill:url(#SVGID_61_);}
	.st118{fill:url(#SVGID_62_);}
	.st119{fill:url(#SVGID_63_);}
	.st120{fill:url(#SVGID_64_);}
	.st121{fill:url(#SVGID_65_);}
	.st122{fill:url(#SVGID_66_);}
	.st123{fill:url(#SVGID_67_);}
	.st124{fill:#D99F00;}
	.st125{fill:#3ECFCD;}
	.st126{fill:#3F92D1;}
	.st127{fill:#72B5E8;}
	.st128{opacity:0.5;fill:#AEC3FF;}
	.st129{fill:#739AF0;}
	.st130{fill:#739CF3;}
	.st131{fill:#0BA19F;}
	.st132{fill:#A8CFF0;}
	.st133{fill:#A8D29F;}
	.st134{fill:#79B27F;}
	.st135{fill:#0FBAB8;}
	.st136{fill:#415DA5;}
]]>
</style>
<g>
	
		<linearGradient id="SVGID_1_" gradientUnits="userSpaceOnUse" x1="1346.0723" y1="2043.3833" x2="1365.6779" y2="2027.0454" gradientTransform="matrix(1.192488e-008 1 -1 1.192488e-008 2153.1226 -1316.064)">
		<stop  offset="0" style="stop-color:#68A53E"/>
		<stop  offset="1" style="stop-color:#C4E240"/>
	</linearGradient>
	<path class="st28" d="M97.567,60.734c11.148-0.397,23.569-5.453,33.007-29.852c2.004-5.182,4.774-8.98,7.873-11.755
		c-6.327,1.334-12.498,4.956-16.819,12.785c-7.352,16.699-17.54,21.631-29.064,22.152C94.245,55.643,95.989,57.796,97.567,60.734z"
		/>
	
		<linearGradient id="SVGID_2_" gradientUnits="userSpaceOnUse" x1="1382.502" y1="2119.8999" x2="1363.1888" y2="2077.4111" gradientTransform="matrix(1.192488e-008 1 -1 1.192488e-008 2153.1226 -1316.064)">
		<stop  offset="0" style="stop-color:#8AD25B"/>
		<stop  offset="1" style="stop-color:#C1E042"/>
	</linearGradient>
	<path class="st29" d="M45.473,57.403c-0.848,0.874-1.723,1.695-2.618,2.471c3.291,2.278,5.107,4.898,6.094,6.896
		c0.783-0.797,1.529-1.633,2.226-2.513C60.49,52.469,68.938,47.33,86.98,49.179c0,0-8.889-4.047-19.943-4.473
		C60.642,45.735,53.411,49.209,45.473,57.403z"/>
	
		<linearGradient id="SVGID_3_" gradientUnits="userSpaceOnUse" x1="1351.6328" y1="2115.8901" x2="1376.8872" y2="2099.054" gradientTransform="matrix(1.192488e-008 1 -1 1.192488e-008 2153.1226 -1316.064)">
		<stop  offset="0.0994" style="stop-color:#85C057"/>
		<stop  offset="0.9931" style="stop-color:#487E38"/>
	</linearGradient>
	<path class="st30" d="M53.12,46.438c-7.728,2.453-17.305,6.606-26.7,8.484c7.699,0.468,12.911,2.513,16.435,4.952
		c0.896-0.776,1.771-1.598,2.618-2.471c7.938-8.194,15.169-11.668,21.564-12.697C62.602,44.536,57.818,44.947,53.12,46.438z"/>
	<path class="st3" d="M97.953,45.621c0,0,8.788,4.459,13.105-0.508C111.059,45.113,106.049,40.711,97.953,45.621z"/>
	<path class="st3" d="M106.659,38.88c0,0,2.007,5.261,5.742,4.815C112.401,43.695,111.971,39.91,106.659,38.88z"/>
	
		<linearGradient id="SVGID_4_" gradientUnits="userSpaceOnUse" x1="1358.4277" y1="-3092.9751" x2="1359.343" y2="-3104.3855" gradientTransform="matrix(-0.9128 -0.4128 0.2632 -0.5819 2170.9067 -1184.454)">
		<stop  offset="0" style="stop-color:#8AD25B"/>
		<stop  offset="1" style="stop-color:#C1E042"/>
	</linearGradient>
	<path class="st31" d="M114.22,65.733c0,0,8.046-6.849,0.426-12.985C114.646,52.748,106.463,55.646,114.22,65.733z"/>
	
		<linearGradient id="SVGID_5_" gradientUnits="userSpaceOnUse" x1="2965.2314" y1="2737.2407" x2="2965.8401" y2="2729.6519" gradientTransform="matrix(-0.1506 0.5872 -0.6187 -0.1587 2275.2825 -1275.9983)">
		<stop  offset="0" style="stop-color:#8AD25B"/>
		<stop  offset="1" style="stop-color:#C1E042"/>
	</linearGradient>
	<path class="st32" d="M142.648,31.793c0,0-5.688-3.242-8.233-0.046C134.415,31.747,137.644,35.084,142.648,31.793z"/>
	
		<linearGradient id="SVGID_6_" gradientUnits="userSpaceOnUse" x1="3401.1328" y1="-1944.4336" x2="3401.7327" y2="-1951.9119" gradientTransform="matrix(-0.6057 -0.0247 0.0261 -0.6382 2231.1411 -1097.3064)">
		<stop  offset="0" style="stop-color:#8AD25B"/>
		<stop  offset="1" style="stop-color:#C1E042"/>
	</linearGradient>
	<path class="st33" d="M120.905,67.023c0,0,2.029-6.16-1.673-7.946C119.232,59.077,116.595,62.885,120.905,67.023z"/>
	
		<linearGradient id="SVGID_7_" gradientUnits="userSpaceOnUse" x1="1172.7344" y1="3510.189" x2="1173.2277" y2="3504.0393" gradientTransform="matrix(0.0764 0.9989 -0.6368 0.0487 2275.3972 -1313.2727)">
		<stop  offset="0" style="stop-color:#8AD25B"/>
		<stop  offset="1" style="stop-color:#C1E042"/>
	</linearGradient>
	<path class="st34" d="M135.658,27.509c0,0-5.294-1.949-6.249,3.118C129.409,30.627,132.868,33.647,135.658,27.509z"/>
	
		<radialGradient id="SVGID_8_" cx="1365.7627" cy="2019.9399" r="24.67" gradientTransform="matrix(0.6779 0.7352 -0.5121 0.4722 241.8363 -1908.2051)" gradientUnits="userSpaceOnUse">
		<stop  offset="0.1768" style="stop-color:#FFFFFF"/>
		<stop  offset="0.4322" style="stop-color:#F9F9F9"/>
		<stop  offset="0.7686" style="stop-color:#E9E9E9"/>
		<stop  offset="1" style="stop-color:#D9D9D9"/>
	</radialGradient>
	<path class="st35" d="M115.628,32.766c0,0,36.2-7.782,35.672,34.171C151.3,66.937,109.755,72.504,115.628,32.766z"/>
	<path class="st38" d="M119.567,30.565c-1.898,0.05-3.896,0.201-6.013,0.465c0,0-5.199,39.52,34.746,38.454
		c1.596-0.043,3.257-0.15,4.999-0.327C153.3,69.158,157.495,29.553,119.567,30.565z M116.003,34.35
		c1.754-0.526,11.193-2.893,22.082,3.131c1.651,1.044,3.149,2.273,4.484,3.691c7.132,7.574,8.173,18.777,8.209,24.334
		c-2.98,0.679-18.075,3.396-28.278-8.466C116.521,49.46,115.896,39.312,116.003,34.35z"/>
	
		<linearGradient id="SVGID_9_" gradientUnits="userSpaceOnUse" x1="1316.9131" y1="2025.6353" x2="1339.0876" y2="2007.1566" gradientTransform="matrix(1.192488e-008 1 -1 1.192488e-008 2153.1226 -1316.064)">
		<stop  offset="0" style="stop-color:#68A53E"/>
		<stop  offset="1" style="stop-color:#C4E240"/>
	</linearGradient>
	<path class="st36" d="M138.778,20.26c6.569-5.883,14.445-7.755,19.747-8.165V0c-8.435,1.622-26.475,7.822-36.711,31.499
		c-0.062,0.14-0.124,0.273-0.187,0.413C125.949,24.083,132.452,21.594,138.778,20.26z"/>
	
		<linearGradient id="SVGID_10_" gradientUnits="userSpaceOnUse" x1="1332.209" y1="1994.4526" x2="1334.4812" y2="2011.4938" gradientTransform="matrix(1.192488e-008 1 -1 1.192488e-008 2153.1226 -1316.064)">
		<stop  offset="0" style="stop-color:#68A53E"/>
		<stop  offset="1" style="stop-color:#C4E240"/>
	</linearGradient>
	<path class="st66" d="M158.525,20.713v-8.83c-5.398,0.072-13.484,1.339-20.078,7.244C145.832,17.57,153.422,19.121,158.525,20.713z
		"/>
	
		<linearGradient id="SVGID_11_" gradientUnits="userSpaceOnUse" x1="1373.7246" y1="2019.2222" x2="1315.83" y2="2039.4307" gradientTransform="matrix(1.192488e-008 1 -1 1.192488e-008 2153.1226 -1316.064)">
		<stop  offset="0.0994" style="stop-color:#85C057"/>
		<stop  offset="0.9931" style="stop-color:#487E38"/>
	</linearGradient>
	<path class="st67" d="M139.058,44.52c7.231-6.854,14.253-7.743,19.468-6.92V20.713c-5.104-1.592-12.693-3.143-20.078-1.586
		c-3.099,2.775-5.869,6.574-7.873,11.755c-9.438,24.398-21.858,29.454-33.007,29.852c1.405,2.617,2.446,6.124,3.423,10.136
		C121.667,66.71,126.759,56.176,139.058,44.52z"/>
	
		<linearGradient id="SVGID_12_" gradientUnits="userSpaceOnUse" x1="1367.832" y1="1989.7358" x2="1403.1702" y2="2071.3145" gradientTransform="matrix(1.192488e-008 1 -1 1.192488e-008 2153.1226 -1316.064)">
		<stop  offset="0.0994" style="stop-color:#85C057"/>
		<stop  offset="0.9931" style="stop-color:#487E38"/>
	</linearGradient>
	<path class="st68" d="M158.525,73.818V36.931c-5.165-0.634-12.144,0.647-19.468,7.589c-12.299,11.656-17.16,21.922-37.836,26.082
		c0.249,1.021,0.387,2.093,0.456,3.217H158.525z"/>
	
		<linearGradient id="SVGID_13_" gradientUnits="userSpaceOnUse" x1="1378.9238" y1="2039.6118" x2="1391.451" y2="2068.531" gradientTransform="matrix(1.192488e-008 1 -1 1.192488e-008 2153.1226 -1316.064)">
		<stop  offset="0.0994" style="stop-color:#85C057"/>
		<stop  offset="0.9931" style="stop-color:#487E38"/>
	</linearGradient>
	<path class="st69" d="M101.908,73.818c-0.208-1.124-0.438-2.195-0.687-3.217c-3.637,0.732-7.76,1.276-12.503,1.604
		c-5.541,0.383-10.224,0.934-14.204,1.613H101.908z"/>
	
		<linearGradient id="SVGID_14_" gradientUnits="userSpaceOnUse" x1="1382.3271" y1="2046.8599" x2="1382.8071" y2="2084.7749" gradientTransform="matrix(1.192488e-008 1 -1 1.192488e-008 2153.1226 -1316.064)">
		<stop  offset="0.0994" style="stop-color:#85C057"/>
		<stop  offset="0.9931" style="stop-color:#487E38"/>
	</linearGradient>
	<path class="st70" d="M76.55,73.818c3.538-0.518,7.586-0.948,12.238-1.27c3.123-0.216,7.232-0.315,12.48-1.37
		c-0.978-4.012-2.296-7.828-3.701-10.444c-3.882,0.139-7.61-0.286-11.004-0.658C73.422,58.637,64.454,58.842,60.49,70.15
		c-0.456,1.302-1.042,2.523-1.717,3.668H76.55z"/>
	
		<linearGradient id="SVGID_15_" gradientUnits="userSpaceOnUse" x1="1371.3721" y1="2089.2026" x2="1396.5784" y2="2062.5642" gradientTransform="matrix(1.192488e-008 1 -1 1.192488e-008 2153.1226 -1316.064)">
		<stop  offset="0" style="stop-color:#68A53E"/>
		<stop  offset="1" style="stop-color:#C4E240"/>
	</linearGradient>
	<path class="st71" d="M58.773,73.818c0.675-1.145,1.261-2.366,1.717-3.668c3.964-11.308,12.932-11.514,26.073-10.074
		c3.394,0.372,8.146,1.44,12.028,1.302c-1.578-2.938-4.347-5.735-6.028-7.314c-0.721,0.033-1.445,0.05-2.177,0.05
		c-8.135,0-18.414-2.583-27.811,5.894c-4.604,4.153-5.706,8.91-9.052,13.811H58.773z"/>
	
		<linearGradient id="SVGID_16_" gradientUnits="userSpaceOnUse" x1="1390.6221" y1="2139.5854" x2="1363.6842" y2="2080.322" gradientTransform="matrix(1.192488e-008 1 -1 1.192488e-008 2153.1226 -1316.064)">
		<stop  offset="0" style="stop-color:#8AD25B"/>
		<stop  offset="1" style="stop-color:#C1E042"/>
	</linearGradient>
	<path class="st72" d="M0,69.656v4.163h39.484c3.378-1.892,6.672-4.211,9.464-7.048c-0.986-1.997-2.803-4.617-6.094-6.896
		C28.598,72.226,8.595,72.566,0,69.656z"/>
	
		<linearGradient id="SVGID_17_" gradientUnits="userSpaceOnUse" x1="1371.5107" y1="2137.9058" x2="1394.6506" y2="2122.4792" gradientTransform="matrix(1.192488e-008 1 -1 1.192488e-008 2153.1226 -1316.064)">
		<stop  offset="0.0994" style="stop-color:#85C057"/>
		<stop  offset="0.9931" style="stop-color:#487E38"/>
	</linearGradient>
	<path class="st73" d="M0,48.901v20.754c8.595,2.911,28.598,2.57,42.854-9.781c-3.523-2.439-7.762-4.677-15.46-5.144
		C17.621,56.684,7.213,56.333,0,48.901z"/>
</g>
</svg>
