<?xml version="1.0" encoding="utf-8"?>
<!-- Generator: Adobe Illustrator 16.0.2, SVG Export Plug-In . SVG Version: 6.00 Build 0)  -->
<!DOCTYPE svg PUBLIC "-//W3C//DTD SVG 1.1//EN" "http://www.w3.org/Graphics/SVG/1.1/DTD/svg11.dtd">
<svg version="1.1" id="Layer_1" xmlns="http://www.w3.org/2000/svg" xmlns:xlink="http://www.w3.org/1999/xlink" x="0px" y="0px"
	 width="185.88px" height="112.654px" viewBox="0 0 185.88 112.654" style="enable-background:new 0 0 185.88 112.654;"
	 xml:space="preserve">
<style type="text/css">
<![CDATA[
	.st0{fill:#E5E5E5;}
	.st1{fill:#4F9FDB;}
	.st2{fill:#B08100;}
	.st3{fill:#EB4680;}
	.st4{opacity:0.2;fill:#92B4D1;}
	.st5{fill:#F2F7FC;}
	.st6{opacity:0.5;fill:#FFFFFF;}
	.st7{fill:#2672AB;}
	.st8{fill:#F76195;}
	.st9{fill:url(#SVGID_1_);}
	.st10{fill:url(#SVGID_2_);}
	.st11{fill:url(#SVGID_3_);}
	.st12{fill:url(#SVGID_4_);}
	.st13{fill:url(#SVGID_5_);}
	.st14{fill:url(#SVGID_6_);}
	.st15{fill:url(#SVGID_7_);}
	.st16{fill:url(#SVGID_8_);}
	.st17{fill:url(#SVGID_9_);}
	.st18{fill:#96CF4A;}
	.st19{fill:#99CC99;}
	.st20{fill:#FF3399;}
	.st21{fill:#FFCC00;}
	.st22{fill:#FFD70F;}
	.st23{fill:#FFDE17;}
	.st24{fill:#FFFFFF;}
	.st25{fill:#66CC66;}
	.st26{fill:#66FF66;}
	.st27{fill:#CCCCCC;}
	.st28{fill:#CCFFCC;}
	.st29{opacity:0.7;fill:#FFFFFF;}
	.st30{fill:#333333;}
	.st31{fill:#333366;}
	.st32{fill:#000033;}
	.st33{fill:#000066;}
	.st34{fill:#001A46;}
	.st35{fill:#00CCCC;}
	.st36{fill:#03336E;}
	.st37{fill:#D1EBFF;}
	.st38{fill:#D62D69;}
	.st39{fill:#084C94;}
	.st40{fill:url(#SVGID_10_);}
	.st41{fill:url(#SVGID_11_);}
	.st42{fill:url(#SVGID_12_);}
	.st43{fill:url(#SVGID_13_);}
	.st44{fill:url(#SVGID_14_);}
	.st45{fill:url(#SVGID_15_);}
	.st46{fill:url(#SVGID_16_);}
	.st47{fill:url(#SVGID_17_);}
	.st48{fill:url(#SVGID_18_);}
	.st49{fill:url(#SVGID_19_);}
	.st50{fill:url(#SVGID_20_);}
	.st51{fill:url(#SVGID_21_);}
	.st52{fill:url(#SVGID_22_);}
	.st53{fill:url(#SVGID_23_);}
	.st54{fill:url(#SVGID_24_);}
	.st55{fill:url(#SVGID_25_);}
	.st56{fill:url(#SVGID_26_);}
	.st57{fill:url(#SVGID_27_);}
	.st58{fill:url(#SVGID_28_);}
	.st59{fill:url(#SVGID_29_);}
	.st60{fill:url(#SVGID_30_);}
	.st61{fill:url(#SVGID_31_);}
	.st62{fill:url(#SVGID_32_);}
	.st63{fill:url(#SVGID_33_);}
	.st64{fill:url(#SVGID_34_);}
	.st65{fill:url(#SVGID_35_);}
	.st66{fill:url(#SVGID_36_);}
	.st67{fill:url(#SVGID_37_);}
	.st68{fill:url(#SVGID_38_);}
	.st69{fill:url(#SVGID_39_);}
	.st70{fill:url(#SVGID_40_);}
	.st71{fill:url(#SVGID_41_);}
	.st72{fill:url(#SVGID_42_);}
	.st73{fill:url(#SVGID_43_);}
	.st74{fill:url(#SVGID_44_);}
	.st75{fill:url(#SVGID_45_);}
	.st76{fill:url(#SVGID_46_);}
	.st77{fill:url(#SVGID_47_);}
	.st78{fill:url(#SVGID_48_);}
	.st79{fill:url(#SVGID_49_);}
	.st80{fill:url(#SVGID_50_);}
	.st81{fill:#D99F00;}
	.st82{fill:#3ECFCD;}
	.st83{fill:#3F92D1;}
	.st84{fill:#72B5E8;}
	.st85{fill:#0BA19F;}
	.st86{fill:#A8CFF0;}
	.st87{fill:#0FBAB8;}
]]>
</style>
<g>
	
		<linearGradient id="SVGID_1_" gradientUnits="userSpaceOnUse" x1="1590.938" y1="3140.5474" x2="1594.7644" y2="3127.3289" gradientTransform="matrix(4.371139e-008 1 -1 4.371139e-008 3199.6157 -1570.1821)">
		<stop  offset="0" style="stop-color:#8AD25B"/>
		<stop  offset="1" style="stop-color:#C1E042"/>
	</linearGradient>
	<path class="st9" d="M67.274,17.943c-4.074,2.861-9.021,5.442-15.008,7.377c4.715-0.338,11.375-2.053,19.371-7.46
		C70.286,17.927,68.829,17.961,67.274,17.943z"/>
	
		<linearGradient id="SVGID_2_" gradientUnits="userSpaceOnUse" x1="1596.897" y1="3127.3687" x2="1589.5916" y2="3149.1692" gradientTransform="matrix(4.371139e-008 1 -1 4.371139e-008 3199.6157 -1570.1821)">
		<stop  offset="0.0994" style="stop-color:#85C057"/>
		<stop  offset="0.9931" style="stop-color:#487E38"/>
	</linearGradient>
	<path class="st10" d="M52.266,25.32c5.986-1.936,10.934-4.517,15.008-7.377c-2.07-0.023-4.313-0.136-6.691-0.377
		c-4.197,3.323-9.469,5.97-16.043,6.965C44.54,24.531,47.344,25.674,52.266,25.32z"/>
	<path class="st0" d="M23.245,21.091c0,0-13.18-2.438-16.899,5.724C6.346,26.815,14.576,30.637,23.245,21.091z"/>
	<path class="st0" d="M12.977,33.675c0,0-3.06-6.353-7.844-5.656C5.132,28.019,5.277,33.165,12.977,33.675z"/>
	<path class="st0" d="M100.772,2.459c0,0-3.725-1.624-5.381,0.532C95.391,2.991,97.561,4.685,100.772,2.459z"/>
	<path class="st0" d="M99.926,6.914c0,0-5.098-5.095-9.049-2.709C90.877,4.205,93.188,9.086,99.926,6.914z"/>
	
		<linearGradient id="SVGID_3_" gradientUnits="userSpaceOnUse" x1="1575.5269" y1="3171.7397" x2="1601.5845" y2="3171.7397" gradientTransform="matrix(4.371139e-008 1 -1 4.371139e-008 3199.6157 -1570.1821)">
		<stop  offset="0" style="stop-color:#8AD25B"/>
		<stop  offset="1" style="stop-color:#C1E042"/>
	</linearGradient>
	<path class="st11" d="M0,31.402c13.386-23.144,24.981-6.855,44.192-10.011c4.506-0.74,8.332-2.377,11.559-4.472
		c-7.332-1.22-15.658-3.712-24.295-8.395C15.914,5.91,8.441,3.412,0,7.528V31.402z"/>
	
		<linearGradient id="SVGID_4_" gradientUnits="userSpaceOnUse" x1="1575.229" y1="3171.8296" x2="1572.9996" y2="3203.8899" gradientTransform="matrix(4.371139e-008 1 -1 4.371139e-008 3199.6157 -1570.1821)">
		<stop  offset="0.0994" style="stop-color:#85C057"/>
		<stop  offset="0.9931" style="stop-color:#487E38"/>
	</linearGradient>
	<path class="st12" d="M31.456,8.525C27.243,6.241,22.959,3.435,18.682,0H0v7.528C8.441,3.412,15.914,5.91,31.456,8.525z"/>
	
		<linearGradient id="SVGID_5_" gradientUnits="userSpaceOnUse" x1="1583.1245" y1="3152.8999" x2="1561.5402" y2="3159.2483" gradientTransform="matrix(4.371139e-008 1 -1 4.371139e-008 3199.6157 -1570.1821)">
		<stop  offset="0.0994" style="stop-color:#85C057"/>
		<stop  offset="0.9931" style="stop-color:#487E38"/>
	</linearGradient>
	<path class="st13" d="M67.135,0H18.682c4.278,3.435,8.561,6.241,12.774,8.525c2.25,0.378,4.67,0.759,7.285,1.124
		C54.225,11.8,63.016,5.117,67.135,0z"/>
	
		<linearGradient id="SVGID_6_" gradientUnits="userSpaceOnUse" x1="1570.1821" y1="3149.0571" x2="1587.1021" y2="3149.0571" gradientTransform="matrix(4.371139e-008 1 -1 4.371139e-008 3199.6157 -1570.1821)">
		<stop  offset="0" style="stop-color:#8AD25B"/>
		<stop  offset="1" style="stop-color:#C1E042"/>
	</linearGradient>
	<path class="st14" d="M31.456,8.525c8.637,4.683,16.963,7.175,24.295,8.395C63.426,11.934,67.706,4.346,69.661,0h-2.525
		c-4.119,5.117-12.91,11.8-28.395,9.648C36.125,9.284,33.706,8.903,31.456,8.525z"/>
	
		<linearGradient id="SVGID_7_" gradientUnits="userSpaceOnUse" x1="1579.6226" y1="3118.4702" x2="1577.9863" y2="3145.3044" gradientTransform="matrix(4.371139e-008 1 -1 4.371139e-008 3199.6157 -1570.1821)">
		<stop  offset="0.0994" style="stop-color:#85C057"/>
		<stop  offset="0.9931" style="stop-color:#487E38"/>
	</linearGradient>
	<path class="st15" d="M82.856,0H73.51l0,0c-2.053,4.825-6.039,12.11-12.928,17.566c2.379,0.241,4.59,0.51,6.662,0.534
		C75.643,12.204,80.36,5.039,82.856,0z"/>
	
		<linearGradient id="SVGID_8_" gradientUnits="userSpaceOnUse" x1="1577.9438" y1="3129.729" x2="1579.6329" y2="3108.6716" gradientTransform="matrix(4.371139e-008 1 -1 4.371139e-008 3199.6157 -1570.1821)">
		<stop  offset="0" style="stop-color:#8AD25B"/>
		<stop  offset="1" style="stop-color:#C1E042"/>
	</linearGradient>
	<path class="st16" d="M71.637,17.86c3.488-2.358,7.232-5.417,11.18-9.375C87.192,4.099,92.708,0.691,102.672,0h-19.82
		c-2.492,4.996-7.189,12.055-15.578,17.943C68.829,17.961,70.286,17.927,71.637,17.86z"/>
</g>
</svg>
