<?xml version="1.0" encoding="utf-8"?>
<!-- Generator: Adobe Illustrator 16.0.2, SVG Export Plug-In . SVG Version: 6.00 Build 0)  -->
<!DOCTYPE svg PUBLIC "-//W3C//DTD SVG 1.1//EN" "http://www.w3.org/Graphics/SVG/1.1/DTD/svg11.dtd">
<svg version="1.1" id="Layer_1" xmlns="http://www.w3.org/2000/svg" xmlns:xlink="http://www.w3.org/1999/xlink" x="0px" y="0px"
	 width="24.999px" height="4.848px" viewBox="0 0 24.999 4.848" style="enable-background:new 0 0 24.999 4.848;"
	 xml:space="preserve">
<style type="text/css">
<![CDATA[
	.st0{fill:#5ECF25;}
	.st1{fill:url(#SVGID_1_);}
	.st2{fill:#66CC66;}
]]>
</style>
<g>
	<path class="st0" d="M0.875,1.838c0,0,2.975,2.128,12.323-0.279C13.198,1.559,4.18,4.688,0.875,1.838z"/>
	<path class="st2" d="M9.774,2.893C4.077,4.116,1.217,2.833,0,1.934v0.993c1.217,0.899,4.077,2.182,9.774,0.959
		c6.612-1.415,11.058-3.519,15.224-2.716V0.178C20.833-0.626,16.386,1.479,9.774,2.893z"/>
	<linearGradient id="SVGID_1_" gradientUnits="userSpaceOnUse" x1="12.499" y1="1.1035" x2="12.499" y2="4.8481">
		<stop  offset="0.2611" style="stop-color:#6ED14A"/>
		<stop  offset="1" style="stop-color:#2484C6;stop-opacity:0"/>
	</linearGradient>
	<path class="st1" d="M24.999,4.848v-3.57C20.833,0.474,16.386,2.635,9.774,4.05C4.077,5.273,1.217,4.275,0,3.377v1.471H24.999z"/>
</g>
</svg>
