<?xml version="1.0" encoding="utf-8"?>
<!-- Generator: Adobe Illustrator 16.0.2, SVG Export Plug-In . SVG Version: 6.00 Build 0)  -->
<!DOCTYPE svg PUBLIC "-//W3C//DTD SVG 1.1//EN" "http://www.w3.org/Graphics/SVG/1.1/DTD/svg11.dtd">
<svg version="1.1" id="Layer_1" xmlns="http://www.w3.org/2000/svg" xmlns:xlink="http://www.w3.org/1999/xlink" x="0px" y="0px"
	 width="660px" height="400px" viewBox="0 0 660 400" enable-background="new 0 0 660 400" xml:space="preserve">
<g>
	<polygon fill="#A8CFF0" points="492.71,314.885 492.71,306.234 492.71,306.234 	"/>
	<polygon opacity="0.5" fill="#FFFFFF" points="492.71,385.342 492.71,314.885 492.71,385.342 	"/>
	<g>
		<g>
			<path fill="#72B5E8" d="M421.514,224.533c-7.67-4.428-13.887-15.152-13.887-23.951c0-3.266,0.865-5.791,2.334-7.465
				c-4.209,0.305-7.055,3.828-7.055,9.775c0,8.799,6.217,19.523,13.887,23.951c4.818,2.781,9.049,2.398,11.535-0.443
				C426.314,226.549,423.994,225.965,421.514,224.533z"/>
			<path fill="#A8CFF0" d="M435.01,221.629c0-1.102-0.096-2.229-0.236-3.365l5.613-0.711c-0.572-2.826-1.436-5.684-2.545-8.498
				l-6.395-1.934c-1.117-2.393-2.459-4.707-3.982-6.867l1.533-6.455c-1.895-2.365-3.951-4.544-6.125-6.455l-3.443,4.453
				c-0.92-0.693-1.855-1.344-2.814-1.897s-1.895-0.983-2.814-1.352l-3.441-8.43c-2.176-0.6-4.23-0.795-6.127-0.617l1.533,8.225
				c-1.523,0.401-2.865,1.166-3.98,2.27l-6.396-5.451c-1.107,1.535-1.973,3.394-2.545,5.56l5.613,7.193
				c-0.141,0.973-0.236,1.99-0.236,3.092c0,1.1,0.096,2.229,0.236,3.365l-5.613,0.711c0.572,2.824,1.438,5.682,2.545,8.498
				l6.396,1.934c1.115,2.393,2.457,4.705,3.98,6.865l-1.533,6.455c1.896,2.367,3.951,4.545,6.127,6.457l3.441-4.455
				c0.92,0.695,1.855,1.344,2.814,1.898c0.959,0.553,1.895,0.982,2.814,1.352l3.443,8.43c2.174,0.6,4.23,0.795,6.125,0.617
				l-1.533-8.225c1.523-0.402,2.865-1.166,3.982-2.27l6.395,5.451c1.109-1.535,1.973-3.395,2.545-5.561l-5.613-7.191
				C434.914,223.748,435.01,222.73,435.01,221.629z M416.793,226.844c-7.67-4.428-13.887-15.152-13.887-23.951
				c0-8.801,6.217-12.347,13.887-7.918c7.668,4.428,13.887,15.15,13.887,23.951S424.461,231.271,416.793,226.844z"/>
			<polygon fill="#72B5E8" points="419.182,185.458 415.738,177.028 410.359,180.118 413.801,188.548 			"/>
			<path fill="#D1EBFF" d="M413.801,188.548c0.92,0.368,1.855,0.798,2.814,1.352s1.895,1.204,2.814,1.897l3.441-4.453v0.001
				c0,0-0.582-0.365-0.877-0.535c-0.959-0.554-1.893-0.983-2.813-1.352L413.801,188.548z"/>
			<path fill="#D1EBFF" d="M415.738,177.028c-2.176-0.6-4.23-0.795-6.127-0.617l-5.379,3.09c1.896-0.178,3.951,0.018,6.127,0.617
				L415.738,177.028z"/>
			<path fill="#D1EBFF" d="M434.377,190.709c-1.895-2.365-3.949-4.544-6.125-6.455l-5.379,3.09c2.174,1.911,4.23,4.09,6.125,6.455
				L434.377,190.709z"/>
			<polygon fill="#72B5E8" points="428.998,193.799 427.465,200.254 432.846,197.164 434.377,190.709 			"/>
			<path fill="#72B5E8" d="M427.465,200.254c1.523,2.16,2.865,4.475,3.982,6.867l5.379-3.09c-1.117-2.393-2.459-4.707-3.98-6.867
				L427.465,200.254z"/>
			<polygon fill="#D1EBFF" points="431.447,207.121 437.842,209.055 443.223,205.965 436.826,204.031 			"/>
			<path fill="#72B5E8" d="M437.842,209.055c1.109,2.814,1.973,5.672,2.545,8.498l5.379-3.09c-0.57-2.826-1.436-5.684-2.543-8.498
				L437.842,209.055z"/>
			<path fill="#72B5E8" d="M405.766,187.725l-0.445-2.392l-4.553-3.879l-5.379,3.09l6.396,5.451
				C402.9,188.892,404.242,188.127,405.766,187.725z"/>
			<path fill="#72B5E8" d="M440.387,231.912c-0.572,2.166-1.436,4.025-2.545,5.561l5.381-3.09c1.107-1.535,1.973-3.395,2.543-5.561
				L440.387,231.912z"/>
			<path fill="#72B5E8" d="M440.152,221.631c0.143-0.973,0.238-1.99,0.238-3.092c0-0.324-0.021-0.654-0.039-0.982l-5.578,0.707
				c0.141,1.137,0.236,2.264,0.236,3.365s-0.096,2.119-0.236,3.092L440.152,221.631z"/>
			<polygon fill="#D1EBFF" points="434.773,224.721 440.387,231.912 445.766,228.822 440.152,221.631 			"/>
			<path fill="#72B5E8" d="M431.447,232.021c-1.117,1.104-2.459,1.867-3.982,2.27l1.533,8.225l5.379-3.09l-1.086-5.832
				L431.447,232.021z"/>
			<path fill="#D1EBFF" d="M398.256,201.289l-5.412,3.176l5.613-0.711C398.354,202.924,398.291,202.102,398.256,201.289z"/>
			<path fill="#72B5E8" d="M413.801,230.219l-3.441,4.455l5.418-3.086C415.111,231.162,414.451,230.709,413.801,230.219z"/>
			<g>
				<path fill="#FFFFFF" d="M405.111,188.097l-0.016-0.083c-0.256,0.098-0.502,0.216-0.746,0.336
					C404.602,188.26,404.85,188.165,405.111,188.097z"/>
				<path fill="#FFFFFF" d="M397.775,203.85l-4.66,0.59c0.018,0.09,0.043,0.182,0.063,0.271l4.625-0.586
					C397.791,204.033,397.787,203.941,397.775,203.85z"/>
				<path fill="#FFFFFF" d="M428.697,194.15l-1.533,6.455c1.523,2.16,2.865,4.475,3.98,6.865l6.396,1.936
					c1.072,2.725,1.912,5.488,2.482,8.227l0.633-0.105c-0.57-2.826-1.436-5.684-2.543-8.498l-6.396-1.934
					c-1.115-2.393-2.457-4.707-3.98-6.867l1.533-6.453c-1.896-2.367-3.951-4.546-6.127-6.457l-0.209,0.709
					C424.973,189.859,426.908,191.918,428.697,194.15z"/>
				<path fill="#FFFFFF" d="M416.84,226.738c-7.67-4.43-13.887-15.152-13.887-23.953c0-3.887,1.219-6.736,3.236-8.334
					c-2.33,1.502-3.764,4.496-3.764,8.711c0,8.801,6.217,19.523,13.887,23.953c3.871,2.234,7.371,2.432,9.889,0.953
					c-0.186,0.057-0.381,0.094-0.574,0.137C423.232,229.074,420.176,228.664,416.84,226.738z"/>
				<path fill="#FFFFFF" d="M428.498,234.012c0.922-0.332,1.77-0.805,2.531-1.416l-0.236-0.203
					C430.111,233.066,429.338,233.598,428.498,234.012z"/>
				<path fill="#FFFFFF" d="M401.582,190.141c-0.232,0.01,0.002-0.183,0.236-0.373l-6.158-5.249
					c-0.176,0.242-0.332,0.506-0.043,0.537L401.582,190.141z"/>
				<path fill="#FFFFFF" d="M427.313,234.662l1.467,7.871c-0.168-0.008,0.166-0.014,0.49-0.043l-1.518-8.141
					C427.445,234.467,427.135,234.578,427.313,234.662z"/>
				<path fill="#FFFFFF" d="M435.281,221.604c0-1.012-0.086-2.047-0.209-3.09l-0.559,0.041c0.141,1.139,0.236,2.266,0.236,3.367
					c0,1.1-0.096,2.119-0.236,3.092l5.613,7.191c-0.482,1.824-1.182,3.418-2.051,4.797l0.037,0.445
					c1.107-1.535,1.973-3.395,2.543-5.561l-5.613-7.191C435.186,223.723,435.281,222.705,435.281,221.604z"/>
				<path fill="#FFFFFF" d="M410.125,180.343l3.441,8.429c0.92,0.368,1.855,0.798,2.814,1.352s1.895,1.205,2.814,1.898l0.107-0.535
					c-0.793-0.583-1.594-1.137-2.416-1.612c-0.959-0.554-1.895-0.982-2.814-1.352l-3.443-8.429c-2.176-0.601-4.23-0.796-6.125-0.618
					l0.066,0.354C406.186,179.788,408.32,179.845,410.125,180.343z"/>
				<path fill="#FFFFFF" d="M413.146,230.592l-2.879,3.723c0.121,0.109,0.24,0.227,0.361,0.334l2.916-3.771
					C413.412,230.779,413.279,230.689,413.146,230.592z"/>
			</g>
		</g>
		<g>
			<path fill="#72B5E8" d="M419.52,158.49c-11.537-6.66-20.889-22.791-20.889-36.029c0-4.91,1.301-8.71,3.512-11.229
				c-6.332,0.459-10.615,5.759-10.615,14.704c0,13.237,9.354,29.368,20.889,36.029c7.248,4.184,13.611,3.609,17.352-0.666
				C426.742,161.521,423.25,160.644,419.52,158.49z"/>
			<path fill="#A8CFF0" d="M439.82,154.122c0-1.656-0.143-3.353-0.355-5.063l8.443-1.068c-0.859-4.25-2.16-8.549-3.828-12.783
				l-9.621-2.909c-1.678-3.599-3.697-7.079-5.988-10.329l2.307-9.709c-2.852-3.559-5.943-6.836-9.215-9.711l-5.18,6.699
				c-1.383-1.043-2.789-2.021-4.232-2.854c-1.443-0.834-2.85-1.48-4.232-2.034l-5.18-12.679c-3.271-0.904-6.363-1.196-9.215-0.93
				l2.307,12.371c-2.291,0.604-4.311,1.755-5.988,3.414l-9.621-8.199c-1.668,2.309-2.969,5.104-3.828,8.363l8.443,10.818
				c-0.213,1.465-0.355,2.994-0.355,4.65s0.143,3.354,0.355,5.063l-8.443,1.068c0.859,4.251,2.16,8.548,3.828,12.783l9.621,2.909
				c1.678,3.599,3.697,7.078,5.988,10.328l-2.307,9.71c2.852,3.559,5.943,6.836,9.215,9.711l5.18-6.699
				c1.383,1.043,2.789,2.021,4.232,2.854c1.443,0.834,2.85,1.48,4.232,2.035l5.18,12.678c3.271,0.904,6.363,1.196,9.215,0.93
				l-2.307-12.371c2.291-0.605,4.311-1.754,5.988-3.414l9.621,8.199c1.668-2.309,2.969-5.105,3.828-8.363l-8.443-10.818
				C439.678,157.309,439.82,155.777,439.82,154.122z M412.416,161.966c-11.535-6.661-20.889-22.792-20.889-36.029
				c0-13.238,9.354-18.57,20.889-11.909c11.537,6.66,20.889,22.791,20.889,36.029C433.305,163.294,423.953,168.626,412.416,161.966z
				"/>
			<polygon fill="#72B5E8" points="416.01,99.713 410.83,87.033 402.738,91.682 407.918,104.36 			"/>
			<path fill="#D1EBFF" d="M407.918,104.36c1.383,0.554,2.789,1.2,4.232,2.034c1.443,0.832,2.85,1.811,4.232,2.854l5.18-6.697
				h-0.002c0,0-0.875-0.549-1.318-0.805c-1.443-0.834-2.85-1.479-4.232-2.033L407.918,104.36z"/>
			<path fill="#D1EBFF" d="M410.83,87.033c-3.271-0.902-6.363-1.195-9.215-0.93l-8.092,4.648c2.852-0.267,5.943,0.025,9.215,0.93
				L410.83,87.033z"/>
			<path fill="#D1EBFF" d="M438.869,107.611c-2.852-3.559-5.943-6.835-9.215-9.71l-8.092,4.647c3.271,2.875,6.363,6.152,9.215,9.711
				L438.869,107.611z"/>
			<polygon fill="#72B5E8" points="430.777,112.26 428.471,121.969 436.563,117.32 438.869,107.611 			"/>
			<path fill="#72B5E8" d="M428.471,121.969c2.291,3.25,4.311,6.73,5.988,10.329l8.092-4.647c-1.678-3.599-3.697-7.08-5.988-10.33
				L428.471,121.969z"/>
			<polygon fill="#D1EBFF" points="434.459,132.298 444.08,135.207 452.172,130.559 442.551,127.65 			"/>
			<path fill="#72B5E8" d="M444.08,135.207c1.668,4.234,2.969,8.533,3.828,12.783l8.092-4.648c-0.859-4.25-2.16-8.549-3.828-12.783
				L444.08,135.207z"/>
			<path fill="#72B5E8" d="M395.83,103.123l-0.672-3.598l-6.846-5.836l-8.092,4.648l9.621,8.199
				C391.52,104.878,393.539,103.728,395.83,103.123z"/>
			<path fill="#72B5E8" d="M447.908,169.591c-0.859,3.258-2.16,6.055-3.828,8.363l8.092-4.647c1.668-2.31,2.969-5.105,3.828-8.364
				L447.908,169.591z"/>
			<path fill="#72B5E8" d="M447.557,154.125c0.213-1.465,0.355-2.996,0.355-4.65c0-0.488-0.031-0.984-0.057-1.479l-8.391,1.063
				c0.213,1.711,0.355,3.407,0.355,5.063c0,1.656-0.143,3.188-0.355,4.651L447.557,154.125z"/>
			<polygon fill="#D1EBFF" points="439.465,158.772 447.908,169.591 456,164.942 447.557,154.125 			"/>
			<path fill="#72B5E8" d="M434.459,169.755c-1.678,1.66-3.697,2.809-5.988,3.414l2.307,12.371l8.092-4.648l-1.635-8.772
				L434.459,169.755z"/>
			<path fill="#D1EBFF" d="M384.533,123.525l-8.141,4.776l8.443-1.068C384.682,125.984,384.586,124.749,384.533,123.525z"/>
			<path fill="#72B5E8" d="M407.918,167.044l-5.18,6.699l8.152-4.64C409.887,168.46,408.893,167.78,407.918,167.044z"/>
			<g>
				<path fill="#FFFFFF" d="M394.846,103.682l-0.023-0.125c-0.387,0.148-0.756,0.324-1.121,0.506
					C394.076,103.928,394.451,103.785,394.846,103.682z"/>
				<path fill="#FFFFFF" d="M383.811,127.377l-7.01,0.887c0.027,0.137,0.064,0.273,0.092,0.408l6.959-0.88
					C383.834,127.652,383.826,127.516,383.811,127.377z"/>
				<path fill="#FFFFFF" d="M430.324,112.787l-2.307,9.71c2.291,3.249,4.311,6.73,5.988,10.329l9.621,2.909
					c1.613,4.099,2.875,8.257,3.734,12.374l0.953-0.158c-0.859-4.25-2.16-8.548-3.826-12.781l-9.621-2.91
					c-1.68-3.598-3.697-7.078-5.988-10.328l2.305-9.709c-2.852-3.56-5.941-6.836-9.215-9.711l-0.316,1.066
					C424.721,106.334,427.633,109.429,430.324,112.787z"/>
				<path fill="#FFFFFF" d="M412.488,161.806c-11.537-6.661-20.891-22.791-20.891-36.029c0-5.847,1.836-10.133,4.871-12.535
					c-3.508,2.257-5.664,6.762-5.664,13.103c0,13.237,9.354,29.368,20.889,36.029c5.824,3.362,11.088,3.659,14.877,1.435
					c-0.279,0.086-0.574,0.142-0.865,0.205C422.104,165.319,417.506,164.703,412.488,161.806z"/>
				<path fill="#FFFFFF" d="M430.025,172.749c1.387-0.5,2.662-1.21,3.807-2.133l-0.357-0.303
					C432.451,171.326,431.287,172.124,430.025,172.749z"/>
				<path fill="#FFFFFF" d="M389.537,106.756c-0.352,0.016,0.002-0.273,0.355-0.56l-9.266-7.897c-0.262,0.364-0.5,0.762-0.063,0.809
					L389.537,106.756z"/>
				<path fill="#FFFFFF" d="M428.242,173.728l2.207,11.839c-0.256-0.013,0.248-0.019,0.734-0.064l-2.281-12.246
					C428.441,173.433,427.973,173.599,428.242,173.728z"/>
				<path fill="#FFFFFF" d="M440.229,154.084c0-1.521-0.131-3.08-0.316-4.648l-0.84,0.063c0.213,1.711,0.357,3.408,0.357,5.064
					c0,1.655-0.145,3.186-0.357,4.65l8.443,10.817c-0.723,2.746-1.777,5.142-3.082,7.216l0.055,0.671
					c1.666-2.31,2.967-5.105,3.826-8.364l-8.443-10.818C440.084,157.271,440.229,155.74,440.229,154.084z"/>
				<path fill="#FFFFFF" d="M402.387,92.018l5.178,12.68c1.383,0.554,2.791,1.199,4.232,2.033c1.443,0.833,2.85,1.811,4.232,2.854
					l0.164-0.804c-1.193-0.877-2.398-1.71-3.635-2.424c-1.443-0.833-2.85-1.479-4.234-2.034l-5.178-12.679
					c-3.273-0.903-6.363-1.196-9.215-0.93l0.1,0.532C396.461,91.185,399.672,91.269,402.387,92.018z"/>
				<path fill="#FFFFFF" d="M406.934,167.603l-4.332,5.602c0.184,0.164,0.361,0.34,0.545,0.501l4.385-5.673
					C407.332,167.887,407.131,167.752,406.934,167.603z"/>
			</g>
		</g>
		<path fill="#EB4680" d="M422.607,86.102c0.064-1.338,0.982-1.922,2.053-1.305c1.07,0.618,1.885,2.203,1.822,3.541
			c-0.064,1.338-0.982,1.922-2.053,1.305C423.359,89.024,422.545,87.439,422.607,86.102z"/>
		<path fill="#EB4680" d="M416.621,246.137c0.043-0.889,0.654-1.277,1.365-0.867c0.711,0.412,1.254,1.465,1.213,2.355
			c-0.043,0.891-0.654,1.279-1.365,0.867C417.121,248.082,416.58,247.027,416.621,246.137z"/>
		<g>
			<path fill="#EB4680" d="M455.732,181.431c-0.15,0-0.295-0.068-0.393-0.189c-0.127-0.162-0.145-0.385-0.039-0.563l2.396-4.111
				c0.139-0.239,0.447-0.318,0.684-0.18c0.238,0.139,0.32,0.445,0.18,0.684l-1.752,3.004l3.537-1.09
				c0.262-0.08,0.545,0.067,0.625,0.332c0.082,0.264-0.066,0.543-0.33,0.625l-4.762,1.466
				C455.83,181.423,455.781,181.431,455.732,181.431z"/>
		</g>
		<g>
			<path fill="#D62D69" d="M414.207,199.553c1.875,1.082,3.52,3.152,4.459,5.383c0.014,0.037,1.063-0.332,1.477-0.5
				c0.924-0.375,2.121-0.23,3.432,0.525c2.922,1.688,5.289,5.771,5.289,9.123c0,6.125-10.486,8.246-10.486,8.246
				s-9.971-13.328-9.971-19.455c0-1.67-0.709-2.186,0.244-2.732c0.082-0.049,1.979-1.057,2.066-1.094
				C411.648,198.645,412.869,198.781,414.207,199.553z"/>
			<path fill="#EB4680" d="M412.441,200.506c2.035,1.176,3.801,3.516,4.684,5.961c0.885-1.424,2.648-1.727,4.684-0.553
				c2.922,1.688,5.289,5.771,5.289,9.121c0,6.127-9.973,7.941-9.973,7.941s-9.973-13.33-9.973-19.455
				C407.152,200.17,409.521,198.82,412.441,200.506z"/>
			<g>
				<path opacity="0.7" fill="#FFFFFF" d="M412.152,200.633c2.035,1.174,4.035,3.523,4.918,5.969
					c0.18-0.291-0.066-0.182,0.182-0.375c-0.918-2.326-2.607-4.516-4.553-5.639c-1.596-0.922-2.809-1.141-3.756-0.557
					C409.834,199.764,410.943,199.934,412.152,200.633z"/>
				<path opacity="0.7" fill="#FFFFFF" d="M421.949,205.891c-1.592-0.92-2.834-0.938-3.629-0.445c0.889-0.266,1.994-0.1,3.199,0.596
					c2.92,1.686,5.289,5.77,5.289,9.121c0,2.846-2.154,4.76-4.459,5.994c2.576-1.207,4.889-2.977,4.889-6.145
					C427.238,211.66,424.871,207.576,421.949,205.891z"/>
			</g>
		</g>
		<g>
			<path fill="#EB4680" d="M457.252,180.749l-0.672-0.74c5.383-4.887,8.227-12.852,8.227-23.034c0-25.341-17.967-56.33-40.051-69.08
				l0.5-0.866c22.359,12.909,40.551,44.287,40.551,69.946C465.807,167.447,462.85,175.669,457.252,180.749z"/>
		</g>
		<g>
			<g>
				<path fill="#A8CFF0" d="M473.12,163.683c-0.002,0-0.004,0-0.008,0c-0.275-0.004-0.496-0.23-0.492-0.507
					c0.006-0.329,0.008-0.661,0.008-0.995c0-0.275,0.223-0.5,0.5-0.5c0.275,0,0.5,0.225,0.5,0.5c0,0.34-0.002,0.676-0.008,1.01
					C473.616,163.464,473.394,163.683,473.12,163.683z"/>
			</g>
			<g>
				<path fill="#A8CFF0" d="M445.598,198.332c-0.275,0-0.498-0.221-0.5-0.496s0.221-0.502,0.496-0.504
					c0.65-0.004,1.307-0.031,1.949-0.08c0.273-0.021,0.516,0.188,0.537,0.463c0.02,0.275-0.188,0.514-0.463,0.535
					c-0.664,0.051-1.344,0.078-2.016,0.082C445.6,198.332,445.598,198.332,445.598,198.332z M442.623,198.217
					c-0.014,0-0.027,0-0.043-0.002c-0.658-0.055-1.326-0.131-2-0.225c-0.273-0.039-0.465-0.291-0.426-0.564s0.297-0.457,0.564-0.426
					c0.656,0.092,1.305,0.166,1.945,0.219c0.275,0.023,0.48,0.266,0.457,0.541C443.1,198.02,442.881,198.217,442.623,198.217z
					 M450.529,197.875c-0.236,0-0.445-0.168-0.49-0.41c-0.049-0.271,0.131-0.531,0.402-0.582c0.641-0.117,1.279-0.258,1.9-0.422
					c0.264-0.072,0.541,0.09,0.609,0.357c0.07,0.266-0.088,0.539-0.355,0.609c-0.645,0.17-1.309,0.318-1.975,0.439
					C450.59,197.873,450.561,197.875,450.529,197.875z M455.295,196.521c-0.199,0-0.387-0.119-0.465-0.316
					c-0.102-0.256,0.025-0.547,0.281-0.648c0.602-0.238,1.197-0.504,1.773-0.787c0.248-0.121,0.547-0.02,0.67,0.229
					c0.121,0.246,0.02,0.547-0.229,0.668c-0.6,0.297-1.221,0.572-1.846,0.82C455.42,196.51,455.357,196.521,455.295,196.521z
					 M459.686,194.24c-0.162,0-0.32-0.08-0.416-0.225c-0.152-0.23-0.09-0.541,0.141-0.693c0.541-0.357,1.072-0.74,1.578-1.137
					c0.217-0.17,0.529-0.135,0.701,0.084c0.17,0.217,0.133,0.531-0.084,0.703c-0.527,0.412-1.08,0.811-1.645,1.184
					C459.877,194.213,459.781,194.24,459.686,194.24z M463.523,191.103c-0.129,0-0.256-0.049-0.354-0.146
					c-0.195-0.194-0.195-0.512,0-0.707c0.455-0.457,0.898-0.938,1.318-1.428c0.18-0.209,0.496-0.234,0.705-0.055
					c0.211,0.18,0.234,0.495,0.055,0.705c-0.436,0.51-0.896,1.009-1.371,1.484C463.779,191.054,463.65,191.103,463.523,191.103z
					 M466.678,187.284c-0.098,0-0.197-0.028-0.283-0.087c-0.227-0.156-0.285-0.468-0.131-0.695c0.367-0.534,0.719-1.089,1.047-1.646
					c0.141-0.239,0.447-0.316,0.686-0.178c0.238,0.141,0.316,0.447,0.176,0.686c-0.34,0.576-0.703,1.149-1.082,1.702
					C466.992,187.208,466.836,187.284,466.678,187.284z M469.131,182.979c-0.072,0-0.145-0.015-0.213-0.048
					c-0.25-0.117-0.357-0.416-0.238-0.666c0.273-0.581,0.535-1.179,0.781-1.792c0.105-0.257,0.396-0.379,0.652-0.276
					c0.256,0.104,0.38,0.395,0.276,0.65c-0.255,0.631-0.524,1.246-0.806,1.846C469.498,182.872,469.318,182.979,469.131,182.979z
					 M470.929,178.358c-0.049,0-0.1-0.008-0.15-0.023c-0.264-0.082-0.409-0.363-0.326-0.627c0.193-0.615,0.375-1.243,0.545-1.885
					c0.07-0.266,0.346-0.425,0.609-0.355c0.268,0.07,0.428,0.344,0.357,0.611c-0.174,0.656-0.359,1.3-0.559,1.93
					C471.339,178.222,471.142,178.358,470.929,178.358z M472.144,173.548c-0.033,0-0.064-0.002-0.098-0.009
					c-0.271-0.053-0.447-0.315-0.395-0.587c0.123-0.634,0.236-1.279,0.336-1.936c0.043-0.273,0.293-0.457,0.57-0.418
					c0.273,0.041,0.461,0.297,0.418,0.57c-0.102,0.67-0.217,1.328-0.342,1.975C472.587,173.383,472.378,173.548,472.144,173.548z
					 M472.851,168.639c-0.018,0-0.033-0.001-0.049-0.003c-0.275-0.025-0.477-0.27-0.451-0.545c0.063-0.645,0.115-1.299,0.156-1.963
					c0.018-0.274,0.227-0.482,0.531-0.467c0.275,0.017,0.484,0.254,0.467,0.529c-0.041,0.676-0.096,1.34-0.158,1.996
					C473.321,168.445,473.104,168.639,472.851,168.639z"/>
			</g>
			<g>
				<path fill="#A8CFF0" d="M437.668,197.453c-0.035,0-0.072-0.004-0.107-0.012c-0.328-0.072-0.656-0.15-0.986-0.232
					c-0.27-0.066-0.432-0.338-0.365-0.605s0.336-0.43,0.605-0.365c0.322,0.08,0.643,0.156,0.961,0.227
					c0.27,0.059,0.439,0.326,0.381,0.596C438.104,197.293,437.898,197.453,437.668,197.453z"/>
			</g>
		</g>
		<g>
			<g>
				<path fill="#A8CFF0" d="M373.633,118.304c-0.236,0-0.447-0.169-0.49-0.411c-0.061-0.331-0.119-0.662-0.174-0.992
					c-0.045-0.271,0.139-0.529,0.412-0.575c0.268-0.049,0.529,0.138,0.574,0.411c0.055,0.326,0.111,0.651,0.172,0.979
					c0.049,0.271-0.133,0.531-0.404,0.581C373.693,118.301,373.664,118.304,373.633,118.304z"/>
			</g>
			<g>
				<path fill="#A8CFF0" d="M465.822,128.463c-0.197,0-0.385-0.119-0.465-0.313c-0.25-0.623-0.51-1.244-0.773-1.864
					c-0.109-0.255,0.01-0.548,0.264-0.656c0.256-0.108,0.547,0.009,0.656,0.264c0.266,0.626,0.527,1.253,0.781,1.882
					c0.104,0.256-0.02,0.547-0.275,0.65C465.947,128.451,465.885,128.463,465.822,128.463z M463.816,123.808
					c-0.189,0-0.371-0.108-0.455-0.292c-0.279-0.611-0.564-1.223-0.855-1.83c-0.119-0.25-0.014-0.548,0.236-0.667
					c0.248-0.119,0.547-0.013,0.666,0.235c0.293,0.613,0.582,1.229,0.863,1.846c0.113,0.252,0.004,0.549-0.248,0.663
					C463.957,123.793,463.885,123.808,463.816,123.808z M461.613,119.244c-0.182,0-0.357-0.101-0.447-0.273
					c-0.303-0.6-0.613-1.197-0.928-1.793c-0.131-0.244-0.037-0.547,0.207-0.676s0.547-0.036,0.676,0.208
					c0.318,0.601,0.631,1.202,0.938,1.808c0.125,0.246,0.027,0.547-0.219,0.672C461.768,119.227,461.689,119.244,461.613,119.244z
					 M459.225,114.775c-0.174,0-0.344-0.092-0.436-0.255c-0.33-0.587-0.664-1.171-1.002-1.753c-0.139-0.238-0.059-0.544,0.18-0.684
					c0.236-0.137,0.545-0.059,0.684,0.182c0.342,0.585,0.678,1.174,1.01,1.765c0.137,0.241,0.051,0.546-0.189,0.681
					C459.393,114.755,459.309,114.775,459.225,114.775z M373.01,114.314c-0.248,0-0.463-0.184-0.496-0.435
					c-0.088-0.676-0.17-1.351-0.242-2.022c-0.029-0.274,0.17-0.521,0.443-0.551c0.27-0.029,0.521,0.168,0.551,0.443
					c0.072,0.664,0.152,1.331,0.24,1.999c0.037,0.273-0.156,0.524-0.43,0.562C373.053,114.313,373.031,114.314,373.01,114.314z
					 M456.658,110.411c-0.168,0-0.332-0.085-0.426-0.237c-0.354-0.573-0.711-1.143-1.072-1.709c-0.148-0.232-0.08-0.541,0.152-0.69
					c0.23-0.147,0.541-0.082,0.689,0.152c0.365,0.57,0.725,1.145,1.082,1.722c0.145,0.235,0.07,0.543-0.164,0.688
					C456.838,110.387,456.748,110.411,456.658,110.411z M372.504,109.277c-0.26,0-0.479-0.202-0.498-0.467
					c-0.045-0.681-0.082-1.359-0.109-2.035c-0.01-0.276,0.205-0.509,0.48-0.52c0.008,0,0.014,0,0.02,0c0.268,0,0.49,0.211,0.5,0.48
					c0.025,0.666,0.063,1.335,0.107,2.008c0.02,0.275-0.189,0.514-0.465,0.532C372.527,109.277,372.516,109.277,372.504,109.277z
					 M453.914,106.158c-0.16,0-0.318-0.078-0.414-0.221c-0.377-0.557-0.758-1.111-1.143-1.662c-0.158-0.226-0.102-0.537,0.125-0.695
					c0.225-0.156,0.537-0.104,0.695,0.123c0.387,0.555,0.771,1.113,1.15,1.675c0.154,0.229,0.094,0.54-0.135,0.694
					C454.107,106.13,454.01,106.158,453.914,106.158z M372.344,104.219c-0.002,0-0.002,0-0.002,0
					c-0.277-0.001-0.5-0.227-0.498-0.502c0.002-0.689,0.016-1.369,0.039-2.041c0.01-0.27,0.232-0.481,0.5-0.481
					c0.006,0,0.012,0,0.02,0.001c0.275,0.01,0.49,0.241,0.48,0.518c-0.023,0.66-0.037,1.33-0.039,2.008
					C372.842,103.996,372.619,104.219,372.344,104.219z M450.998,102.023c-0.152,0-0.303-0.07-0.402-0.203
					c-0.398-0.541-0.801-1.078-1.209-1.61c-0.168-0.22-0.127-0.533,0.094-0.7c0.219-0.168,0.531-0.127,0.701,0.093
					c0.41,0.538,0.816,1.079,1.219,1.624c0.164,0.223,0.117,0.535-0.105,0.699C451.207,101.992,451.102,102.023,450.998,102.023z
					 M372.564,99.164c-0.014,0-0.029-0.001-0.043-0.002c-0.275-0.023-0.479-0.266-0.455-0.541c0.059-0.688,0.129-1.365,0.211-2.031
					c0.033-0.274,0.289-0.469,0.557-0.436c0.273,0.033,0.469,0.283,0.436,0.557c-0.08,0.654-0.148,1.32-0.207,1.996
					C373.039,98.967,372.82,99.164,372.564,99.164z M447.908,98.02c-0.145,0-0.291-0.063-0.389-0.186
					c-0.422-0.523-0.848-1.042-1.277-1.556c-0.176-0.212-0.148-0.527,0.064-0.704c0.209-0.178,0.523-0.149,0.703,0.063
					c0.434,0.519,0.863,1.042,1.289,1.57c0.172,0.215,0.139,0.529-0.076,0.703C448.129,97.984,448.02,98.02,447.908,98.02z
					 M444.65,94.156c-0.139,0-0.277-0.057-0.375-0.17c-0.445-0.504-0.893-1.002-1.344-1.494c-0.188-0.203-0.174-0.52,0.029-0.707
					c0.203-0.186,0.52-0.172,0.707,0.031c0.457,0.498,0.908,1,1.357,1.51c0.182,0.207,0.162,0.522-0.045,0.705
					C444.885,94.115,444.768,94.156,444.65,94.156z M373.23,94.148c-0.031,0-0.061-0.002-0.092-0.008
					c-0.271-0.05-0.451-0.311-0.402-0.582c0.125-0.681,0.262-1.35,0.412-2.004c0.061-0.27,0.326-0.441,0.6-0.377
					c0.27,0.063,0.438,0.33,0.375,0.6c-0.146,0.641-0.281,1.295-0.402,1.961C373.678,93.979,373.467,94.148,373.23,94.148z
					 M441.215,90.445c-0.129,0-0.26-0.051-0.357-0.152c-0.471-0.482-0.943-0.961-1.42-1.432c-0.195-0.195-0.197-0.512-0.004-0.707
					c0.193-0.197,0.51-0.198,0.707-0.004c0.48,0.476,0.959,0.957,1.434,1.445c0.191,0.198,0.188,0.516-0.01,0.707
					C441.467,90.398,441.342,90.445,441.215,90.445z M374.412,89.23c-0.047,0-0.096-0.006-0.145-0.021
					c-0.266-0.08-0.414-0.359-0.334-0.623c0.203-0.664,0.418-1.313,0.646-1.946c0.094-0.26,0.385-0.394,0.641-0.3
					c0.26,0.094,0.395,0.381,0.299,0.64c-0.223,0.618-0.432,1.251-0.629,1.897C374.826,89.092,374.627,89.23,374.412,89.23z
					 M437.6,86.901c-0.123,0-0.244-0.044-0.342-0.134c-0.492-0.459-0.988-0.912-1.488-1.357c-0.205-0.184-0.223-0.5-0.039-0.706
					c0.182-0.205,0.498-0.225,0.705-0.04c0.506,0.45,1.006,0.908,1.504,1.371c0.203,0.188,0.213,0.505,0.025,0.707
					C437.867,86.848,437.732,86.901,437.6,86.901z M376.197,84.5c-0.07,0-0.141-0.015-0.209-0.045
					c-0.252-0.115-0.361-0.412-0.246-0.664c0.289-0.631,0.594-1.244,0.914-1.84c0.131-0.244,0.436-0.334,0.678-0.204
					c0.242,0.131,0.334,0.435,0.203,0.677c-0.311,0.578-0.605,1.173-0.887,1.785C376.566,84.393,376.387,84.5,376.197,84.5z
					 M433.803,83.553c-0.113,0-0.227-0.039-0.32-0.117c-0.518-0.432-1.037-0.855-1.561-1.271c-0.217-0.172-0.252-0.486-0.08-0.703
					s0.488-0.25,0.703-0.08c0.529,0.422,1.055,0.852,1.578,1.287c0.211,0.178,0.24,0.493,0.063,0.705
					C434.088,83.491,433.945,83.553,433.803,83.553z M429.822,80.422c-0.104,0-0.207-0.031-0.297-0.098
					c-0.541-0.4-1.086-0.792-1.633-1.176c-0.227-0.158-0.281-0.47-0.123-0.695c0.158-0.229,0.469-0.281,0.697-0.123
					c0.553,0.388,1.105,0.785,1.652,1.189c0.223,0.164,0.27,0.477,0.105,0.699C430.127,80.352,429.977,80.422,429.822,80.422z
					 M378.66,80.087c-0.098,0-0.193-0.027-0.279-0.085c-0.229-0.154-0.291-0.465-0.137-0.694c0.387-0.574,0.795-1.136,1.211-1.667
					c0.17-0.217,0.484-0.256,0.703-0.084c0.217,0.17,0.254,0.484,0.084,0.701c-0.402,0.513-0.795,1.054-1.168,1.608
					C378.979,80.01,378.82,80.087,378.66,80.087z M425.658,77.546c-0.092,0-0.186-0.025-0.27-0.079
					c-0.566-0.363-1.137-0.719-1.707-1.064c-0.236-0.143-0.313-0.45-0.17-0.687c0.145-0.237,0.453-0.31,0.688-0.169
					c0.578,0.35,1.156,0.709,1.73,1.078c0.232,0.149,0.299,0.459,0.15,0.691C425.984,77.465,425.822,77.546,425.658,77.546z
					 M381.85,76.172c-0.127,0-0.254-0.049-0.352-0.145c-0.195-0.195-0.197-0.512-0.004-0.707c0.484-0.488,0.99-0.963,1.508-1.408
					c0.207-0.178,0.523-0.156,0.705,0.053c0.18,0.209,0.156,0.524-0.053,0.705c-0.496,0.428-0.984,0.883-1.449,1.354
					C382.107,76.122,381.979,76.172,381.85,76.172z M421.307,74.961c-0.082,0-0.164-0.02-0.24-0.061
					c-0.596-0.325-1.188-0.637-1.779-0.935c-0.246-0.124-0.344-0.425-0.221-0.672c0.125-0.247,0.426-0.347,0.672-0.221
					c0.6,0.303,1.201,0.619,1.807,0.948c0.242,0.133,0.332,0.436,0.201,0.679C421.654,74.867,421.482,74.961,421.307,74.961z
					 M385.748,72.959c-0.162,0-0.32-0.078-0.418-0.224c-0.152-0.229-0.088-0.54,0.141-0.692c0.574-0.38,1.168-0.738,1.77-1.066
					c0.238-0.133,0.545-0.043,0.678,0.199s0.043,0.547-0.199,0.679c-0.576,0.313-1.146,0.657-1.695,1.022
					C385.939,72.933,385.844,72.959,385.748,72.959z M416.77,72.72c-0.068,0-0.137-0.014-0.203-0.043
					c-0.619-0.274-1.236-0.532-1.85-0.777c-0.256-0.103-0.381-0.394-0.279-0.649c0.104-0.257,0.391-0.383,0.65-0.279
					c0.623,0.248,1.252,0.512,1.883,0.791c0.254,0.112,0.367,0.408,0.256,0.66C417.145,72.609,416.961,72.72,416.77,72.72z
					 M412.049,70.896c-0.053,0-0.105-0.008-0.156-0.025c-0.645-0.213-1.283-0.407-1.916-0.586c-0.266-0.074-0.42-0.351-0.346-0.616
					c0.074-0.267,0.348-0.422,0.617-0.347c0.646,0.183,1.299,0.383,1.957,0.599c0.262,0.087,0.404,0.369,0.318,0.632
					C412.453,70.763,412.258,70.896,412.049,70.896z M390.229,70.633c-0.199,0-0.389-0.121-0.467-0.318
					c-0.1-0.256,0.027-0.547,0.283-0.647c0.633-0.248,1.287-0.476,1.951-0.675c0.262-0.076,0.543,0.071,0.621,0.336
					c0.08,0.264-0.07,0.543-0.334,0.623c-0.637,0.19-1.266,0.408-1.873,0.646C390.352,70.621,390.289,70.633,390.229,70.633z
					 M407.164,69.586c-0.033,0-0.066-0.004-0.102-0.011c-0.662-0.136-1.318-0.252-1.967-0.35c-0.273-0.042-0.461-0.296-0.42-0.569
					c0.039-0.273,0.297-0.456,0.568-0.42c0.666,0.101,1.34,0.221,2.02,0.359c0.271,0.055,0.445,0.319,0.391,0.59
					C407.605,69.422,407.396,69.586,407.164,69.586z M395.09,69.271c-0.236,0-0.447-0.17-0.49-0.412
					c-0.049-0.272,0.133-0.531,0.404-0.58c0.668-0.117,1.355-0.213,2.041-0.283c0.27-0.027,0.52,0.172,0.547,0.447
					c0.029,0.275-0.172,0.521-0.445,0.549c-0.662,0.066-1.324,0.158-1.969,0.271C395.148,69.27,395.119,69.271,395.09,69.271z
					 M402.15,68.906c-0.01,0-0.021,0-0.031-0.001c-0.672-0.042-1.338-0.063-1.992-0.063c-0.277,0-0.5-0.224-0.5-0.5
					s0.223-0.5,0.5-0.5c0.676,0,1.361,0.021,2.055,0.065c0.275,0.018,0.484,0.255,0.467,0.53
					C402.633,68.703,402.412,68.906,402.15,68.906z"/>
			</g>
			<g>
				<path fill="#A8CFF0" d="M467.297,132.292c-0.203,0-0.395-0.126-0.469-0.329l-0.346-0.935c-0.096-0.259,0.035-0.547,0.295-0.644
					c0.254-0.097,0.545,0.037,0.643,0.295l0.348,0.941c0.094,0.259-0.039,0.546-0.299,0.641
					C467.412,132.282,467.354,132.292,467.297,132.292z"/>
			</g>
		</g>
		<g>
			<g>
				<path fill="#EB4680" d="M449.16,206.891c-0.197,0-0.385-0.119-0.463-0.313c-0.125-0.307-0.25-0.613-0.379-0.92
					c-0.105-0.254,0.014-0.547,0.268-0.654c0.256-0.105,0.549,0.014,0.654,0.268c0.131,0.311,0.258,0.621,0.385,0.932
					c0.104,0.256-0.021,0.547-0.277,0.65C449.287,206.879,449.223,206.891,449.16,206.891z"/>
			</g>
			<g>
				<path fill="#EB4680" d="M435.361,253.441h-0.002c-0.666-0.002-1.348-0.037-2.021-0.1c-0.275-0.027-0.477-0.271-0.451-0.545
					c0.025-0.275,0.289-0.467,0.545-0.451c0.645,0.061,1.295,0.094,1.932,0.096c0.277,0.002,0.5,0.227,0.498,0.502
					C435.861,253.219,435.637,253.441,435.361,253.441z M438.32,253.232c-0.242,0-0.455-0.178-0.492-0.426
					c-0.041-0.273,0.146-0.527,0.42-0.568c0.639-0.096,1.271-0.227,1.883-0.389c0.268-0.068,0.541,0.088,0.611,0.354
					c0.072,0.268-0.088,0.541-0.354,0.613c-0.648,0.172-1.318,0.311-1.992,0.41C438.371,253.23,438.346,253.232,438.32,253.232z
					 M430.451,252.885c-0.035,0-0.07-0.004-0.105-0.012c-0.639-0.139-1.297-0.305-1.953-0.494c-0.266-0.078-0.418-0.355-0.342-0.619
					c0.076-0.266,0.354-0.422,0.619-0.342c0.635,0.184,1.27,0.344,1.887,0.479c0.27,0.057,0.441,0.324,0.383,0.594
					C430.889,252.725,430.682,252.885,430.451,252.885z M443.045,251.814c-0.188,0-0.367-0.105-0.451-0.287
					c-0.119-0.25-0.012-0.547,0.238-0.664c0.574-0.271,1.139-0.58,1.68-0.924c0.232-0.148,0.541-0.08,0.689,0.154
					c0.148,0.232,0.078,0.543-0.154,0.689c-0.574,0.365-1.176,0.697-1.789,0.984C443.189,251.799,443.117,251.814,443.045,251.814z
					 M425.721,251.436c-0.061,0-0.123-0.01-0.184-0.033c-0.609-0.24-1.227-0.502-1.848-0.785c-0.252-0.115-0.361-0.412-0.248-0.664
					c0.115-0.252,0.414-0.359,0.664-0.246c0.604,0.275,1.203,0.531,1.797,0.764c0.258,0.102,0.385,0.391,0.283,0.648
					C426.107,251.316,425.92,251.436,425.721,251.436z M447.125,249.051c-0.135,0-0.268-0.055-0.367-0.16
					c-0.188-0.203-0.176-0.52,0.027-0.707c0.463-0.43,0.91-0.896,1.328-1.387c0.18-0.211,0.498-0.234,0.705-0.055
					c0.211,0.178,0.234,0.494,0.055,0.703c-0.441,0.52-0.916,1.014-1.408,1.471C447.369,249.006,447.246,249.051,447.125,249.051z
					 M450.234,245.217c-0.09,0-0.18-0.023-0.262-0.072c-0.234-0.145-0.309-0.451-0.166-0.688c0.33-0.539,0.643-1.109,0.928-1.695
					c0.123-0.248,0.426-0.348,0.67-0.229c0.248,0.121,0.35,0.42,0.229,0.668c-0.301,0.613-0.627,1.211-0.973,1.777
					C450.566,245.133,450.402,245.217,450.234,245.217z M452.316,240.738c-0.055,0-0.109-0.01-0.162-0.027
					c-0.262-0.09-0.4-0.375-0.311-0.635c0.205-0.602,0.395-1.227,0.563-1.861c0.07-0.266,0.34-0.43,0.611-0.355
					c0.266,0.07,0.426,0.344,0.355,0.611c-0.174,0.658-0.371,1.307-0.584,1.93C452.717,240.607,452.523,240.738,452.316,240.738z
					 M453.506,235.939c-0.027,0-0.057-0.002-0.084-0.008c-0.271-0.045-0.457-0.303-0.41-0.574c0.104-0.629,0.191-1.273,0.262-1.934
					c0.029-0.275,0.277-0.479,0.549-0.445c0.275,0.029,0.475,0.275,0.445,0.551c-0.072,0.68-0.162,1.344-0.27,1.992
					C453.957,235.766,453.744,235.939,453.506,235.939z M453.973,231.014c-0.006,0-0.012,0-0.018,0
					c-0.275-0.01-0.492-0.24-0.482-0.518c0.014-0.447,0.021-0.904,0.021-1.365l-0.004-0.592c-0.004-0.275,0.217-0.504,0.492-0.508
					c0.277,0.035,0.504,0.217,0.508,0.494l0.004,0.605c0,0.473-0.008,0.939-0.021,1.398
					C454.463,230.799,454.24,231.014,453.973,231.014z M453.857,226.063c-0.26,0-0.479-0.199-0.498-0.461
					c-0.049-0.648-0.109-1.301-0.184-1.955c-0.031-0.275,0.166-0.521,0.441-0.553c0.27-0.033,0.521,0.166,0.553,0.441
					c0.074,0.666,0.137,1.33,0.188,1.99c0.02,0.275-0.186,0.516-0.461,0.537C453.883,226.063,453.869,226.063,453.857,226.063z
					 M453.258,221.146c-0.238,0-0.451-0.174-0.492-0.418c-0.107-0.643-0.227-1.287-0.355-1.932c-0.055-0.271,0.121-0.535,0.391-0.59
					c0.268-0.053,0.535,0.121,0.59,0.393c0.131,0.656,0.252,1.311,0.361,1.963c0.047,0.273-0.139,0.531-0.41,0.576
					C453.314,221.145,453.285,221.146,453.258,221.146z M452.244,216.299c-0.225,0-0.428-0.15-0.486-0.377
					c-0.158-0.635-0.326-1.27-0.506-1.902c-0.076-0.266,0.08-0.543,0.346-0.617c0.264-0.074,0.541,0.08,0.617,0.346
					c0.182,0.643,0.352,1.287,0.514,1.93c0.066,0.268-0.096,0.539-0.363,0.607C452.324,216.295,452.283,216.299,452.244,216.299z
					 M450.863,211.541c-0.209,0-0.404-0.133-0.475-0.344c-0.205-0.621-0.418-1.24-0.641-1.861c-0.092-0.26,0.043-0.547,0.303-0.639
					s0.547,0.041,0.639,0.301c0.225,0.629,0.441,1.258,0.648,1.887c0.088,0.262-0.055,0.545-0.318,0.631
					C450.969,211.533,450.916,211.541,450.863,211.541z"/>
			</g>
			<g>
				<path fill="#EB4680" d="M421.211,249.311c-0.082,0-0.164-0.02-0.24-0.061c-0.293-0.162-0.586-0.326-0.881-0.496
					c-0.24-0.139-0.322-0.443-0.186-0.684c0.139-0.24,0.445-0.322,0.684-0.184c0.289,0.166,0.576,0.328,0.863,0.486
					c0.242,0.133,0.332,0.436,0.199,0.678C421.559,249.217,421.387,249.311,421.211,249.311z"/>
			</g>
		</g>
		<g>
			<path fill="#EB4680" d="M447.977,207.381c-0.01,0-0.02,0-0.031,0c-0.275-0.018-0.484-0.256-0.467-0.531l0.166-2.666
				c0.012-0.184,0.121-0.346,0.287-0.422c0.168-0.076,0.363-0.059,0.51,0.051l2.25,1.668c0.221,0.164,0.268,0.477,0.104,0.699
				c-0.164,0.221-0.477,0.268-0.699,0.104l-1.512-1.119l-0.107,1.748C448.459,207.178,448.24,207.381,447.977,207.381z"/>
		</g>
	</g>
	<path fill="#FFFFFF" d="M266.505,118.766c-0.018-3.283-4.642-5.953-10.327-5.963c-5.687-0.01-10.281,2.643-10.264,5.926
		c0.016,3.004,3.894,5.488,8.909,5.896l0.009,1.664c-0.95,0.146-1.652,0.641-1.649,1.236l0.031,5.68
		c0.004,0.712,1.006,1.29,2.237,1.293l1.688,0.002c1.231,0.003,2.228-0.572,2.224-1.283l-0.031-5.68
		c-0.003-0.596-0.71-1.094-1.663-1.242l-0.009-1.664C262.671,124.24,266.522,121.77,266.505,118.766z"/>
	<g>
		<path fill="#D1EBFF" d="M391.139,351.17L212.372,247.898c-6.921-3.996-12.531-14.717-12.531-23.943V61.331
			c0-9.228,5.61-13.47,12.531-9.474l178.767,103.271c6.92,3.996,12.531,14.716,12.531,23.944v162.622
			C403.67,350.924,398.059,355.166,391.139,351.17z"/>
		<path fill="#3F92D1" d="M396.094,152.568L217.327,49.297c-2.738-1.58-5.271-1.872-7.333-1.076
			c-0.262,0.102-5.159,2.632-5.405,2.768c-0.007,0.004-0.012,0.008-0.012,0.008c2.135-1.037,4.843-0.844,7.795,0.861
			l178.767,103.271c6.92,3.996,12.531,14.716,12.531,23.944v162.622c0,5.76-2.186,9.576-5.512,10.66
			c0.271,0.016,0.609-0.092,1.098-0.373c0.158-0.092,5.355-2.904,5.506-3.012c2.381-1.666,3.863-5.092,3.863-9.836V176.513
			C408.625,167.284,403.014,156.564,396.094,152.568z"/>
		<path fill="#4F9FDB" d="M394.689,153.242L215.923,49.971c-2.738-1.581-5.271-1.873-7.333-1.076
			c-0.262,0.102-3.756,1.958-4.002,2.094c-0.007,0.004-0.012,0.008-0.012,0.008c2.135-1.037,4.843-0.844,7.795,0.861
			l178.767,103.271L394.689,153.242z"/>
		<path fill="#FFFFFF" d="M391.74,154.828L212.973,51.557c-2.838-1.639-5.447-1.872-7.548-0.965c1.793-0.283,3.852,0.15,6.044,1.416
			l178.767,103.271c6.92,3.996,12.531,14.716,12.531,23.944v162.622c0,5.443-1.961,9.133-4.984,10.439
			c3.867-0.613,6.488-4.586,6.488-10.891V178.772C404.271,169.544,398.66,158.824,391.74,154.828z"/>
		<path fill="#03336E" d="M206.878,75.79v148.163c0,7.238,3.445,14.311,9.015,17.852l176.859,102.156
			c0.066,0.039,0.166,0.096,0.293,0.168c1.598,0.91,3.586-0.242,3.586-2.08V185.407L206.878,75.79z"/>
		<path fill="#001A46" d="M396.379,342.797c-0.127-0.072-0.229-0.131-0.293-0.168l-176.86-102.158
			c-5.569-3.539-9.015-10.613-9.015-17.85V77.715l-3.333-1.925v148.163c0,7.238,3.445,14.311,9.015,17.852l176.859,102.156
			c0.066,0.039,0.166,0.096,0.293,0.168c1.352,0.77,2.967,0.057,3.439-1.289C396.449,342.82,396.412,342.816,396.379,342.797z"/>
		<g>
			<path fill="#FFCC00" d="M386.676,167.617c0,2.186,1.545,4.849,3.449,5.948s3.449,0.22,3.449-1.966
				c0-2.187-1.545-4.849-3.449-5.948C388.221,164.551,386.676,165.431,386.676,167.617z"/>
			<path fill="#EB4680" d="M377.781,162.45c0,2.186,1.543,4.849,3.449,5.948c1.904,1.1,3.447,0.22,3.447-1.966
				s-1.543-4.85-3.447-5.949C379.324,159.384,377.781,160.264,377.781,162.45z"/>
			<path fill="#0FBAB8" d="M368.885,157.282c0,2.186,1.545,4.85,3.449,5.949s3.449,0.219,3.449-1.967s-1.545-4.849-3.449-5.948
				S368.885,155.097,368.885,157.282z"/>
		</g>
	</g>
	<path fill="#72B5E8" d="M323.523,152.344l-12.972-7.49c-1.311-0.756-2.373-0.15-2.373,1.354s1.063,3.336,2.373,4.093l12.972,7.489
		c1.311,0.756,2.373,0.15,2.373-1.354S324.833,153.1,323.523,152.344z M344.879,164.673l-12.973-7.489
		c-1.31-0.756-2.373-0.15-2.373,1.354s1.063,3.335,2.373,4.093l12.973,7.488c1.311,0.757,2.373,0.151,2.373-1.353
		S346.189,165.429,344.879,164.673z M366.234,177.003l-12.973-7.49c-1.311-0.756-2.373-0.15-2.373,1.354s1.063,3.336,2.373,4.093
		l12.973,7.489c1.311,0.756,2.373,0.15,2.373-1.354S367.545,177.759,366.234,177.003z M387.59,189.332l-12.973-7.489
		c-1.311-0.757-2.373-0.15-2.373,1.354s1.063,3.335,2.373,4.092l12.973,7.489c1.311,0.758,2.371,0.152,2.371-1.352
		S388.9,190.089,387.59,189.332z"/>
	<g>
		<g>
			<polygon fill="#2672AB" points="272.054,163.048 272.054,218.871 278.16,215.297 278.16,159.314 			"/>
			<polygon fill="#3F92D1" points="272.077,163.048 272.077,218.871 150.281,149.025 150.281,93.043 			"/>
			<polygon fill="#72B5E8" points="150.281,93.043 272.077,163.048 278.16,159.314 156.325,89.365 			"/>
			<polygon opacity="0.7" fill="#FFFFFF" points="150.281,93.043 272.077,163.048 278.16,159.314 272.06,162.197 			"/>
		</g>
		<g>
			<polygon fill="#FFFFFF" points="254.239,198.625 254.239,196.254 215.799,174.402 215.799,176.772 			"/>
			<polygon fill="#FFFFFF" points="199.153,130.314 199.153,132.686 263.766,169.649 263.766,167.278 			"/>
			<polygon fill="#FFFFFF" points="221.903,163.15 199.153,150.016 199.153,152.386 221.903,165.521 			"/>
			<polygon fill="#FFFFFF" points="237.299,181.89 237.299,184.26 246.697,189.345 246.697,186.975 			"/>
			<polygon fill="#FFFFFF" points="235.84,161.348 199.153,140.166 199.153,142.535 235.84,163.718 			"/>
			<polygon fill="#FFFFFF" points="212.59,152.85 199.153,145.09 199.153,147.461 212.59,155.219 			"/>
			<polygon fill="#FFFFFF" points="209.174,168.022 234.965,182.913 234.965,180.542 209.174,165.651 			"/>
			<polygon fill="#FFFFFF" points="214.924,154.196 214.924,156.566 251.134,177.132 251.134,174.761 			"/>
			<polygon fill="#FFFFFF" points="224.237,164.498 224.237,166.868 242.34,177.321 242.34,174.95 			"/>
			<polygon fill="#FFFFFF" points="206.84,164.305 199.153,159.866 199.153,162.236 206.84,166.675 			"/>
			<polygon fill="#FFFFFF" points="238.174,165.065 263.766,179.499 263.766,177.129 238.174,162.694 			"/>
			<polygon fill="#FFFFFF" points="253.468,178.479 263.766,184.425 263.766,182.054 253.468,176.108 			"/>
			<polygon fill="#FFFFFF" points="199.153,137.61 263.766,174.573 263.766,172.204 199.153,135.24 			"/>
			<polygon fill="#FFFFFF" points="244.674,178.667 263.766,189.35 263.766,186.979 244.674,176.298 			"/>
			<polygon fill="#FFFFFF" points="213.465,173.055 199.153,164.791 199.153,167.161 213.465,175.425 			"/>
			<polygon fill="#FFFFFF" points="256.572,199.973 263.766,204.125 263.766,201.756 256.572,197.602 			"/>
			<polygon fill="#FFFFFF" points="249.031,190.692 263.766,199.199 263.766,196.83 249.031,188.322 			"/>
			<polygon fill="#FFFFFF" points="199.153,157.311 263.766,194.275 263.766,191.904 199.153,154.941 			"/>
		</g>
		<path fill="#2672AB" d="M185.652,120.941l-21.242-12.289c-3.714-2.144-6.724,0.133-6.724,5.084v24.588
			c0,4.951,3.01,10.704,6.724,12.848l21.242,12.288c3.714,2.145,6.725-0.131,6.725-5.083v-24.588
			C192.376,128.838,189.366,123.085,185.652,120.941z"/>
		<path fill="#084C94" d="M188.277,161.46l-21.242-12.288c-3.714-2.144-6.724-7.896-6.724-12.848v-24.588
			c0-1.566,0.302-2.861,0.831-3.838c-2.062,0.342-3.456,2.469-3.456,5.838v24.588c0,4.951,3.01,10.704,6.724,12.848l21.242,12.288
			c2.54,1.467,4.749,0.863,5.893-1.246C190.577,162.374,189.463,162.146,188.277,161.46z"/>
		<g>
			<path fill="#0FBAB8" d="M169.152,127.816l-21.241-12.289c-3.715-2.144-6.725,0.133-6.725,5.084v24.588
				c0,4.951,3.01,10.704,6.725,12.848l21.241,12.288c3.714,2.145,6.725-0.131,6.725-5.083v-24.588
				C175.876,135.713,172.866,129.96,169.152,127.816z"/>
			<path fill="#0BA19F" d="M172.618,125.784l-21.242-12.288c-1.59-0.918-3.05-1.021-4.201-0.454l-0.036-0.04l-3.675,2.158
				l0.014,0.045c1.184-0.705,2.732-0.659,4.434,0.322l21.241,12.288c3.714,2.145,6.725,7.896,6.725,12.849v24.588
				c0,2.406-0.715,4.174-1.872,5.116l2.049-1.35c1.723-0.988,3.288-2.523,3.288-5.799v-24.587
				C179.341,133.681,176.331,127.928,172.618,125.784z"/>
			<path opacity="0.7" fill="#FFFFFF" d="M169.53,127.501l-21.242-12.288c-1.845-1.064-3.515-1.037-4.729-0.135
				c1.103-0.418,2.45-0.268,3.911,0.576l21.242,12.287c3.714,2.145,6.725,7.896,6.725,12.849v24.588
				c0,2.492-0.764,4.305-1.994,5.219c1.7-0.646,2.813-2.656,2.813-5.66V140.35C176.254,135.397,173.244,129.646,169.53,127.501z"/>
			<path fill="#FFFFFF" d="M146.821,122.313v28.146l23.036,13.306v-28.146L146.821,122.313z M168.38,161.208l-20.083-11.602v-24.735
				l20.083,11.6V161.208z"/>
			<path fill="#FFFFFF" d="M164.796,140.623c0,1.844-1.304,2.586-2.91,1.658s-2.909-3.175-2.909-5.02
				c0-1.844,1.303-2.586,2.909-1.658S164.796,138.778,164.796,140.623z"/>
			<polygon fill="#FFFFFF" points="147.592,142.981 153.59,135.23 159.68,150.641 164.11,147.041 169,160.329 168.908,161.675 
				147.684,150.324 			"/>
		</g>
	</g>
	<g>
		<g>
			<path fill="#FFCC00" d="M428.643,144.04c0,3.825-1.318,6.534-3.465,7.845c-0.064,0.039-3.666,2.273-3.732,2.311
				c-2.232,1.248-0.805-1.584-4.193-3.542c-6.824-3.939-12.355-13.48-12.355-21.311c0-3.872-3.58-3.903-1.387-5.196
				c0.061-0.035,4.092-2.337,4.154-2.371c2.227-1.205,5.27-0.983,8.625,0.954C423.111,126.669,428.643,136.21,428.643,144.04z"/>
			<path fill="#FFFFFF" d="M412.838,124.842c-3.27-1.889-6.242-2.143-8.451-1.037c2.059-0.576,4.615-0.146,7.385,1.453
				c6.824,3.939,12.355,13.48,12.355,21.311c0,4.076-1.502,6.881-3.902,8.082c3.016-0.844,4.969-3.846,4.969-8.498
				C425.193,138.322,419.662,128.781,412.838,124.842z"/>
			<path fill="#FFD70F" d="M424.602,146.449c0,7.83-5.531,10.983-12.355,7.044s-12.355-13.48-12.355-21.311
				c0-7.829,5.531-10.983,12.355-7.044S424.602,138.619,424.602,146.449z"/>
		</g>
		<path fill="#D99F00" d="M410.035,134.238c0,1.1-0.777,1.543-1.734,0.99c-0.959-0.555-1.736-1.895-1.736-2.995
			s0.777-1.544,1.736-0.989C409.258,131.797,410.035,133.138,410.035,134.238z"/>
		<path fill="#D99F00" d="M417.059,138.292c0,1.101-0.777,1.544-1.736,0.989c-0.959-0.553-1.736-1.894-1.736-2.994
			c0-1.1,0.777-1.543,1.736-0.99C416.281,135.852,417.059,137.191,417.059,138.292z"/>
		<path fill="#D99F00" d="M405.25,138.77l1.619,0.273c0.746,2.838,2.744,5.607,4.971,6.894c2.162,1.248,4.139,0.837,4.92-1.023
			l1.604,1.639c-1.037,2.466-3.658,3.011-6.523,1.357C408.889,146.205,406.24,142.531,405.25,138.77z"/>
		<path fill="#B08100" d="M408.807,134.873c-0.959-0.554-1.736-1.895-1.736-2.994c0-0.359,0.09-0.639,0.234-0.847
			c-0.447,0.103-0.74,0.526-0.74,1.201c0,1.101,0.777,2.44,1.736,2.995c0.646,0.373,1.203,0.284,1.502-0.145
			C409.52,135.148,409.178,135.088,408.807,134.873z"/>
		<path fill="#B08100" d="M415.828,138.927c-0.959-0.554-1.736-1.895-1.736-2.995c0-0.357,0.09-0.639,0.234-0.846
			c-0.447,0.104-0.74,0.527-0.74,1.201c0,1.1,0.777,2.441,1.736,2.994c0.646,0.373,1.203,0.285,1.502-0.144
			C416.541,139.203,416.199,139.141,415.828,138.927z"/>
		<g>
			<path fill="#B08100" d="M416.959,145.117l-0.199-0.204c-0.184,0.438-0.438,0.788-0.74,1.062
				C416.387,145.778,416.707,145.492,416.959,145.117z"/>
			<path fill="#B08100" d="M412.348,147.555c-2.83-1.635-5.379-5.08-6.455-8.677l-0.643-0.108c0.99,3.762,3.639,7.436,6.59,9.14
				c2.158,1.245,4.176,1.243,5.484,0.114C416.029,148.774,414.244,148.648,412.348,147.555z"/>
		</g>
	</g>
	<g>
		<g>
			<polygon fill="#2672AB" points="422.572,266.844 422.572,335.018 428.678,331.443 428.678,263.111 			"/>
			<polygon fill="#3F92D1" points="422.596,266.844 422.596,335.018 289.299,258.58 289.299,190.246 			"/>
			<polygon fill="#72B5E8" points="289.299,190.246 422.596,266.844 428.678,263.111 295.342,186.569 			"/>
			<polygon opacity="0.7" fill="#FFFFFF" points="289.299,190.246 422.596,266.844 428.678,263.111 422.578,265.994 			"/>
		</g>
		<path fill="#2672AB" d="M414.502,296.695c0,13.256-9.365,18.596-20.916,11.926c-11.553-6.67-20.918-22.822-20.918-36.078
			s9.365-18.596,20.918-11.926C405.137,267.287,414.502,283.439,414.502,296.695z"/>
		<path fill="#084C94" d="M395.586,306.871c-11.553-6.67-20.918-22.822-20.918-36.078c0-4.945,1.305-8.787,3.539-11.316
			c-3.438,2.291-5.539,6.789-5.539,13.066c0,13.256,9.365,29.408,20.918,36.078c7.24,4.182,13.623,3.643,17.377-0.607
			C407.141,310.563,401.668,310.383,395.586,306.871z"/>
		<g>
			<path fill="#2672AB" d="M334.877,227.686l-4.498-2.598v50.684l4.498,2.598V227.686z M341.354,225.143l-4.496-2.596v56.908
				l4.496,2.598V225.143z M348.021,236.592l-4.496-2.596v49.27l4.496,2.596V236.592z M317.044,240.162v27.768l4.497,2.596v-27.768
				L317.044,240.162z M328.209,232.443l-4.497-2.596v41.893l4.497,2.596V232.443z M354.563,250.664l-4.496-2.598v39.01l4.496,2.596
				V250.664z M360.977,266.748l-4.498-2.596v26.67l4.498,2.596V266.748z M314.873,235.35l-4.498-2.598v31.156l4.498,2.598V235.35z
				 M297.04,237.189v18.877l4.497,2.596v-18.877L297.04,237.189z M308.205,229.785l-4.497-2.598v32.689l4.497,2.596V229.785z"/>
			<path fill="#A8CFF0" d="M334.877,247.58l-4.498-2.598v30.789l4.498,2.598V247.58z M341.354,233.582l-4.496-2.598v48.471
				l4.496,2.598V233.582z M348.021,245.59l-4.496-2.598v40.273l4.496,2.596V245.59z M317.044,246.908v21.021l4.497,2.596v-21.02
				L317.044,246.908z M328.209,246.084l-4.497-2.596v28.252l4.497,2.596V246.084z M314.873,237.898l-4.498-2.598v28.607l4.498,2.598
				V237.898z M297.04,250.6v5.467l4.497,2.596v-5.467L297.04,250.6z M308.205,250.609l-4.497-2.596v11.863l4.497,2.596V250.609z
				 M354.563,257.924l-4.496-2.598v31.75l4.496,2.596V257.924z M360.977,270.705l-4.498-2.598v22.715l4.498,2.596V270.705z"/>
			<g>
				<polygon fill="#FFFFFF" points="348.021,246.15 343.525,243.555 343.525,242.992 348.021,245.59 				"/>
				<polygon fill="#FFFFFF" points="341.354,234.143 336.857,231.547 336.857,230.984 341.354,233.582 				"/>
				<polygon fill="#FFFFFF" points="360.977,271.266 356.479,268.67 356.479,268.107 360.977,270.705 				"/>
				<polygon fill="#FFFFFF" points="334.877,248.141 330.379,245.545 330.379,244.982 334.877,247.58 				"/>
				<polygon fill="#FFFFFF" points="354.563,258.486 350.066,255.889 350.066,255.326 354.563,257.924 				"/>
				<polygon fill="#FFFFFF" points="308.205,251.172 303.708,248.576 303.708,248.014 308.205,250.609 				"/>
				<polygon fill="#FFFFFF" points="314.873,238.459 310.375,235.863 310.375,235.301 314.873,237.898 				"/>
				<polygon fill="#FFFFFF" points="301.537,253.195 301.537,253.758 297.04,251.16 297.04,250.6 				"/>
				<polygon fill="#FFFFFF" points="328.209,246.646 323.712,244.049 323.712,243.488 328.209,246.084 				"/>
				<polygon fill="#FFFFFF" points="321.542,250.066 317.044,247.471 317.044,246.908 321.542,249.506 				"/>
			</g>
		</g>
		<g>
			<g>
				<path fill="#FFCC00" d="M373.008,275.756c0.275-10.02,7.557-14.002,16.492-8.844c4.6,2.656,8.762,7.232,11.76,12.455
					l3.297-0.828c-3.756-6.811-9.113-12.818-15.057-16.25c-11.244-6.492-20.402-1.359-20.541,11.428l2.637,2.395L373.008,275.756z"
					/>
				<path fill="#FFCC00" d="M397.781,307.021c-2.438,0.223-5.262-0.457-8.281-2.201c-8.463-4.885-15.451-16.266-16.398-26.236
					l-4.033-2.033c0.006,0.072-1.348,0.348-1.342,0.42c1.166,12.412,11.236,26.391,21.773,32.473
					c3.826,2.211,6.416,3.371,9.488,3.045c0.129-0.014,1.25-0.332,1.377-0.35L397.781,307.021z"/>
				<path fill="#FFCC00" d="M402.82,282.396c2.002,4.291,3.197,8.832,3.197,13.008c0,5.988-2.439,9.92-6.23,11.207l2.553,5.055
					c4.695-1.613,7.707-6.508,7.707-13.936c0-5.186-1.469-10.828-3.949-16.158L402.82,282.396z"/>
			</g>
			<path fill="#FFCC00" d="M395.172,290.703c-1.107-0.943-2.105-2.145-2.896-3.469c-0.479-0.801-0.463-1.672,0.004-1.941
				c0.602-0.352,1.133-0.91,1.479-1.65c0.508,0.141,1.137-0.047,1.137-0.742c0-0.711-0.314-1.484-0.732-1.875
				c-0.125-3.039-1.162-6.162-4.658-8.18c-1.223-0.707-2.145-0.93-2.832-0.799c-0.16,0.029-1.545,0.395-1.682,0.463
				c-0.947,0.471-0.074,1.488-0.145,3.137c-0.42-0.094-0.734,0.318-0.734,1.027c0,0.697,0.631,1.611,1.139,2.057
				c0.346,1.141,0.875,2.311,1.479,3.357c0.465,0.809,0.482,1.697,0.004,1.947c-0.791,0.41-1.791,0.457-2.896,0.123
				c-0.445-0.135-0.855-0.146-1.211-0.049c-0.102,0.027-1.348,0.352-1.439,0.396c-0.65,0.324,0.092,0.799,0.092,1.9v3.135
				c0,0.607,0.428,1.348,0.957,1.652l13.432,8.891c0.232,0.133,1.551-0.336,1.717-0.398c0.213-0.078,0.348-0.305,0.348-0.646v-3.133
				C397.73,294.098,396.639,291.953,395.172,290.703z"/>
			<g>
				<path fill="#FFFFFF" d="M372.105,276.016c0.273-10.02,7.557-14.004,16.492-8.846c4.6,2.656,8.762,7.232,11.76,12.457l3.297-0.83
					c-3.756-6.811-9.115-12.818-15.057-16.25c-11.244-6.492-20.404-1.359-20.541,11.428L372.105,276.016z"/>
				<path fill="#FFFFFF" d="M396.879,307.279c-2.438,0.223-5.262-0.457-8.281-2.199c-8.463-4.887-15.451-16.266-16.4-26.238
					l-4.033-2.033c1.084,12.465,9.834,26.773,20.434,32.893c3.986,2.303,7.711,3.139,10.865,2.695L396.879,307.279z"/>
				<path fill="#FFFFFF" d="M401.918,282.654c2,4.291,3.197,8.832,3.197,13.008c0,5.988-2.439,9.92-6.23,11.207l2.553,5.055
					c4.693-1.613,7.707-6.508,7.707-13.936c0-5.186-1.469-10.828-3.951-16.158L401.918,282.654z"/>
			</g>
			<path fill="#FFFFFF" d="M394.268,290.961c-1.105-0.943-2.105-2.145-2.896-3.469c-0.479-0.801-0.461-1.67,0.004-1.941
				c0.604-0.352,1.133-0.91,1.479-1.65c0.508,0.141,1.139-0.047,1.139-0.742c0-0.711-0.314-1.484-0.734-1.875
				c-0.123-3.039-1.162-6.162-4.658-8.18c-3.496-2.02-4.533-0.094-4.658,2.801c-0.418-0.094-0.732,0.318-0.732,1.027
				c0,0.697,0.629,1.611,1.137,2.057c0.346,1.141,0.877,2.311,1.479,3.357c0.467,0.809,0.484,1.697,0.004,1.947
				c-0.791,0.41-1.789,0.457-2.896,0.123c-1.467-0.443-2.559,0.441-2.559,2.25v3.133c0,0.607,0.43,1.348,0.959,1.652l14.537,8.393
				c0.529,0.307,0.957,0.061,0.957-0.547v-3.133C396.826,294.357,395.736,292.211,394.268,290.961z"/>
			<g>
				<path fill="#FFDE17" d="M371.59,276.145c0.273-10.02,7.557-14.004,16.492-8.846c4.6,2.656,8.762,7.232,11.76,12.457l3.295-0.83
					c-3.754-6.811-9.113-12.818-15.055-16.25c-11.244-6.49-20.404-1.359-20.541,11.428L371.59,276.145z"/>
				<path fill="#FFDE17" d="M396.363,307.408c-2.439,0.223-5.262-0.457-8.281-2.199c-8.465-4.887-15.451-16.266-16.4-26.238
					l-4.033-2.033c1.084,12.465,9.834,26.773,20.434,32.895c3.986,2.301,7.711,3.137,10.865,2.693L396.363,307.408z"/>
				<path fill="#FFDE17" d="M401.402,282.783c2,4.291,3.197,8.832,3.197,13.008c0,5.988-2.439,9.92-6.232,11.207l2.555,5.057
					c4.693-1.615,7.707-6.51,7.707-13.938c0-5.186-1.471-10.828-3.951-16.158L401.402,282.783z"/>
			</g>
			<path fill="#FFDE17" d="M393.752,291.09c-1.107-0.943-2.105-2.145-2.896-3.469c-0.479-0.801-0.461-1.67,0.004-1.941
				c0.604-0.352,1.133-0.91,1.479-1.65c0.508,0.141,1.139-0.047,1.139-0.742c0-0.711-0.314-1.484-0.734-1.875
				c-0.123-3.039-1.162-6.162-4.658-8.18c-3.496-2.02-4.533-0.094-4.658,2.801c-0.42-0.092-0.732,0.318-0.732,1.027
				c0,0.697,0.629,1.611,1.137,2.057c0.346,1.141,0.877,2.311,1.479,3.357c0.467,0.809,0.482,1.697,0.004,1.947
				c-0.791,0.41-1.789,0.457-2.896,0.123c-1.467-0.443-2.559,0.441-2.559,2.25v3.133c0,0.607,0.43,1.348,0.959,1.652l14.535,8.393
				c0.529,0.307,0.959,0.063,0.959-0.545v-3.135C396.311,294.486,395.221,292.34,393.752,291.09z"/>
		</g>
	</g>
	<g>
		<g>
			<polygon fill="#0BA19F" points="290.039,249.715 290.039,278.262 294.827,275.631 294.827,246.924 			"/>
			<polygon fill="#0FBAB8" points="290.061,249.715 290.061,278.262 184.418,217.271 184.418,188.563 			"/>
			<polygon fill="#3ECFCD" points="184.418,188.563 290.061,249.715 294.827,246.924 189.144,185.83 			"/>
			<polygon opacity="0.7" fill="#FFFFFF" points="184.418,188.563 290.061,249.715 294.827,246.924 290.16,248.965 			"/>
		</g>
		<polygon fill="#FFFFFF" points="284.69,269.617 189.631,214.139 189.631,197.316 284.69,252.797 		"/>
		<g>
			<path fill="#084C94" d="M193.615,202.07l1.923,1.111l0.889,9.182l0.036,0.021l0.943-8.125l2.176,1.256l0.943,9.215l0.036,0.02
				l0.889-8.154l1.724,0.994l-1.288,11.297l-2.484-1.436l-0.907-7.818l-0.036-0.02l-0.907,6.771l-2.647-1.529L193.615,202.07z"/>
			<path fill="#084C94" d="M204.995,208.686l1.923,1.111l0.889,9.182l0.036,0.021l0.943-8.125l2.176,1.256l0.943,9.215l0.036,0.02
				l0.889-8.154l1.723,0.994l-1.287,11.297l-2.485-1.436l-0.906-7.818l-0.036-0.02L208.93,223l-2.648-1.529L204.995,208.686z"/>
			<path fill="#084C94" d="M216.465,215.211l1.923,1.109l0.889,9.182l0.036,0.021l0.943-8.125l2.177,1.258l0.942,9.213l0.036,0.021
				l0.889-8.156l1.724,0.994l-1.288,11.297l-2.484-1.434l-0.907-7.818l-0.036-0.021l-0.907,6.771l-2.647-1.529L216.465,215.211z"/>
		</g>
	</g>
	<g>
		<g>
			<polygon fill="#FFCC00" points="232.381,102.793 232.381,122.7 235.384,121.047 235.384,100.984 			"/>
			<polygon fill="#FFD70F" points="232.404,102.793 232.404,122.7 214.682,112.462 214.682,92.399 			"/>
			<polygon fill="#FFDE17" points="214.682,92.399 232.404,102.793 235.384,100.984 217.624,90.646 			"/>
			<polygon fill="#FFFFFF" points="214.682,92.399 232.404,102.793 235.384,100.984 232.253,101.834 			"/>
		</g>
		<g>
			<polygon fill="#D62D69" points="247.964,96.152 247.964,128.389 252.827,125.711 252.827,93.225 			"/>
			<polygon fill="#F76195" points="219.303,79.323 248,96.152 252.827,93.225 224.067,76.483 			"/>
			<polygon opacity="0.7" fill="#FFFFFF" points="219.303,79.323 248,96.152 252.827,93.225 248.13,95.461 			"/>
		</g>
		<polygon fill="#EB4680" points="219.303,79.323 219.303,92.693 234.491,101.6 234.491,120.584 248,128.389 248,96.152 		"/>
	</g>
	<g>
		<g>
			<polygon fill="#0BA19F" points="309.303,173.995 309.303,196.252 312.66,194.402 312.66,171.973 			"/>
			<polygon fill="#0FBAB8" points="309.328,173.995 309.328,196.252 289.515,184.804 289.515,162.376 			"/>
			<polygon fill="#3ECFCD" points="289.515,162.376 309.328,173.995 312.66,171.973 292.804,160.415 			"/>
			<polygon opacity="0.7" fill="#FFFFFF" points="289.515,162.376 309.328,173.995 312.66,171.973 309.16,172.923 			"/>
		</g>
		<g>
			<polygon fill="#0BA19F" points="335.303,188.994 335.303,211.252 338.66,209.402 338.66,186.973 			"/>
			<polygon fill="#0FBAB8" points="335.328,188.994 335.328,211.252 315.515,199.805 315.515,177.376 			"/>
			<polygon fill="#3ECFCD" points="315.515,177.376 335.328,188.994 338.66,186.973 318.804,175.415 			"/>
			<polygon opacity="0.7" fill="#FFFFFF" points="315.515,177.376 335.328,188.994 338.66,186.973 335.16,187.922 			"/>
		</g>
		<g>
			<polygon fill="#0BA19F" points="361.137,203.828 361.137,226.084 364.494,224.236 364.494,201.807 			"/>
			<polygon fill="#0FBAB8" points="361.16,203.828 361.16,226.084 341.35,214.639 341.35,192.209 			"/>
			<polygon fill="#3ECFCD" points="341.35,192.209 361.16,203.828 364.494,201.807 344.637,190.248 			"/>
			<polygon opacity="0.7" fill="#FFFFFF" points="341.35,192.209 361.16,203.828 364.494,201.807 360.994,202.756 			"/>
		</g>
		<g>
			<polygon fill="#0BA19F" points="386.637,218.328 386.637,240.584 389.994,238.736 389.994,216.307 			"/>
			<polygon fill="#0FBAB8" points="386.66,218.328 386.66,240.584 366.85,229.139 366.85,206.709 			"/>
			<polygon fill="#3ECFCD" points="366.85,206.709 386.66,218.328 389.994,216.307 370.137,204.748 			"/>
			<polygon opacity="0.7" fill="#FFFFFF" points="366.85,206.709 386.66,218.328 389.994,216.307 386.494,217.256 			"/>
		</g>
		<path fill="#FFFFFF" d="M355.205,213.254c-0.701-0.598-1.332-1.355-1.834-2.193c-0.303-0.508-0.291-1.059,0.004-1.23
			c0.381-0.221,0.717-0.574,0.936-1.043c0.32,0.088,0.719-0.029,0.719-0.471c0-0.449-0.199-0.939-0.463-1.186
			c-0.08-1.924-0.736-3.9-2.949-5.178c-2.211-1.277-2.867-0.059-2.947,1.773c-0.266-0.059-0.463,0.201-0.463,0.65
			c0,0.441,0.398,1.02,0.719,1.301c0.219,0.721,0.555,1.463,0.936,2.125c0.295,0.512,0.307,1.074,0.002,1.232
			c-0.5,0.26-1.131,0.289-1.832,0.078c-0.928-0.281-1.619,0.279-1.619,1.422v1.984c0,0.383,0.271,0.852,0.607,1.045l9.197,5.311
			c0.336,0.193,0.607,0.039,0.607-0.346v-1.982C356.824,215.402,356.133,214.045,355.205,213.254z"/>
		<path fill="#FFFFFF" d="M370.428,227.57l3.211,1.855v-5.758l-3.211-1.854V227.57z M375.512,230.506l3.211,1.855v-10.557
			l-3.211-1.854V230.506z M380.598,218.09v15.352l3.211,1.854v-15.352L380.598,218.09z"/>
		<path fill="#FFFFFF" d="M330.589,197.563c0-0.297-0.025-0.602-0.063-0.91l1.517-0.191c-0.154-0.764-0.389-1.535-0.688-2.297
			l-1.729-0.521c-0.302-0.646-0.664-1.273-1.076-1.857l0.414-1.744c-0.512-0.64-1.067-1.228-1.655-1.744l-0.931,1.203
			c-0.248-0.188-0.501-0.363-0.761-0.513c-0.259-0.149-0.512-0.266-0.76-0.365l-0.931-2.278c-0.588-0.162-1.144-0.215-1.655-0.167
			l0.414,2.223c-0.412,0.108-0.774,0.315-1.076,0.613l-1.729-1.473c-0.3,0.415-0.533,0.917-0.688,1.502l1.517,1.944
			c-0.038,0.264-0.063,0.539-0.063,0.836s0.025,0.602,0.063,0.91l-1.517,0.191c0.154,0.764,0.388,1.535,0.688,2.297l1.729,0.523
			c0.302,0.646,0.664,1.271,1.076,1.855l-0.414,1.744c0.512,0.639,1.067,1.229,1.655,1.744l0.931-1.203
			c0.248,0.188,0.501,0.363,0.76,0.512c0.26,0.15,0.513,0.266,0.761,0.365l0.931,2.279c0.588,0.162,1.144,0.215,1.655,0.166
			l-0.414-2.223c0.412-0.107,0.774-0.314,1.076-0.613l1.729,1.473c0.299-0.414,0.533-0.916,0.688-1.502l-1.517-1.943
			C330.564,198.135,330.589,197.859,330.589,197.563z M325.618,196.984c-1.103-0.637-1.996-2.18-1.996-3.445
			s0.894-1.775,1.996-1.139c1.104,0.637,1.997,2.18,1.997,3.445S326.721,197.621,325.618,196.984z"/>
		<g>
			<path fill="#FFFFFF" d="M293.188,171.228l6.377,9.965l6.377-2.602c0.002,0.003,0.004,0.006,0.006,0.008
				c-0.211-0.307-0.472-0.571-0.758-0.736l-11.251-6.496c-0.286-0.165-0.546-0.201-0.757-0.137
				C293.184,171.229,293.186,171.228,293.188,171.228z"/>
			<path fill="#FFFFFF" d="M305.961,178.621l-6.396,3.647l-1.812-3.125l-4.565,1.863c-0.007-0.01-0.014-0.02-0.02-0.029l4.245-2.421
				l-4.245-7.322c-0.29,0.096-0.479,0.388-0.479,0.845v7.621c0,0.792,0.56,1.758,1.25,2.156l11.251,6.495
				c0.69,0.399,1.251,0.08,1.251-0.713v-7.62C306.441,179.562,306.251,179.051,305.961,178.621z M305.942,188.37l-4.566-7.135
				l0.341-0.193l4.245,7.321C305.955,188.365,305.949,188.368,305.942,188.37z"/>
		</g>
	</g>
	<g>
		<g>
			<polygon fill="#2672AB" points="209.527,239.068 209.527,267.617 214.035,265.053 214.035,236.346 			"/>
			<polygon fill="#3F92D1" points="209.55,239.068 209.55,267.617 132.883,223.367 132.883,194.66 			"/>
			<polygon fill="#72B5E8" points="132.883,194.66 209.55,239.068 214.035,236.346 137.329,191.992 			"/>
			<polygon opacity="0.7" fill="#FFFFFF" points="132.883,194.66 209.55,239.068 214.035,236.346 209.368,238.219 			"/>
		</g>
		<path fill="#FFFFFF" d="M162.508,216.482l-14.016-8.092c-0.859-0.496-1.557-0.1-1.557,0.887v9.494
			c0,0.986,0.697,2.189,1.557,2.686l8.76,5.059l4.381,7.555v-5.027l0.875,0.506c0.86,0.498,1.558,0.1,1.558-0.887v-9.494
			C164.066,218.182,163.369,216.979,162.508,216.482z M152.628,218.26c-0.456,0.26-1.196-0.168-1.651-0.955
			c-0.457-0.785-0.457-1.635,0-1.895c0.455-0.26,1.195,0.166,1.651,0.953S153.084,217.998,152.628,218.26z M156.424,220.451
			c-0.456,0.26-1.195-0.168-1.652-0.955c-0.455-0.785-0.455-1.635,0-1.895c0.457-0.26,1.196,0.166,1.652,0.953
			S156.88,220.191,156.424,220.451z M160.22,222.643c-0.456,0.26-1.196-0.168-1.651-0.953c-0.457-0.787-0.457-1.637,0-1.896
			c0.455-0.26,1.195,0.168,1.651,0.953C160.676,221.533,160.676,222.383,160.22,222.643z M145.768,218.098v-7.707l-5.354-3.09
			c-0.859-0.498-1.557-0.1-1.557,0.887v9.494c0,0.986,0.697,2.189,1.557,2.686l0.876,0.506v5.025l4.38-2.496l8.76,5.057
			c0.86,0.496,1.558,0.1,1.558-0.887v-0.447l-7.495-4.328C146.991,221.93,145.768,219.82,145.768,218.098z"/>
		<polygon fill="#FFFFFF" points="167.257,221.258 167.257,223.627 203.883,244.775 203.883,242.404 		"/>
		<polygon fill="#FFFFFF" points="192.3,245.58 167.257,231.107 167.257,233.479 192.3,247.949 		"/>
		<polygon fill="#FFFFFF" points="167.257,228.553 203.883,249.699 203.883,247.33 167.257,226.182 		"/>
	</g>
	<g>
		<path opacity="0.2" fill="#92B4D1" d="M260.617,298.746l-23.809-13.365c2.056-1.508,3.262-3.303,3.262-5.232
			c0-5.326-9.089-9.643-20.302-9.643c-11.212,0-20.301,4.316-20.301,9.643s9.089,9.643,20.301,9.643
			c2.337,0,4.572-0.195,6.661-0.541l25.638,14.396c1.655,0.957,4.547,0.838,6.458-0.268
			C260.642,302.305,263.157,300.246,260.617,298.746z"/>
		<g>
			<g>
				<circle fill="#001A46" cx="255.738" cy="298.702" r="5.449"/>
				<path fill="#084C94" d="M243.292,261.852l-11.798,6.357l17.599,32.465h0.002c0.008,0.016,0.015,0.031,0.023,0.047
					c1.022,1.898,4.492,2.012,7.749,0.258c3.258-1.756,5.07-4.717,4.048-6.613c-0.008-0.018-0.019-0.031-0.027-0.047l0.002-0.002
					L243.292,261.852z"/>
				
					<ellipse transform="matrix(0.8803 -0.4744 0.4744 0.8803 -97.3227 144.3394)" fill="#2672AB" cx="237.405" cy="265.054" rx="6.701" ry="3.903"/>
				<path fill="#001A46" d="M235.566,253.238l-7.017,3.781l4.989,9.26h0.001c0.005,0.01,0.009,0.02,0.015,0.029
					c0.607,1.129,2.672,1.197,4.609,0.152s3.016-2.805,2.407-3.934c-0.005-0.01-0.011-0.018-0.017-0.027h0.002L235.566,253.238z"/>
			</g>
			<g>
				<path fill="#72B5E8" d="M215.756,178.806c-8.737-5.044-16.66-5.622-22.457-2.482c-0.163,0.088-8.482,4.73-8.744,5.132
					c5.899-4.45,14.633-4.383,24.379,1.245c17.767,10.257,32.17,35.101,32.17,55.487c0,10.402-3.751,17.633-9.784,20.859
					c0.433-0.119,0.943-0.34,1.569-0.689c0.172-0.098,5.846-3.535,6.013-3.637c5.587-3.414,9.023-10.469,9.023-20.428
					C247.925,213.906,233.523,189.063,215.756,178.806z"/>
			</g>
			<path fill="#D1EBFF" d="M208.934,182.7c-17.767-10.258-32.169-2.047-32.169,18.341c0,20.387,14.402,45.23,32.169,55.488
				s32.17,2.045,32.17-18.342S226.701,192.957,208.934,182.7z M208.452,251.66c-15.077-8.703-27.299-29.785-27.299-47.086
				s12.222-24.27,27.299-15.564s27.299,29.787,27.299,47.086C235.75,253.396,223.529,260.365,208.452,251.66z"/>
			<path fill="#72B5E8" d="M214.102,248.502c-15.077-8.703-27.299-29.785-27.299-47.086c0-7.057,2.035-12.394,5.467-15.649
				c-6.741,1.812-11.117,8.458-11.117,18.808c0,17.301,12.222,38.383,27.299,47.086c8.927,5.154,16.851,4.813,21.832,0.086
				C225.755,252.963,220.161,252,214.102,248.502z"/>
			<path fill="#FFFFFF" d="M210.478,181.928c-8.517-4.917-16.255-5.58-22.01-2.702c5.364-1.5,13.256-0.689,20.466,3.475
				c17.767,10.257,32.17,35.101,32.17,55.487c0,10.615-5.145,18.227-11.396,21.354c7.854-2.197,12.939-10.012,12.939-22.125
				C242.648,217.029,228.245,192.186,210.478,181.928z"/>
		</g>
	</g>
</g>
</svg>
